<?xml version="1.0" encoding="utf-8"?>
<!-- Generator: Adobe Illustrator 21.1.0, SVG Export Plug-In . SVG Version: 6.00 Build 0)  -->
<svg version="1.1" id="レイヤー_1" xmlns="http://www.w3.org/2000/svg" xmlns:xlink="http://www.w3.org/1999/xlink" x="0px"
	 y="0px" viewBox="0 0 196.1 196.1" style="enable-background:new 0 0 196.1 196.1;" xml:space="preserve">
<style type="text/css">
	.st0{fill:#FFFFFF;}
	.st1{fill:#75BC40;}
	.st2{fill:none;}
</style>
<g id="XMLID_1_">
	<g>
		<path class="st0" d="M168.3,24.2h7.1c-7.2,3.3-14.6,6.1-22.3,8.5C158.7,30.8,163.8,27.9,168.3,24.2z"/>
		<path class="st1" d="M130.5,74.6c4-6.3,8.4-12.2,13.1-17.9c19,4.7,36.8,12.3,52.9,22.3c-11-6.5-23.7-10.2-37.4-10.2
			C149,68.8,139.3,70.9,130.5,74.6z"/>
		<path class="st1" d="M143.6,56.7c-4.7,5.7-9.1,11.7-13.1,17.9c-7,3-13.5,7-19.2,11.9l0-0.1c4.3-3.7,7-9.1,7-15.2
			c0-11.1-9-20.1-20.1-20.1C113.8,51.1,129.1,53,143.6,56.7z"/>
		<path class="st1" d="M111.5,111.5c0,1.5-0.2,3-0.7,4.3c-0.7,2-1.8,3.8-3.3,5.2c-2.2-7.1-5.4-13.7-9.4-19.7c0.7-1,1.4-2.1,2.2-3.1
			C106.6,99.3,111.5,104.8,111.5,111.5z"/>
		<path class="st1" d="M110.8,115.8L110.8,115.8c-0.9,2.7-1.7,5.3-2.5,8c-0.2-0.9-0.5-1.9-0.8-2.8
			C109,119.6,110.1,117.8,110.8,115.8z"/>
		<path class="st0" d="M109.9,131.6h-3.6c0.6-2.6,1.3-5.2,2-7.8C109,126.4,109.5,129,109.9,131.6z"/>
		<path class="st1" d="M98,24.2c7.4,0,13.4,6,13.4,13.4c0,1-0.1,1.9-0.3,2.8c-4.3,0.3-8.7,0.5-13.1,0.5V24.2z"/>
		<path class="st1" d="M107.5,121c0.3,0.9,0.6,1.9,0.8,2.8c-0.7,2.6-1.4,5.2-2,7.8H98v-6.7C101.7,124.9,105.1,123.4,107.5,121z"/>
		<path class="st1" d="M98,131.6h8.2c-3.2,13.7-5,28-5,42.6c0,1.5,0,2.9,0.1,4.3c-0.1,0.1-0.1,0.3-0.2,0.4c-0.5-1.2-1.7-2-3.1-2
			V131.6z"/>
		<path class="st1" d="M98.1,51.1c11.1,0,20.1,9,20.1,20.1c0,6.1-2.7,11.5-7,15.2c-3.5,3.1-8.1,4.9-13.2,4.9L98.1,51.1
			C98.1,51.1,98.1,51.1,98.1,51.1z"/>
		<path class="st0" d="M101.4,180.1c0.1,3,0.3,6,0.5,9c-1.4-1.7-2.6-3.4-3.9-5.2c0.1-0.1,0.1-0.2,0.2-0.3c1.8-0.1,3.1-1.6,3.1-3.3
			C101.4,180.2,101.4,180.2,101.4,180.1L101.4,180.1z"/>
		<path class="st1" d="M101.4,180.1c0,0.1,0,0.1,0,0.2c0,1.8-1.4,3.2-3.1,3.3c1-1.5,2-3.1,2.9-4.7
			C101.3,179.3,101.4,179.7,101.4,180.1z"/>
		<path class="st1" d="M101.4,180.1L101.4,180.1c0-0.4-0.1-0.8-0.3-1.1c0.1-0.1,0.1-0.3,0.2-0.4
			C101.4,179.1,101.4,179.6,101.4,180.1z"/>
		<path class="st1" d="M100.8,16.4c0.4,0.5,0.6,1.2,0.6,1.9c0,1.9-1.5,3.4-3.4,3.4c-1.9,0-3.4-1.5-3.4-3.4c0-0.7,0.2-1.3,0.6-1.9
			c0,0,0,0,0,0c0.1-0.1,0.1-0.2,0.2-0.2c0.6-0.7,1.5-1.2,2.6-1.2c1,0,2,0.5,2.6,1.2c0,0,0,0,0,0C100.7,16.2,100.8,16.3,100.8,16.4
			C100.8,16.4,100.8,16.4,100.8,16.4z"/>
		<path class="st1" d="M98,176.9c1.4,0,2.6,0.8,3.1,2c-0.9,1.6-1.9,3.1-2.9,4.7c-0.1,0-0.1,0-0.2,0V176.9z"/>
		<path class="st1" d="M111.5,37.7c0-7.4-6-13.4-13.4-13.4h10.3c8.1,6.8,18.6,10.8,30,10.8c4.2,0,8.3-0.6,12.2-1.6
			c-12.6,3.7-25.8,6.1-39.4,7C111.4,39.6,111.5,38.6,111.5,37.7z"/>
		<path class="st1" d="M100.2,98.2c-0.8,1-1.5,2-2.2,3.1V98C98.8,98,99.5,98.1,100.2,98.2z"/>
		<path class="st1" d="M107.5,121c-2.4,2.4-5.8,3.9-9.4,3.9v-23.6C102.1,107.3,105.3,113.9,107.5,121z"/>
		<path class="st0" d="M98,183.6c0.1,0,0.1,0,0.2,0c-0.1,0.1-0.1,0.2-0.2,0.3V183.6z"/>
		<path class="st1" d="M98,51.1V40.9c4.4,0,8.8-0.2,13.1-0.5C109.9,46.5,104.5,51,98,51.1C98.1,51.1,98.1,51.1,98,51.1z"/>
		<path class="st0" d="M98,183.6v0.3c-0.1-0.1-0.1-0.2-0.2-0.3C97.9,183.6,98,183.6,98,183.6z"/>
		<path class="st1" d="M98,176.9v6.7c-0.1,0-0.1,0-0.2,0c-1-1.5-2-3.1-2.9-4.7C95.5,177.8,96.7,176.9,98,176.9z"/>
		<path class="st1" d="M98,131.6v45.3c-1.4,0-2.6,0.8-3.1,2c-0.1-0.1-0.1-0.3-0.2-0.4c0-1.4,0-2.8,0-4.2c0-14.7-1.7-29-5-42.8H98z"
			/>
		<path class="st1" d="M98,124.9v6.7h-8.2c-0.6-2.6-1.3-5.2-2-7.7c0.3-1,0.5-1.9,0.8-2.9C91,123.4,94.4,124.9,98,124.9z"/>
		<path class="st1" d="M98,101.3v23.6c-3.7,0-7-1.5-9.4-3.9C90.8,113.9,94,107.3,98,101.3z"/>
		<path class="st1" d="M98,98v3.2c-0.7-1-1.4-2.1-2.2-3.1C96.6,98.1,97.3,98,98,98z"/>
		<path class="st1" d="M98,51.1c-6.4,0-11.8-4.5-13.1-10.6c4.3,0.3,8.7,0.5,13.1,0.5V51.1z"/>
		<path class="st0" d="M94.2,189.1c0.2-2.9,0.4-5.9,0.5-8.8c0,1.8,1.4,3.2,3.1,3.3c0.1,0.1,0.1,0.2,0.2,0.3
			C96.8,185.7,95.6,187.5,94.2,189.1z"/>
		<path class="st1" d="M95.9,98.2c0.8,1,1.5,2,2.2,3.1c-4.1,6-7.3,12.6-9.4,19.7c-1.5-1.5-2.6-3.2-3.3-5.2c-0.5-1.4-0.7-2.8-0.7-4.3
			C84.6,104.8,89.5,99.3,95.9,98.2z"/>
		<path class="st1" d="M97.8,183.6c-1.7-0.1-3.1-1.6-3.1-3.3c0,0,0,0,0,0c0-0.1,0-0.1,0-0.2c0-0.4,0.1-0.8,0.3-1.1
			C95.9,180.6,96.8,182.1,97.8,183.6z"/>
		<path class="st1" d="M94.7,178.6c0.1,0.1,0.1,0.3,0.2,0.4c-0.1,0.3-0.2,0.7-0.3,1.1C94.7,179.6,94.7,179.1,94.7,178.6z"/>
		<path class="st1" d="M94.7,180.1c0,0.1,0,0.1,0,0.2C94.7,180.2,94.7,180.1,94.7,180.1z"/>
		<path class="st0" d="M89.8,131.6h-3.6c0.4-2.6,0.9-5.2,1.6-7.7C88.5,126.4,89.2,129,89.8,131.6z"/>
		<path class="st1" d="M85.3,115.8c0.7,2,1.8,3.8,3.3,5.2c-0.3,0.9-0.6,1.9-0.8,2.9C87,121.1,86.2,118.5,85.3,115.8L85.3,115.8z"/>
		<path class="st1" d="M77.9,71.2c0-11.1,9-20.1,20.1-20.1v40.3c-5,0-9.6-1.8-13.2-4.9C80.6,82.7,77.9,77.3,77.9,71.2z"/>
		<path class="st1" d="M84.6,37.7c0-7.4,6-13.4,13.4-13.4v16.7c-4.4,0-8.8-0.2-13.1-0.5C84.7,39.6,84.6,38.6,84.6,37.7z"/>
		<path class="st1" d="M87.8,24.2c2.8-2.3,5.3-4.9,7.5-7.8c-0.4,0.5-0.6,1.2-0.6,1.9c0,1.9,1.5,3.4,3.4,3.4c1.9,0,3.4-1.5,3.4-3.4
			c0-0.7-0.2-1.3-0.6-1.9c2.2,2.9,4.7,5.5,7.5,7.8H98H87.8z"/>
		<path class="st1" d="M77.9,71.2c0,6.1,2.7,11.5,7,15.2l0,0.1c-5.7-4.9-12.3-9-19.3-11.9c-4-6.2-8.4-12.2-13.1-17.9
			C67,53,82.3,51.1,98,51.1C86.9,51.1,77.9,60.1,77.9,71.2z"/>
		<path class="st1" d="M52.4,56.7c4.7,5.7,9.1,11.7,13.1,17.9c-8.8-3.7-18.5-5.7-28.6-5.7c-13.6,0-26.4,3.7-37.4,10.2
			C15.7,69,33.5,61.4,52.4,56.7z"/>
		<path class="st1" d="M98,24.2c-7.4,0-13.4,6-13.4,13.4c0,1,0.1,1.9,0.3,2.8c-13.6-0.9-26.7-3.3-39.4-7c3.9,1,8,1.6,12.2,1.6
			c11.4,0,21.9-4.1,30-10.8H98z"/>
		<path class="st0" d="M27.8,24.2c4.5,3.7,9.6,6.6,15.2,8.5c-7.6-2.4-15.1-5.2-22.3-8.5H27.8z"/>
	</g>
</g>
<rect class="st2" width="196.1" height="196.1"/>
</svg>
