<?xml version="1.0" encoding="utf-8"?>
<!-- Generator: Adobe Illustrator 21.1.0, SVG Export Plug-In . SVG Version: 6.00 Build 0)  -->
<svg version="1.1" id="レイヤー_1" xmlns="http://www.w3.org/2000/svg" xmlns:xlink="http://www.w3.org/1999/xlink" x="0px"
	 y="0px" viewBox="0 0 1966.6 1412.9" style="enable-background:new 0 0 1966.6 1412.9;" xml:space="preserve">
<style type="text/css">
	.st0{fill:#FFFFFF;}
	.st1{fill:#75BC40;}
	.st2{fill:none;}
	.st3{fill:none;stroke:#000000;stroke-width:0.75;stroke-miterlimit:10;}
	.st4{fill:none;stroke:#000000;stroke-width:3;stroke-miterlimit:10;}
</style>
<g>
	<g>
		<g id="XMLID_1_">
			<g>
				<path class="st0" d="M1351,48.7h36.9c-37.7,17.1-76.6,31.9-116.6,44.2C1300.8,83.2,1327.7,68.1,1351,48.7z"/>
				<path class="st1" d="M1221.9,218.3c99.3,24.7,192.6,64.6,277.3,116.9c-57.4-33.8-124.4-53.2-195.8-53.2
					c-53.3,0-104,10.8-150.2,30.3C1174.3,279.5,1197.2,248.2,1221.9,218.3z"/>
				<path class="st1" d="M1194.1,105.4c22.1,0,43.6-2.9,64-8.4c-66,19.3-135,31.8-206,36.7c1-4.7,1.6-9.7,1.6-14.7
					c0-38.8-31.4-70.2-70.2-70.2h53.7C1079.7,84.1,1134.4,105.4,1194.1,105.4z"/>
				<path class="st1" d="M1221.9,218.3c-24.7,29.9-47.7,61.2-68.7,93.9c-36.8,15.6-70.7,36.6-100.7,62.2l-0.3-0.3
					c22.3-19.3,36.4-47.8,36.4-79.7c0-58.2-47.2-105.3-105.4-105.3C1065.7,189.2,1145.6,199.3,1221.9,218.3z"/>
				<path class="st1" d="M983.4,189.2c58.2,0,105.4,47.2,105.4,105.3c0,31.8-14.1,60.3-36.4,79.7c-18.5,16-42.6,25.7-68.9,25.7
					V189.2z"/>
				<path class="st1" d="M1053.6,119c0,5.1-0.5,10-1.6,14.7c-22.7,1.6-45.6,2.4-68.7,2.4V48.7C1022.2,48.7,1053.6,80.2,1053.6,119z"
					/>
				<path class="st1" d="M1053.6,505.2c0,7.9-1.3,15.5-3.7,22.5c-3.5,10.5-9.5,19.8-17.1,27.4c-11.3-37.1-28.1-71.8-49.4-103.2
					c3.7-5.4,7.5-10.8,11.4-16C1028.2,441.4,1053.6,470.3,1053.6,505.2z"/>
				<path class="st1" d="M1049.9,527.7L1049.9,527.7c-4.6,13.9-8.9,27.9-13,42.1c-1.3-4.9-2.7-9.8-4.2-14.7
					C1040.5,547.5,1046.4,538.2,1049.9,527.7z"/>
				<path class="st0" d="M1045.3,610.6h-18.9c3.2-13.7,6.8-27.3,10.6-40.7C1040.5,583.2,1043.3,596.7,1045.3,610.6z"/>
				<path class="st1" d="M1037.1,48.7h-53.7h-53.7c14.6-12.1,27.7-25.9,39.1-41c-1.9,2.8-3,6.2-3,9.8c0,9.7,7.9,17.6,17.6,17.6
					c9.7,0,17.6-7.9,17.6-17.6c0-3.6-1.1-7-3-9.8C1009.4,22.9,1022.5,36.6,1037.1,48.7z"/>
				<path class="st1" d="M1052.1,133.7c-6.8,31.7-34.9,55.5-68.7,55.5V136C1006.5,136,1029.4,135.2,1052.1,133.7z"/>
				<path class="st1" d="M1032.8,555.1c1.5,4.9,2.9,9.8,4.2,14.7c-3.8,13.5-7.3,27-10.6,40.7h-43v-35.1
					C1002.6,575.5,1020.1,567.7,1032.8,555.1z"/>
				<path class="st1" d="M983.4,610.6h43c-17,71.6-25.9,146.4-25.9,223.2c0,7.6,0.1,15.2,0.3,22.7c-0.4,0.7-0.8,1.4-1.2,2.1
					c-2.7-6.3-8.9-10.7-16.2-10.7V610.6z"/>
				<path class="st0" d="M1000.9,864.5c0.5,15.9,1.4,31.6,2.6,47.3c-7.1-8.8-13.8-17.8-20.2-27.2c0.4-0.6,0.8-1.1,1.1-1.7
					c9.2-0.6,16.4-8.2,16.4-17.5C1000.9,865.1,1000.9,864.8,1000.9,864.5L1000.9,864.5z"/>
				<path class="st1" d="M1000.9,864.5c0,0.3,0,0.6,0,0.9c0,9.3-7.3,16.9-16.4,17.5c5.3-7.9,10.3-16,15-24.4
					C1000.3,860.4,1000.8,862.4,1000.9,864.5z"/>
				<path class="st1" d="M1000.9,864.5L1000.9,864.5c-0.1-2.1-0.6-4.1-1.4-6c0.4-0.7,0.8-1.4,1.2-2.1
					C1000.8,859.1,1000.9,861.8,1000.9,864.5z"/>
				<path class="st1" d="M997.9,7.7c1.9,2.8,3,6.2,3,9.8c0,9.7-7.9,17.6-17.6,17.6c-9.7,0-17.6-7.9-17.6-17.6c0-3.6,1.1-7,3-9.8
					c0,0,0,0,0,0c0.3-0.4,0.7-0.9,1-1.3c3.2-3.9,8.1-6.4,13.5-6.4c5.5,0,10.3,2.5,13.5,6.4c0.3,0.4,0.6,0.8,0.9,1.2
					C997.9,7.6,997.9,7.7,997.9,7.7z"/>
				<path class="st1" d="M983.4,847.8c7.3,0,13.5,4.4,16.2,10.7c-4.7,8.3-9.7,16.5-15,24.4c-0.4,0-0.8,0-1.1,0V847.8z"/>
				<path class="st1" d="M994.8,435.9c-3.9,5.2-7.8,10.5-11.4,16V435C987.3,435,991.1,435.3,994.8,435.9z"/>
				<path class="st1" d="M1032.8,555.1c-12.7,12.6-30.1,20.3-49.4,20.3V451.9C1004.7,483.3,1021.4,518,1032.8,555.1z"/>
				<path class="st0" d="M983.4,882.9c0.4,0,0.8,0,1.1,0c-0.4,0.6-0.8,1.1-1.1,1.7V882.9z"/>
				<path class="st0" d="M983.4,882.9v1.6c-0.4-0.6-0.8-1.1-1.1-1.7C982.6,882.9,983,882.9,983.4,882.9z"/>
				<path class="st1" d="M983.4,847.8v35.1c-0.4,0-0.8,0-1.1,0c-5.3-7.9-10.3-16-15-24.4C969.9,852.2,976.1,847.8,983.4,847.8z"/>
				<path class="st1" d="M983.4,610.6v237.2c-7.3,0-13.5,4.4-16.2,10.7c-0.4-0.7-0.8-1.3-1.2-2c0.2-7.4,0.3-14.8,0.3-22.2
					c0-77-9-151.9-26-223.8H983.4z"/>
				<path class="st1" d="M983.4,575.5v35.1h-43.1c-3.2-13.6-6.7-27.1-10.5-40.4c1.3-5,2.7-10,4.2-15
					C946.7,567.7,964.1,575.5,983.4,575.5z"/>
				<path class="st1" d="M983.4,451.9v123.6c-19.3,0-36.7-7.8-49.4-20.3C945.3,518,962.1,483.3,983.4,451.9z"/>
				<path class="st1" d="M983.4,435v16.9c-3.7-5.4-7.5-10.8-11.4-16C975.7,435.3,979.5,435,983.4,435z"/>
				<path class="st1" d="M983.4,189.2v210.7c-26.4,0-50.5-9.7-68.9-25.7c-22.3-19.3-36.4-47.8-36.4-79.7
					C878,236.3,925.2,189.2,983.4,189.2z"/>
				<path class="st1" d="M983.4,136v53.1c-33.7,0-61.9-23.8-68.7-55.5C937.4,135.2,960.3,136,983.4,136z"/>
				<path class="st1" d="M983.4,48.7V136c-23.1,0-46-0.8-68.7-2.4c-1-4.7-1.5-9.7-1.5-14.7C913.2,80.2,944.6,48.7,983.4,48.7z"/>
				<path class="st1" d="M929.7,48.7h53.7c-38.8,0-70.2,31.4-70.2,70.2c0,5.1,0.5,10,1.5,14.7c-71-4.9-139.9-17.4-206-36.7
					c20.4,5.5,41.8,8.4,64,8.4C832.4,105.4,887.1,84.1,929.7,48.7z"/>
				<path class="st0" d="M982.3,882.9c0.4,0.6,0.8,1.1,1.1,1.7c-6.3,9.3-13,18.4-20.1,27.1c1.2-15.3,2.1-30.7,2.6-46.2
					C965.9,874.7,973.1,882.3,982.3,882.9z"/>
				<path class="st1" d="M972,435.9c3.9,5.2,7.8,10.5,11.4,16c-21.3,31.4-38.1,66.1-49.4,103.2c-7.7-7.6-13.6-16.9-17.1-27.4
					c-2.4-7.1-3.7-14.6-3.7-22.5C913.2,470.3,938.6,441.4,972,435.9z"/>
				<path class="st1" d="M982.3,882.9c-9.1-0.6-16.4-8.2-16.4-17.4c0,0,0,0,0-0.1c0-0.3,0-0.7,0-1c0.1-2,0.6-4,1.3-5.8
					C971.9,866.8,976.9,875,982.3,882.9z"/>
				<path class="st1" d="M966.1,856.5c0.4,0.7,0.8,1.3,1.2,2c-0.8,1.8-1.2,3.8-1.3,5.8C965.9,861.7,966,859.1,966.1,856.5z"/>
				<path class="st1" d="M965.9,864.3c0,0.4,0,0.7,0,1C965.8,865,965.8,864.7,965.9,864.3z"/>
				<path class="st0" d="M940.3,610.6h-18.8c2-13.7,4.8-27.2,8.3-40.4C933.5,583.5,937,597,940.3,610.6z"/>
				<path class="st1" d="M916.8,527.7c3.5,10.5,9.5,19.8,17.1,27.4c-1.5,4.9-2.9,9.9-4.2,15c-4-14.2-8.4-28.3-13.1-42.3L916.8,527.7
					z"/>
				<path class="st1" d="M914.4,374.2l-0.3,0.3C884.1,348.8,850,327.6,813,312c-21-32.6-43.9-63.9-68.6-93.6
					c76.5-19.1,156.5-29.2,238.9-29.2c-58.2,0-105.3,47.2-105.3,105.3C878,326.3,892.1,354.9,914.4,374.2z"/>
				<path class="st1" d="M744.4,218.4c24.7,29.8,47.6,61,68.6,93.6c-46-19.4-96.6-30.1-149.7-30.1c-71.4,0-138.3,19.4-195.7,53.2
					C552.3,282.9,645.4,243.2,744.4,218.4z"/>
				<path class="st0" d="M615.7,48.7C639,68.1,666,83.2,695.4,93c-40-12.3-79-27.1-116.6-44.2H615.7z"/>
			</g>
		</g>
		<g>
			<path class="st1" d="M219.1,1352.7c32.2,46.1,45.6,55.4,58.6,55.4c3.8,0,5.3,1.9,5.3,4.4s-1.4,5.3-5.8,5.3h-37
				c-46.6,0-53.3-2.9-81.2-49l-35.6-59.2c-5.8-9.7-11.1-15.1-24-15.5v79.1c0,33.5,1.4,35,35.6,35c3.8,0,5.3,2.4,5.3,4.9
				s-1.4,4.9-5.3,4.9c-4.3,0-18.3-0.5-32.2-1.5c-13-0.5-26.4-1-33.6-1s-26.4,0-50.4,1.9c-6.7,0.5-11.1,0.5-13.5,0.5
				c-3.4,0-5.3-2.4-5.3-4.9s1.9-4.9,5.3-4.9c33.6,0,35.6-1,35.6-35v-289.9c0-44.2-1.4-45.6-23.5-45.6h-3.8c-3.4,0-4.8-2.4-4.8-4.9
				s1.4-4.9,4.8-4.9c42.3-2.9,53.8-6.8,78.3-18c1.9-1,3.4-1.5,4.8-1.5c3.4,0,5.3,2.4,5.3,5.8c0,1.9,0,4.9-1,20.9
				c-1,16.5-1.4,28.6-1.4,54.9v191.3h9.6c15.4,0,25-5.3,37.5-18.9l24-26.7c16.3-18,25-31.6,25-40.8c0-10.2-14.9-15.5-41.3-17.5
				c-2.9,0-4.8-2.4-4.8-4.9c0-2.4,1.4-4.9,4.8-4.9c1.4,0,4.3,0,10.6,0.5c25,1.9,50,2.4,60.5,2.4c9.6,0,25-1,36.5-1.9
				c11.5-1,13.5-1,14.4-1c3.4,0,4.8,2.4,4.8,4.9c0,1.9-1.4,4.4-4.8,4.9c-26.9,1.9-43.2,13.1-60.1,29.6l-46.1,45.6
				c-4.3,4.4-6.7,9.7-6.7,14.6c0,4.4,1.4,8.3,6.2,15.1L219.1,1352.7z"/>
			<path class="st1" d="M566,1351.8c0,45.2,5.8,56.3,40.4,56.3c3.4,0,5.3,2.4,5.3,4.9s-1.9,4.9-5.3,4.9h-80.2
				c-14.9,0-16.8-5.8-16.8-20.4c0-8.7,2.9-33,4.3-41.8h-2.4c-10.1,41.3-40.8,67-92.2,67c-52.4,0-84.1-29.1-84.1-83v-137.9
				c0-13.6-1-24.3-18.7-24.3h-16.3c-3.4,0-5.3-2.4-5.3-4.9c0-2.4,1.9-4.9,5.3-4.9c31.2,0,61-1.9,81.7-6.3c6.2-1.5,14.4-2.9,15.9-2.9
				c2.9,0,4.8,1.5,4.8,4.9c0,1,0,2.9-1.4,9.7c-2.9,13.6-5.8,49-5.8,69.4v92.3c0,49,15.4,70.9,50,70.9c38.9,0,61-35.4,61-77.2v-121.9
				c0-16-1-29.1-18.7-29.1h-25.9c-3.4,0-5.3-2.4-5.3-4.9c0-2.4,1.9-4.9,5.3-4.9c36.5,0,75.9,0,96.6-8.3c1.9-1,4.3-1.5,6.7-1.5
				c2.9,0,5.3,1.5,5.3,5.3c0,2.9-0.5,7.3-1,11.2c-1.4,9.7-2.9,28.2-2.9,75.7V1351.8z"/>
			<path class="st1" d="M865.8,1261H705.3c-1,9.2-1.4,18.5-1.4,27.7c0,43.7,8.2,84.5,28.3,106.3c10.6,11.7,25,16.5,39.4,16.5
				c50.4,0,74-36.4,83.6-54.9c1-1.9,2.9-2.9,4.3-2.9c2.9,0,5.8,1.9,5.8,4.9c0,1.5,0,2.4-1,3.9c-16.3,29.6-46.1,60.2-103.3,60.2
				c-54.3,0-123-42.7-123-124.8c0-88.4,66.8-139.8,126.4-139.8c62,0,101.4,41.8,101.4,95.7V1261z M793.2,1251.2
				c10.6,0,12-2.4,12-12.1c0-21.4-5.8-44.2-14.9-56.3c-8.2-10.7-20.2-15.1-30.3-15.1c-13,0-23.5,3.4-33.2,16
				c-10.1,13.6-17.3,39.3-20.7,67.5H793.2z"/>
			<path class="st1" d="M1003.7,1224c13.9-43.7,42.8-66,79.8-66c66.8,0,114.3,52.4,114.3,123.3c0,83-58.1,141.3-123,141.3
				c-19.7,0-43.7-4.4-62.9-18.9c-5.8-4.4-13-6.8-21.6-6.8c-18.3,0-35.1,13.1-47.6,24.8c-1.9,1.9-3.8,2.9-5.3,2.9
				c-1.4,0-3.4-1-3.4-3.4c0-1,0.5-3.4,1-5.3c8.6-28.2,10.6-67,10.6-117v-214.6c0-45.2,0-46.6-22.1-46.6h-4.8c-3.4,0-5.3-2.4-5.3-4.9
				s1.9-4.9,5.3-4.9c36-2.4,55.7-6.8,79.3-18c3.4-1.5,4.3-1.5,5.8-1.5c2.9,0,5.8,2.4,5.8,5.8c0,1.5-0.5,4.4-1.4,9.2
				c-1.4,7.8-1.9,21.8-1.9,52.9v39.3c0,59.2-3.4,88.4-6.7,108.3H1003.7z M1004.1,1307.6c0,83,33.2,105.4,66.8,105.4
				c39.9,0,61.5-44.2,61.5-128.2c0-58.8-17.8-112.7-62-112.7c-34.1,0-66.3,37.9-66.3,120.9V1307.6z"/>
			<path class="st1" d="M1247.2,1177.4c-3.4,0-5.3-2.4-5.3-4.9c0-2.4,1.9-4.9,5.3-4.9c38,0,63.4-2.4,80.7-5.8c1.4-0.5,3.8-1,5.3-1
				c2.9,0,5.3,1.9,5.3,5.8c0,1.9,0,2.4-1,10.2c-1,6.3-2.9,27.2-2.9,52v142.3c0,33.5,1.4,35,34.6,36.9c3.8,0,5.8,2.4,5.8,4.9
				s-1.9,4.9-5.8,4.9c-4.3,0-16.8-0.5-30.7-1.5c-13-0.5-26.9-1-34.1-1c-7.7,0-20.2,0.5-32.2,1c-13.5,1-26.4,1.5-33.6,1.5
				c-3.4,0-4.8-2.4-4.8-4.9s1.4-4.9,4.8-4.9c33.6-1.9,35.6-2.9,35.6-36.9v-153c0-35.4-1-40.8-18.7-40.8H1247.2z M1341.4,1065.8
				c0,19.9-15.9,36.4-35.1,36.4c-19.7,0-35.6-16.5-35.6-36.4c0-19.4,15.9-35.9,35.6-35.9C1325.6,1029.8,1341.4,1046.3,1341.4,1065.8
				z"/>
			<path class="st1" d="M1622.9,1352.7c32.2,46.1,45.6,55.4,58.6,55.4c3.8,0,5.3,1.9,5.3,4.4s-1.4,5.3-5.8,5.3h-37
				c-46.6,0-53.3-2.9-81.2-49l-35.6-59.2c-5.8-9.7-11.1-15.1-24-15.5v79.1c0,33.5,1.4,35,35.6,35c3.8,0,5.3,2.4,5.3,4.9
				s-1.4,4.9-5.3,4.9c-4.3,0-18.3-0.5-32.2-1.5c-13-0.5-26.4-1-33.6-1c-7.2,0-26.4,0-50.4,1.9c-6.7,0.5-11,0.5-13.5,0.5
				c-3.4,0-5.3-2.4-5.3-4.9s1.9-4.9,5.3-4.9c33.6,0,35.6-1,35.6-35v-289.9c0-44.2-1.4-45.6-23.5-45.6h-3.8c-3.4,0-4.8-2.4-4.8-4.9
				s1.4-4.9,4.8-4.9c42.3-2.9,53.8-6.8,78.3-18c1.9-1,3.4-1.5,4.8-1.5c3.4,0,5.3,2.4,5.3,5.8c0,1.9,0,4.9-1,20.9
				c-1,16.5-1.4,28.6-1.4,54.9v191.3h9.6c15.4,0,25-5.3,37.5-18.9l24-26.7c16.3-18,25-31.6,25-40.8c0-10.2-14.9-15.5-41.3-17.5
				c-2.9,0-4.8-2.4-4.8-4.9c0-2.4,1.4-4.9,4.8-4.9c1.4,0,4.3,0,10.6,0.5c25,1.9,50,2.4,60.5,2.4c9.6,0,25-1,36.5-1.9
				c11.5-1,13.5-1,14.4-1c3.4,0,4.8,2.4,4.8,4.9c0,1.9-1.4,4.4-4.8,4.9c-26.9,1.9-43.2,13.1-60.1,29.6l-46.1,45.6
				c-4.3,4.4-6.7,9.7-6.7,14.6c0,4.4,1.4,8.3,6.2,15.1L1622.9,1352.7z"/>
			<path class="st1" d="M1966,1290.6c0,79.6-67.7,132.1-127.8,132.1s-127.8-52.4-127.8-132.1c0-79.1,67.7-132.6,127.8-132.6
				S1966,1211.4,1966,1290.6z M1900.2,1290.6c0-22.3-1.4-58.8-13.9-86.9c-7.7-18-23.5-35.9-48-35.9s-40.4,18-48,35.9
				c-12.5,28.2-13.9,64.6-13.9,86.9s1.4,58.3,13.9,86.4c7.7,18,23.5,35.9,48,35.9s40.4-18,48-35.9
				C1898.7,1348.8,1900.2,1312.9,1900.2,1290.6z"/>
		</g>
	</g>
	<polygon class="st2" points="983,-2796.9 -1670.5,1799.1 3636.6,1799.1 	"/>
</g>
<rect x="-2001.7" y="-3403.9" class="st3" width="6073.5" height="8589.6"/>
<rect x="-330.8" y="-386.3" class="st4" width="2627.7" height="2185.4"/>
</svg>
