<?xml version="1.0" encoding="utf-8"?>
<!-- Generator: Adobe Illustrator 21.1.0, SVG Export Plug-In . SVG Version: 6.00 Build 0)  -->
<svg version="1.1" id="レイヤー_1" xmlns="http://www.w3.org/2000/svg" xmlns:xlink="http://www.w3.org/1999/xlink" x="0px"
	 y="0px" viewBox="0 0 1059.6 1059.6" style="enable-background:new 0 0 1059.6 1059.6;" xml:space="preserve">
<style type="text/css">
	.st0{fill:#FFFFFF;}
	.st1{clip-path:url(#SVGID_2_);}
	.st2{clip-path:url(#SVGID_2_);fill:#FFFFFF;}
	.st3{clip-path:url(#SVGID_2_);fill:#FFFFFF;stroke:#000000;stroke-width:0.5;stroke-linecap:round;stroke-linejoin:round;}
	.st4{clip-path:url(#SVGID_2_);fill:none;}
</style>
<rect class="st0" width="1059.6" height="1059.6"/>
<g>
	<g>
		<defs>
			<rect id="SVGID_1_" x="38.6" y="41.7" width="980.6" height="980.6"/>
		</defs>
		<clipPath id="SVGID_2_">
			<use xlink:href="#SVGID_1_"  style="overflow:visible;"/>
		</clipPath>
		<g class="st1">
			<g id="XMLID_1_">
				<g>
					<path d="M1009.3,725.5c5.4,5.5,12.7,19.7,8.8,27.1c-1.6,3-3.4,5.6-6.4,7.1c-14.3,7.3-28.9,13.9-43.7,20
						c-19.8,8.1-39.5,16.4-59,25.2c-19.7,8.9-39,18.6-60,24.7c-17.6,5.1-34.4,13.5-51.7,19.7c-16.5,6-31.9,14.3-47.8,21.5
						c-18.7,8.4-37.3,16.9-56.4,24.3c-7.3,2.8-14.2,6.5-21.3,10c-10.5,5.1-21.9,8-32.5,13c-9.6,4.5-19.4,8.6-29,12.9
						c-17.4,7.9-34.9,15.3-52.2,23.2c-14.7,6.7-28.8,14.6-43.7,20.8c-7,2.9-14.8,2.9-21.6,6.5c-5.2,2.7-10.5,5.1-15.8,7.6
						c-3.2,1.5-6.7,2.1-9.9,3.5c-4.4,1.9-8.6,4.1-12.7,6.5c-3.8,2.3-8.1,2.8-12.3,3.6c-7.9,1.7-14.8,6-22.5,8.1
						c-3.1,0.9-6.4,1.1-9.5,1.6c-2.2-0.2-4.5-0.3-6.1-1.9c-1.2-1.1-2.7-1.4-3.9-1.1c-6.2,1.3-8-3.6-11.2-7.1
						c-8.4-9.2-16.2-18.9-24.4-28.3c-11.6-13.4-23.2-26.8-34.6-40.3c-11.3-13.4-22.9-26.6-33.7-40.4C278.8,871,260,849.9,243,827.4
						c-9.4-12.5-20-24.2-29.4-36.7c-10.6-14-21.9-27.4-33.7-40.5c-10.3-11.5-20.3-23.1-28.7-36c-9.4-14.6-21.3-27.1-31.5-41
						c-5.5-7.3-4.7-14.5,0.8-21.7c3.9-5.2,9.2-7.3,14.6-9.8c14-6.5,28.6-11.5,42.7-17.5c21.9-9.4,48.7-17.4,73.1-26
						c-16.9,6.9-33.7,14.1-50.9,20.5c-14.7,5.5-28.7,12.7-43.5,17.8c-6.3,2.2-10.3,7.3-10.5,12.8c0,2.5,0.6,4.8,1.3,7.2
						c2.2,7.6,7.2,13.5,11.6,19.9c5.3,7.6,10,15.6,15.8,22.7c9.8,12.1,20.9,22.9,30.6,35.1c14.9,18.8,28.9,38.4,43.6,57.4
						c6.7,8.7,12.2,18.4,19.9,26.1c13.1,12.9,24.7,27.1,36.2,41.3c8.2,10.2,15.2,21.4,24.3,30.9c9.5,10,15.1,22.9,24.2,33.2
						c6.5,7.4,12,15.8,19.1,22.6c9.7,9.2,18.1,19.3,26.4,29.6c3.6,4.4,8.6,7.5,14.2,6c9.1-2.4,18.4-3.7,27.2-7.2
						c14.7-5.9,29.6-11.1,44-17.6c18-8,36.3-15.4,54.3-23.3c19.6-8.5,38.4-18.7,58.9-25.4c12.3-4,23.6-11.1,35.5-16.5
						c16.3-7.3,33.5-12.3,49.1-21.1c4.6-2.6,9.2-5.1,13.9-7.2c19.9-9.1,40.3-17,60.2-26c16.1-7.3,32.7-13.7,49-20.5
						c12.4-5.1,24.2-11.5,37.1-15.4c23.2-7,45-17.8,67.5-26.6c13.3-5.2,25.9-12.2,39.2-17.7c13.8-5.7,27.6-11.4,40.7-18.7
						c5.8-3.2,7.9-6.7,6.8-13.1c-0.9-5.5-1.1-11.1-5.9-15.4c-6.4-5.8-10.2-13.9-16.1-20.2c-24.2-26-49.2-51.2-71.5-78.8
						c-10.1-12.5-21.6-23.8-31.2-36.7c-7.5-10-15.5-19.6-24.5-28.3c-10.1-9.7-19.1-20.5-28.2-31.1c-7-8.2-13-17.2-20.7-24.9
						c-12.3-12.2-26.9-21.5-40-32.7c-8.1-6.9-17.1-12.6-24.9-19.9c-4.3-4-9.9-5.6-15.9-4.6c-8.8,1.5-17,5.1-25.4,7.8
						c-11,3.5-21.4,9.1-32.5,11.8c-19.4,4.8-37.4,13.4-56.2,19.6c-19.3,6.4-37.8,15-56.6,22.6c-14.3,5.8-29.2,9.9-42.8,17.4
						c-4.3,2.4-8.7,4.7-13.6,5.8c-12.2,2.7-24,6.9-35.4,12c-2.8,1.2-5.8,2.2-8.8,2.9c-16.8,3.6-32.7,10.3-49,15.4
						c17.6-6,24.6-10.4,42.5-15.5c16.2-4.6,26.4-13.3,42.8-16.8c13.5-2.9,24.9-10.7,37.7-15c25-8.5,48.8-19.9,73.5-29
						c17.8-6.5,35.3-13.9,53.3-19.8c15.2-5,30.5-9.8,45.3-16c7.4-3.1,14.6-6.2,22.5-7.8c7.5-1.5,14.4-0.1,20,4.6
						c15.9,13.5,32.4,26.1,48.8,38.9c15.5,12,27.6,27.2,40,42.3c9.9,12.2,20.5,23.9,31.9,34.8c8.1,7.8,14.9,16.8,21.8,25.7
						c9,11.6,19.4,22,28.4,33.6c9.8,12.7,21.2,24.1,31.2,36.6c5.2,6.5,12,11.6,17.3,18c9.7,11.6,21.1,21.6,30,34
						C991.6,707,1000.3,716.4,1009.3,725.5z M1008.9,755.9c4.3-2.4,6.7-6.2,5.4-11.2c-1.2-4.4-2.2-8.9-5.5-12.5
						c-1.9-2.1-4-3.5-6.9-3.9c0,7.9-4.8,11.9-11,14.9c-6.4,3-12.7,6-19.2,8.9c-5.5,2.4-10.9,4.9-16.5,7
						c-10.5,3.9-20.8,8.3-30.8,13.4c-2.9,1.4-5.7,3.1-8.8,4.2c-8.6,3.2-17.2,6.6-25.7,10.2c-11.9,5-23.9,9.7-35.8,14.7
						c-9.3,3.9-19.3,6.4-28.6,10.5c-20.5,8.9-41,17.7-61.5,26.5c-21.2,9.1-42.6,17.8-63.7,27.1c-15.2,6.7-29.9,14.4-45.1,21.1
						c-10.7,4.7-21.6,8.9-32.2,13.9c-6.8,3.2-13.3,7.4-20.4,9.7c-18.1,5.9-35.2,14-52.3,22.1c-10,4.7-20.2,9-30.2,13.5
						c-11.9,5.4-24.1,10.1-35.9,15.6c-12.8,6-26.3,10.3-39.5,15.4c-10.2,4-20.7,6.8-31.6,8.3c-6.9,1-13.3-1-17.3-6.3
						c-5.8-7.8-11.8-15.5-18.5-22.4c-9-9.3-16.7-19.7-25.4-29.2c-7-7.7-12-16.8-18.1-25.1c-4.6-6.2-10.5-11.3-14.8-17.7
						c-11.1-16.4-24.2-31.1-36.7-46.3c-6-7.4-13.6-13.4-19.6-20.9c-12.6-15.9-25-32.1-36.7-48.7c-10-14.3-20.6-28.2-32-41.2
						c-14.4-16.3-28.8-32.4-41.1-50.4c-6.9-10.1-14.3-19.9-11.4-34.3c-4,1.8-7.4,3.6-11,4.8c-10.7,3.4-12.6,18.1-6.8,25.2
						c7.2,8.7,14.3,17.4,21.1,26.4c7.4,9.8,14.2,20.1,21.7,29.9c13,16.8,28.2,31.9,41.3,48.7c21.5,27.6,43.4,54.9,65.5,82.1
						c18.6,22.8,36.8,46,56.2,68.2c20.1,23,39.5,46.6,60.2,69c9.1,9.9,24.6,12.8,36.5,6.8c4.9-2.5,9.7-5.2,15.5-5.8
						c2.7-0.3,5.6-0.1,8.1-1.4c8.9-4.6,17.9-8.9,27.2-12.6c9.3-3.7,18.2-8,27.9-10.6c15.7-4.2,30.1-11.8,44.4-19.3
						c6.3-3.3,12.6-6.5,19.3-8.8c6.8-2.4,13.9-4.7,20-8.5c13.1-8,27.7-12.6,41.5-19c18.4-8.6,37.8-15,56.2-23.7
						c20.3-9.6,41.6-17.1,61.8-26.9c21.5-10.4,43.4-20,65.8-28.4c13.1-5,25.8-11.2,39.4-14.8c20.7-5.6,39.4-16,58.9-24.5
						c16.5-7.3,33-14.5,49.7-21.3C978.1,771.5,993.8,764.4,1008.9,755.9z"/>
					<path d="M996.6,725c1.1,6.4-1,10-6.8,13.1c-13.1,7.2-26.8,13-40.7,18.7c-13.2,5.4-25.9,12.4-39.2,17.7
						c-22.5,8.9-44.2,19.6-67.5,26.6c-12.9,3.9-24.7,10.3-37.1,15.4c-16.3,6.8-32.9,13.2-49,20.5c-19.9,9-40.3,16.9-60.2,26
						c-4.8,2.2-9.4,4.6-13.9,7.2c-15.6,8.8-32.9,13.9-49.1,21.1c-11.9,5.3-23.2,12.4-35.5,16.5c-20.5,6.7-39.3,16.9-58.9,25.4
						c-18.1,7.9-36.3,15.2-54.3,23.3c-14.5,6.4-29.4,11.7-44,17.6c-8.8,3.5-18.1,4.8-27.2,7.2c-5.7,1.5-10.7-1.6-14.2-6
						c-8.4-10.3-16.8-20.4-26.4-29.6c-7.1-6.7-12.6-15.2-19.1-22.6c-9.1-10.3-14.7-23.2-24.2-33.2c-9-9.5-16-20.7-24.3-30.9
						c-11.5-14.2-23.1-28.4-36.2-41.3c-7.8-7.7-13.3-17.4-19.9-26.1c-14.7-19-28.6-38.6-43.6-57.4c-9.7-12.2-20.9-23.1-30.6-35.1
						c-5.8-7.2-10.5-15.2-15.8-22.7c-4.4-6.3-9.4-12.3-11.6-19.9c-0.7-2.4-1.3-4.8-1.3-7.2c0.2-5.4,4.2-10.6,10.5-12.8
						c14.8-5.2,28.8-12.3,43.5-17.8c17.1-6.4,33.9-13.6,50.9-20.5c8.3-2.9,16.3-5.9,23.7-9c0,0,0.1,0,0.1,0
						c11.4-4.1,22.9-7.9,34.4-11.7c3.4-1.1,6.7-2.4,9.9-3.7c0,0,0,0,0,0c3.3-1.2,6.6-2.5,9.8-3.9c0,0,0,0,0,0c2.7-1,5.5-2,8.3-2.8
						c9.8-2.8,19.5-5.5,29.2-8.6c7.2-2.3,14-5.7,21.3-7.6c1.9-0.5,3.7-1,5.5-1.5c0.1,0,0.1,0,0.2,0c1.4-0.4,2.7-0.8,3.7-1.1
						c0.1,0,0.1,0,0.2-0.1c16.3-5.1,32.2-11.8,49-15.4c3-0.6,6-1.6,8.8-2.9c11.4-5.1,23.2-9.2,35.4-12c4.9-1.1,9.3-3.4,13.6-5.8
						c13.6-7.5,28.6-11.6,42.8-17.4c18.8-7.6,37.3-16.2,56.6-22.6c18.8-6.2,36.8-14.8,56.2-19.6c11.1-2.8,21.5-8.3,32.5-11.8
						c8.4-2.7,16.6-6.3,25.4-7.8c6-1,11.6,0.6,15.9,4.6c7.8,7.3,16.8,13,24.9,19.9c13.1,11.2,27.8,20.5,40,32.7
						c7.7,7.7,13.7,16.7,20.7,24.9c9.1,10.6,18.1,21.4,28.2,31.1c9.1,8.7,17,18.3,24.5,28.3c9.6,12.9,21.1,24.2,31.2,36.7
						c22.4,27.6,47.3,52.8,71.5,78.8c5.9,6.3,9.7,14.4,16.1,20.2C995.5,713.9,995.7,719.5,996.6,725z M864.6,601.6
						c1-0.6,1.6-1.5,1.4-2.7c0-1.4-1.1-2.1-1.9-3c-13.3-13.9-26.6-27.7-39.9-41.6c-1.7-1.8-3.4-3.6-5.2-5.2
						c-1.2-1.1-2.8-1.7-4.2-0.6c-1.3,1-1.5,2.6-0.9,4.2c1.1,3,3.2,5.2,5.3,7.5c9.5,9.8,20.2,18.5,28.5,29.5
						c3.6,4.8,8.1,8.7,13.5,11.6C862.4,601.9,863.4,602.3,864.6,601.6z M852.5,566.7c1.4-0.2,2.5-1.2,2.5-2.8c0-1.9-1.2-2.6-4.1-2.6
						c-0.7,0-1.3,1.1-1.2,2.7C849.8,565.5,850.5,567,852.5,566.7z M807.6,532.3c0.2-3.4-3.7-8.4-6.7-8.5c-4.2-0.2-6.1,1.7-6.4,6
						c-0.3,4.8,2.2,7.5,6.9,7.8C804.6,537.7,807.4,535.3,807.6,532.3z"/>
					<path d="M941.4,776.3c1,0.7,0.9,1.6,0.5,2.5c-0.8,2-2.2,2.4-4.4,3c-10.4,2.5-20.1,7.3-30.1,11.1c-2.1,0.8-5,2-4.3,5.6
						c0.3,1.2-0.9,1.4-1.9,1.4c-1.6,0.1-2.5-0.9-3.2-2.2c-0.9-1.7-0.5-3.2,0.9-4.6c4.1-4.3,9.6-6.2,15-7.9
						c7.5-2.3,14.6-5.6,21.9-8.5C937.7,775.9,939.4,774.8,941.4,776.3z"/>
					<path class="st0" d="M866,598.9c0.1,1.2-0.4,2.1-1.4,2.7c-1.2,0.7-2.2,0.3-3.4-0.3c-5.4-2.8-9.9-6.8-13.5-11.6
						c-8.3-11-19-19.7-28.5-29.5c-2.2-2.2-4.2-4.5-5.3-7.5c-0.6-1.6-0.5-3.2,0.9-4.2c1.4-1.1,3-0.5,4.2,0.6c1.8,1.7,3.5,3.4,5.2,5.2
						c13.3,13.9,26.6,27.7,39.9,41.6C865,596.8,866.1,597.5,866,598.9z"/>
					<path class="st0" d="M855,563.8c0,1.6-1.1,2.6-2.5,2.8c-1.9,0.3-2.7-1.2-2.8-2.8c-0.1-1.5,0.5-2.7,1.2-2.7
						C853.8,561.2,854.9,562,855,563.8z"/>
					<path class="st0" d="M800.8,523.7c3,0.1,7,5.1,6.7,8.5c-0.2,3.1-3,5.5-6.2,5.3c-4.7-0.3-7.2-3-6.9-7.8
						C794.7,525.4,796.6,523.5,800.8,523.7z"/>
					<path d="M393.4,549.1c1.2-0.4,2.5-0.7,3.7-1.1C396,548.3,394.8,548.7,393.4,549.1z"/>
					<path d="M393.2,549.1c-1.8,0.5-3.7,1.1-5.5,1.5c-7.3,1.9-14.1,5.3-21.3,7.6c-9.7,3.1-19.4,5.9-29.2,8.6
						c-2.8,0.8-5.6,1.8-8.3,2.8c14.5-6.3,26.8-9.5,41.6-14.6C375.5,553.4,386.2,551,393.2,549.1z"/>
					<path d="M368.5,961.8c0,1.3-0.5,2.2-1.8,2.3c-1.4,0.2-2.4-0.4-2.7-1.9c-0.2-1.3,0.3-2.6,1.6-2.9
						C367.5,959,367.9,960.6,368.5,961.8z"/>
					<path d="M339.1,926.4c1.2,0.4,1.9,1.4,1.9,2.8c-0.3,1.4-1.3,2.1-2.6,1.9c-1.4-0.1-2.1-1.2-1.7-2.6
						C337.2,927.5,337.4,926,339.1,926.4z"/>
					<path d="M325.5,911.3c0,1.5-1.1,2.2-2.4,2.2c-1.4,0-2.3-1-2.5-2.3c-0.2-1.2,0.5-2.1,1.8-2.2C324,909,325.1,909.6,325.5,911.3z"
						/>
					<path d="M319,573.5c3.3-1.3,6.5-2.6,9.8-3.9C325.7,571,322.4,572.3,319,573.5z"/>
					<path d="M310.5,893.5c1.6,0,2.3,1.2,2.6,2.7c-0.2,1.6-1.3,1.9-2.7,1.9c-1.5-0.1-2.2-1-2-2.5
						C308.6,894.4,309.3,893.5,310.5,893.5z"/>
					<path d="M319,573.6c-3.3,1.3-6.6,2.6-9.9,3.7c-11.5,3.9-23,7.7-34.4,11.7C288.4,583.3,304.4,578.9,319,573.6z"/>
					<path d="M283.5,853.2c1.2,1.5,2.9,2.9,2.7,5.2c0,1.4-0.3,2.8-1.8,3.4c-1.8,0.7-3.4,0.3-4.6-1.2c-2.9-3.4-6-6.7-8.4-10.4
						c-1.9-2.9-4.2-5.3-6.3-7.8c-9.2-11.2-18.4-22.2-27.6-33.3c-0.9-1.1-1.7-2.3-2.1-3.5c-0.8-2.3,1.2-3.5,2.5-4.4
						c1.5-1.1,2.9,0.4,3.9,1.6c8.2,10.6,16.9,20.8,25.7,30.9C273,840,278.2,846.7,283.5,853.2z"/>
					<path d="M252.1,597.6c7.4-3,14.9-5.8,22.5-8.5c-7.4,3.1-15.5,6.1-23.7,9C251.3,598,251.7,597.8,252.1,597.6z"/>
					<path d="M211.1,769.4c0,1.9-1.5,1.6-2.6,1.5c-1.6-0.1-2.4-1-2.2-2.7c0.2-1.1,0.4-2.2,2.2-1.8
						C209.7,766.8,211,767.6,211.1,769.4z"/>
					<path d="M196.9,751.8c0.1,1.5-1.1,2.2-2.4,2.1c-1.4-0.1-2.7-0.8-2.4-2.6c0.2-1.3,0.8-2.2,2.3-2.4
						C196,749.3,196.8,750.5,196.9,751.8z"/>
					<path d="M178.5,729.1c1.7,0.1,2.2,1.4,2.4,2.8c-0.3,1.4-0.8,2.5-2.4,2.5c-2-0.1-2.6-1.4-2.6-3.2
						C176.1,729.7,177.2,729,178.5,729.1z"/>
					<path d="M167.7,715.2c0.2,1.3-0.2,2.6-1.8,2.6c-1.9,0.1-3.3-1.1-3.7-2.8c-0.3-1.3,0.4-2.7,2-3
						C166.2,712.3,167.4,713.4,167.7,715.2z"/>
					<path d="M150.4,692.2c-0.1,1.7-1,2.8-2.5,3.1c-1.5,0.2-2.9-0.4-2.9-2.1c-0.1-1.5,0.6-2.8,2.3-2.9
						C148.8,690.2,150.1,690.6,150.4,692.2z"/>
				</g>
			</g>
		</g>
		<path class="st2" d="M321.9,784.9c3.3,4.2,3.6,8.8,3.9,12.4c0.2,2.7,0.4,5.4-0.9,8.6c-1.5,3.9-4.2,6-5.7,7.2
			c-2.6,2-5.4,3.3-8.3,3.8c-5.2,1-9.2-0.6-10.9-1.3c-1.5-0.6-5.6-2.3-8.9-6.6c-3.3-4.5-3.7-9.1-4-12c-0.2-2.7-0.5-5.6,0.9-9.1
			c1.6-3.9,4.3-6.1,5.7-7.2c1.3-1,4.1-3.2,8.3-3.8c4-0.6,7.1,0.4,9.4,1.1C314,779,318.5,780.5,321.9,784.9z"/>
		<path class="st3" d="M926.2,749c-2.5-1.2-2.3-4.3-4.1-6.2c-3.9-4.2-8.4-7.8-11.9-12.4c-0.7-0.9-1.5-1.8-2.3-2.6
			c-4-3.9-8.1-7.8-12-11.8c-6.5-6.8-12.9-13.7-19.4-20.5c-7.7-8-15.6-15.8-22.9-24.2c-2.9-3.4-6.3-6.4-8.9-10
			c-2.8-3.8-6-7.2-9.2-10.3c-5.5-5.3-11.1-10.6-16.4-16.1c-5.4-5.6-10.1-11.8-15.5-17.3c-3.3-3.3-5.7-7.4-9-10.9
			c-5.9-6.1-12.4-11.6-17.8-18.2c-3.1-3.8-7.6-6.4-10.5-10.3c-6.6-9.1-15.7-15.8-23-24.3c-4.7-5.4-9.3-11.1-14.5-16.1
			c-2.5-2.4-4.5-5.4-7.4-7.4c-2.4-1.6-4.5-3.7-5.9-6c-2.2-3.6-5-6.8-7.9-9.6c-6.8-6.8-13.1-14-20-20.8c-5.4-5.3-9.6-11.6-15.1-16.7
			c-3.1-2.9-5.9-6.2-8.8-9.3c-0.4-0.4-0.8-1-1.3-0.7c-2.3,1.2-5,0.9-7.5,2c-3.6,1.5-7.1,3.5-10.9,4.3c-7.5,1.5-14,5.4-21,8
			c-3.3,1.2-6.2,3.1-9.5,4.2c-5.7,1.9-11.6,3.5-16.8,6.3c-5.4,2.9-11.2,4.5-16.7,7.1c-6.2,2.9-13,4.4-19.6,6.6
			c-10.3,3.3-20.5,6.7-30.5,10.6c-7.9,3.1-15.9,5.8-23.7,9.1c-3.3,1.4-6.5,2.7-9.7,4.4c-5.9,3-12.5,4.2-18.7,6.4
			c-5.9,2.1-12,3.3-17.6,6.4c-1.7,0.9-3.2,2.3-5.2,2.7c-2.5,0.5-5,1.4-7.5,2.1c-4.9,1.3-9.5,3.9-14.4,5c-5,1.1-9.5,3.2-14,5.3
			c-6.7,3.1-13.6,5.5-20.6,7.6c-8,2.3-16,4.6-23.7,7.8c-5.4,2.3-10.8,4.7-16.3,6.8c-6.5,2.5-13.4,3.9-19.6,7.3
			c-2.2,1.2-4.6,0.6-6.7,1.5c-8.5,3.9-17.5,6.6-26,10.6c-6.8,3.2-13.6,5.8-20.7,8c-5,1.6-9.8,3.8-14.7,5.6c-7.1,2.5-14.1,5-21.5,6.2
			c-6.8,1.1-13.2,3.7-19.4,6.4c-2.1,0.9-2.4,1.9-0.9,3.9c2.6,3.6,6,6.4,8.5,10.1c4.4,6.6,9.5,12.7,14.3,19.1
			c3.6,4.9,8.3,8.9,11.7,14c1.5,2.2,2.3,4.9,4.1,6.8c3.2,3.3,6.2,6.7,9,10.3c3.1,4,6.6,7.7,9.9,11.6c6.5,7.8,12.9,15.8,19.4,23.6
			c5.2,6.2,9.8,13.1,15.8,18.6c4.3,3.9,7.9,8.4,12.1,12.4c5.5,5.3,9.9,11.5,14.8,17.3c1.7,2.1,4.1,3.7,5.4,6
			c4.8,8.2,11.1,15.3,16.9,22.8c1.9,2.4,4.2,4.4,5.8,7c2.6,4.1,5.3,8.1,8.6,11.6c4.9,5.3,9.3,11.1,14.1,16.5c2,2.2,3.7,4.4,5,7
			c1.6,3.4,3.7,6.3,6,9.2c7.7,9.4,15.6,18.7,23.4,28c6.3,7.5,12.7,14.8,18.9,22.3c6.1,7.4,12.4,14.5,18.7,21.6c1,1.1,2,2.3,2.8,3.6
			c1.7,2.6,3.5,5.1,5.7,7.4c2.2,2.2,3.8,3.5,7,1.3c3.8-2.5,8.7-2.7,12.7-4.9c2.7-1.5,5.2-3.4,8-4.4c9.9-3.5,19.2-8.3,29-11.8
			c8.3-2.9,16.6-6,24.5-10.1c4.8-2.6,10.6-2.1,15.5-4.9c5.1-3,11-4.6,16.4-7.1c7.8-3.7,15.9-6.3,23.8-9.6c2.2-0.9,4.2-2.5,6.6-2.9
			c4.6-0.6,8.6-3,12.9-4.5c11.8-4,23-9.5,34.5-14.1c7.9-3.1,15.4-7.2,23.4-10.3c4.6-1.8,9.2-3.5,13.6-5.5
			c13.5-6.2,26.7-12.9,40.5-18.5c11.1-4.5,21.8-10,32.9-14.5c13.7-5.5,27.3-11.1,41-16.6c7-2.9,13.6-6.9,20.8-9.4
			c10-3.5,19.8-7.6,29.3-12.2c10-4.8,20.2-9.1,30-14.4c7.1-3.9,14.6-7.1,22-10.7C924.8,750.6,925.8,750.4,926.2,749z"/>
		<g class="st1">
			<g id="XMLID_2_">
				<g>
					<path d="M716.4,127.8c1.9,1.5,1.3,3.5,0.4,5.1c-1.7,2.8-3.7,5.4-5.8,7.9c-4.4,5.3-6.6,11.9-9.9,17.8c-2.8,5-4.3,10.6-6.5,15.9
						c-2.5,6.2-2.9,13.1-5.9,19.1c-4.1,8.2-5.1,17.2-7.8,25.7c-2.1,6.6-2.2,13.4-3.3,20c-0.2,1.3-0.7,2.5-1.1,3.6
						c-3.6,8.5-3.7,17.6-5.7,26.4c-2.5,11.2-4.2,22.5-7.6,33.5c-2.1,6.8-3.1,13.9-4.9,20.8c-1.2,4.6-2.5,9.3-4.2,13.7
						c-0.9,2.4-0.8,4.8-1.1,7.2c-1.1,10.4-2.3,20.7-4.2,31c-1.2,6.6-1.1,13.5-1.6,20.3c-0.2,2.9-0.4,5.8-0.6,8.7
						c-0.5,7.1-1.7,14.1-3.4,21c-0.9,4-1.5,8.1-2.2,12.1c-0.7,4,2.4,6.7,3.4,10.2c1.5,5.1,3.5,10.2,6.1,14.8
						c2.8,4.9,3.7,10.4,6.7,15.2c2.4,4,5.1,8.9,5.4,13.2c0.3,4.8,4.2,8.7,2.7,13.7c-2.6,9-2,18.7-5.2,27.7c-0.5,1.5-0.3,3.1-0.2,4.6
						c0.4,7.8-2.2,15.2-2.8,22.8c-0.2,2.8,0.1,5.6,0.3,8.3c0.3,5.8-0.8,11.4-1.6,16.8c-1.4,8.9-1.2,17.9-2.2,26.7
						c-0.5,4.2,0.8,8.6-1.3,12.7c-0.1,0.3-0.3,0.8-0.1,1c3.2,5.6-1.1,9.2-3.1,13.7c-2.5,5.5-7,7.9-11.8,10.5c-2.3,1.3-5,1-7.5,1.6
						c-1.7,0.4-2.3,0.6-1.6,2.3c1.6,4.4,1.1,8.8,0.9,13.4c-0.2,5.6-3.6,7.7-7.2,10.7c-2.8,2.3-6.5,4-7.6,8.7
						c-1.4,5.7-5.2,7.1-11.4,7.1c-1.9,0-3.9-0.4-5.9,0.2c-3.6,0.9-7.6-3.7-9.5-7.1c-0.7-1.3-1.2-2.1-2.6-2.5
						c-0.5-0.1-1.4-0.4-1.5-0.8c-1.6-5.7-6.3-3.7-9.7-3.4c-3.3,0.3-5.7-0.1-6.8-2.3c-0.3-0.6-0.5-1.3-0.6-2.2
						c-0.7-5.3-2.5-10.4-2.2-16c0.4-5.3-2-10.3-4.2-15.1c-1.2-2.6-1.7-5.3-1.9-8.2c-0.7-11.9-1.5-23.8-4.7-35.5
						c-1.6-5.9-1.6-12.3-2-18.5c-0.4-5.2-0.5-10.5-0.7-15.8c0-0.9,0.1-2.2-1.1-2.2c-1.3,0.1-0.8,1.4-0.9,2.3
						c-0.4,4.1-0.8,8.6-1.9,12.3c-2,6.5-3.3,13.7-8.4,19c-1.2,1.2-1.1,3.4-3.2,4c-1,0.3-0.8,1.5-0.6,2.2c0.9,3.6,1.6,7.4,2.9,10.8
						c1.9,5.1,3.9,10.1,5.4,15.3c1.2,4.4,3.7,8.4,5.2,12.7c2.9,8.1,6.8,15.7,11.2,23c2.4,4,4.5,8.1,6.7,12.2
						c1.7,3.3,3.5,6.5,5.5,9.7c4.1,6.5,7.8,13.2,12.2,19.6c3.5,5,4,11.7,1.3,17.9c-0.2,0.5-0.5,1.1-0.6,1.7
						c-1.6,9.6-8.9,13.5-16.6,17c-5.2,2.4-10.6,4.4-15.6,7.3c-2.5,1.4-5.3,1.2-7.9,1.3c-8.1,0.2-16.3,1.3-24.2-0.8
						c-6.3-1.6-12.7-3-17.1-9c-2.8-3.8-7.4-6.4-10.3-10.5c-1-1.5-2.7-2.7-3.5-4.4c-3.1-6.5-6.9-12.6-11-18.9
						c-3.5,3.8-7,7.7-10.6,11.5c-2.3,2.5-5.6,3.6-8.7,4.1c-7,1-16.5-4.7-19.7-11.4c-1.3-2.7-3.5-4.5-5-7.1c-4.8-8-8-16.7-9.2-25.7
						c-0.9-6.3-1.7-13.1,0.1-19.6c0.1-0.4,0-0.9,0-2c-2.9,2.9-5.4,5.3-7.8,7.9c-2.5,2.8-6.2,3.7-9.3,2.1c-1.7-0.9-2.6-2.8-3.5-4.3
						c-4-6.5-7.9-13.2-10.8-20.3c-0.4-1-1.1-1.8-2-2.4c-0.6-0.4-1.2-0.7-1.4-1.5c-1.2-8.3-3.9-16.3-5.6-24.4
						c-1.7-7.8-1.7-16-1.6-24.1c0-2.5-0.6-3.6-3.2-4.4c-4.1-1.3-7.1-4.7-11.4-6.1c-7.5-2.5-14.7-5.7-22.1-8.5
						c-12.2-4.6-24.7-8.5-35.9-15.8c-6.6-4.3-13.8-8.2-21.3-11.4c-6.9-3-12.7-7.9-18.6-12.4c-8-5.9-14.5-13.5-21.7-20.3
						c-6.5-6.2-9.5-14.8-14.8-21.9c-2-2.7-3.3-5.7-4.3-8.9c-0.1-0.2-0.1-0.5-0.3-0.6c-5.4-3.5-6.7-10.1-10.7-14.6
						c-0.5-0.6-1.2-1.2-1.6-1.9c-3.1-7-7.5-13-12.4-18.7c-1.9-2.3-2.8-5.3-4.7-7.8c-2.3-2.9-4.9-5.5-7.6-7.8
						c-3.7-3.1-5.7-7.5-8.8-11.1c-6.1-7.1-11.8-18.3-19.8-23.2c-5-3.1-9.4-7.3-14.1-10.8c-5.5-4.2-11.4-7.8-16.7-12.3
						c-6.3-5.4-13.7-9.3-20.2-14.6c-9.5-7.7-288.3-231.3-298.5-238.1c-3.9-2.6-6.4-6.8-10.5-9.3c-5.9-3.7-5.8-3.9-9.3,2.3
						c-3.1,5.5-5.9,5.9-11.2,2.6c-4.1-2.6,11.8-27.9,9-31.8c-4.3-5.9-8.8-10.9-16.1-14c-6.4-2.7-12.4-7-18.3-11
						c-3.3-2.3-6.5-4.6-10.1-6.6c-4.5-2.4-8-6.6-9.5-12.1c-1.3-4.7-2.3-9.6-6.5-13c-1.3-1.1-2.6-2-4.1-2.7
						c-4.9-2.4-8.1-6.3-10.3-11.4c-1.4-3.2-2.7-6.5-4.1-9.6c-1.9-4.1-2.4-8.2-1.1-12.6c1-3.2,1.6-6.6,2.2-9.9
						c1.4-7.6,6.2-13.6,9.7-20.1c3.4-6.3,4.8-13.2,7.3-19.7c4.6-11.5,6.7-23.9,11.2-35.5c2.3-5.9,3.9-12,6-18
						c1.6-4.5,3.9-8.7,6.8-12.6c2.5-3.3,2.9-7.5,5.1-11.1c4.5-7.2,6.3-15.5,9.3-23.3c0.2-0.6,0.5-1.4,0.4-2
						c-2.1-8.9,4.2-14.1,9.1-19.7c1.2-1.3,1.8-2.6,2.4-4.1c2.1-4.9,4.9-5.8,9.5-3.6c6.3,3,11.6,7.4,17.5,10.9
						c3.4,2,6.5,4.6,10.4,5.5c1.5,0.4,2.8,1.2,3.7,2.5c4.7,6.2,9.7,12,12.6,19.4c3.2,8.2,6.5,16.4,10.3,24.2c2.8,5.9,7,12,15.2,12.3
						c5.1,0.2,12.2,6.3,13,11.3c0.6,4.1,1.6,8.1,0.8,12.5c-0.8,4.8,2.1,8.3,6.2,11.6c11.1,8.9,22.2,17.6,32.4,27.6
						c6.6,6.4,14.2,11.6,20.7,18.1c7.9,8,285.3,231.9,293.6,239.4c4.4,4,9.6,6.9,14.4,10.5c8.5,6.6,17,13.2,26.2,18.9
						c6.8,4.2,13.5,8.8,21,12c4.4,1.9,8.7,4.4,13.2,6.3c3.5,1.5,7.2,2.4,10.9,2.6c11.6,0.5,23.1,2.4,34.7,3
						c12.8,0.6,25.1,4.4,37.9,5.2c4.3,0.3,8.6,1.6,12.6,3.1c10,3.4,20.7,5,30.1,9.8c7.2,3.7,14.6,7.1,22.3,9.3
						c9.8,2.7,19.4,6.1,29.5,7.3c7.2,0.8,14.4,1,21.4,3.2c2.7,0.9,2.3-1.6,1.8-2.8c-2-5.5-2.8-11.3-4.8-16.9
						c-5.8-16.3-10-33.1-14.2-49.9c-2.9-11.4-5.1-23-9-34.2c-2.7-8.1-3.9-16.6-6-24.8c-2.8-11.1-4.4-22.5-8.4-33.2
						c-2-5.4-2.4-11.2-4-16.7c-0.3-1.2-0.6-2.5-1.1-3.7c-0.6-1.7-1.2-3.5,0.7-5.1c1.8-1.6-0.5-3.9,0.6-5.8c0.2-0.4-0.7-1.3,0.2-1.8
						c0.9-0.4,1.6,0.2,2.2,0.8c1.8,2.1,3.1,4.4,4.2,6.9c6.2,14.2,14.2,27.6,20.4,41.8c2.6,6.1,4.3,12.5,6.4,18.8
						c2,5.9,3.7,12,6.1,17.8c2.4,5.9,4,12.2,5.7,18.4c2.6,9.4,6.4,18.3,8.8,27.8c3.8,15,10.2,29.3,14.4,44.2
						c1.7,5.8,3.6,11.4,4.8,17.3c1,4.9,7.3,8.8,14,8.1c3.7-0.4,7.2,0.6,10.8,1.1c2.5,0.3,4.8,1.4,6.3,3.7c1.1,1.7,2.8,3,4.8,5.1
						c0.7-17.2,2-33.4,4.2-49.5c2.2-16.2,2.9-32.6,4.8-48.8c2-16.5,3.2-33.2,8.9-48.9c3-8.4,3.7-17.4,7.2-25.6
						c2.8-6.7,4.7-13.8,7.7-20.5c3.8-8.7,8.2-17.3,10.8-26.5c1.6-5.7,4.2-11.1,6.7-16.5c1.2-2.7,3.1-1.5,4.8-1.3
						c2.3,0.2,1.6,2.2,1.3,3.3c-3,10.4-4.1,21.2-7.3,31.5c-1.2,4-2,8.1-2.6,12.3c-0.8,5.1-3,9.8-3.7,14.9
						c-1.2,9.2-2.4,18.3-3.9,27.4c-2.2,13-2,26.2-3.4,39.3c-1.5,14-2.7,28-3,42.1c-0.2,8.7-1.6,17.2-2.1,25.9
						c-0.7,10.3-0.7,20.7-1.1,31c-0.3,6.3-0.8,12.7-1.3,19c-0.9,12-1.6,24.1-1.1,36.1c0.1,3.8,0.7,7.1,3.5,10.6
						c5,6.1,10.1,12.4,13.7,19.5c1.2,2.4,2.1,4.8,4.7,6.3c0.9-0.5,0.5-1.7,0.7-2.7c1.7-8.4,3.5-16.9,4.4-25.4
						c0.8-7.6,2.1-15,2.8-22.6c0.7-8.1,2.7-16,4-24.1c0.5-3.3,2.4-6.1,3.2-9.3c2.4-9.7,6.1-19,8.8-28.7c2.2-8,4.9-15.9,7.1-23.8
						c4.3-15.3,10.8-29.7,17.2-44.2c1.6-3.7,3.3-7.4,3.2-12c-0.1-5.1,3.2-9.6,5.5-14.2c2.5-5,6.3-9.3,7.5-14.9
						c0.5-2.2,2.8-3.2,4-5.1c3.2-4.8,5.8-10,8.8-14.9c3.6-5.9,8.1-11.3,11.4-17.5c1.7-3.2,4.3-6.5,7.1-9.2
						C712.4,126.6,714.4,126.1,716.4,127.8z M690,175.4c0.5-1.1,0.6-2.3-0.1-4c-2,3.4-3.5,6.6-5.6,9.3c-6.9,9.4-9.6,20.7-13.4,31.4
						c-3.4,9.7-8,18.9-11.3,28.5c-2.3,6.6-5.1,13-7.5,19.6c-2.8,8-3.9,16.4-7,24.3c-1.8,4.5-3.4,9.2-4.7,13.9
						c-1.5,5.5-3,11-4.3,16.6c-1.2,5.1-3.6,10-4.4,15.1c-2.4,14.5-3.5,29.1-6.3,43.5c-1.6,8.2-2.6,16.4-4.1,24.6
						c-2.2,11.6-4.9,23.1-6.4,34.9c-1.2,9.3-2.8,18.6-2.7,28c0,3-0.3,6.3-1,9.3c-2.4,9.5-2.1,19.3-2.5,28.9
						c-0.3,7.1-0.4,14.2-1.2,21.3c-0.7,6.3-2.6,12.4-2.7,18.8c0,1.4,0.6,3.2,0,4c-2,2.5-1.3,5.3-1.4,8c-0.1,1.9,1,3.9-0.1,5.7
						c-1.2,1.9-1.2,4.2-0.9,6.1c1.6,8.1,0.7,16.2,2,24.4c1.7,10.8,0.8,21.9,1.7,32.8c1,12.6,1.4,25.2,3.5,37.6
						c0.9,5.7,1.3,11.6,3.7,17.7c1-2.6,2.8-3.8,4.5-4.9c4-2.6,4.6-6.2,4.1-10.6c-0.6-5.7-1.2-11.5-0.9-17.2c0.3-7-0.3-13.9-0.5-20.9
						c-0.2-6.6-3-12.7-2.9-19.3c0.2-13-2.9-25.8-1.8-38.9c0.7-8,0.2-16.2,1.1-24.2c1.6-14.1,1.4-28.4,4-42.4
						c1.5-8.2,2.7-16.5,5.4-24.5c3-8.9,5.4-17.9,7.2-27.1c1.2-6.2,1.4-12.7,2.9-18.8c2.4-9.6,4-19.2,4.5-29.1
						c0.3-6.1,1-12.1,1.7-18.2c1.2-10.5,2.5-20.9,3.9-31.3c0.9-6.4,0.4-12.9,3.3-19c1-2.1,2-4.6,2.5-7.2c1.5-8,3.5-15.8,5.4-23.7
						c0.8-3.4,1.5-6.9,2.8-10.2c1.3-3.5,2.3-7.1,2.8-10.8c0.5-3.6,0.2-7.4,1.3-10.8c2.9-9,3.6-18.4,6.2-27.5c2.9-10,5-20.3,7.2-30.6
						c1.1-5,3.6-9.6,4.9-14.4C684.5,187.8,687.1,181.6,690,175.4z M655,512.3c1-4.4,0.9-8.9-0.2-12.8c-1.2-4.3-1.6-8.9-3.9-13.1
						c-0.9-1.6-0.8-4.4-1.9-6.5c-3.3-6.4-5.5-13.2-8.1-19.9c-0.8-2-0.4-4.4-2.5-6.5c-0.3,1.9-0.4,3.4-0.8,4.8
						c-2.8,11-6.5,21.7-9,32.9c-3.4,15.6-3.3,31.5-5.2,47.2c-0.5,4.2,0.3,8.4-0.5,12.6c-1.5,7.9-0.5,15.9-1,23.8
						c-0.3,5.2,0.6,10.3,1.4,15.4c1.1,6.9,0,13.9,1.5,20.7c1.1,4.8,1.8,9.5,2.1,14.4c0.3,5.1,0.6,10.2,0.9,15.3
						c0.1,1.1-0.2,2.6,1.7,2.2c2.9-0.7,6.4-0.6,8.4-2.9c2.6-2.9,4.4-6.7,5.1-10.4c0.4-1.9,0.4-4.1,1.3-5.9c1.4-2.8,1.4-5.7,1.4-8.6
						c0-5.1-0.9-10.3,0.4-15.4c1.2-4.6,0.4-9.3,1-13.9c0.9-6,1.8-12,2.6-18c0.7-4.7-0.4-9.3-0.2-13.9c0.3-6.4,2.6-12.7,2-19.2
						c-0.2-2.5-0.4-5.3,0.3-7.2C653.5,522.2,653.8,517.2,655,512.3z M612.5,410.4c0.4-1.2,0.1-2.1-1-2.7c-1.5-0.8-1.7-2.4-2.5-3.6
						c-2.8-4-4.2-8.5-6.3-12.8c-2.5-5-5.8-9.6-8.7-14.3c-0.3,0-0.6,0-0.9,0c0.9,4.4,0.4,8.8,0.4,13.2c-0.1,9.7-1.3,19.5-0.1,28.9
						c1.8,13.1,1,26.2,3.2,39.2c1.6,9.9,2.3,20,3.3,30c0.5,5.2,0.8,10.4,1.2,16c0.8-1.5,1.1-2.7,1.2-4c0.1-2.9-0.6-6-0.1-8.7
						c1.7-9.5,1.4-19.2,3.1-28.8c0.8-4.6,1.3-9.1,1-13.9c-0.2-4.4,0.2-9.2,1.6-13.6c1.6-5.4,0.5-11.3,2.7-16.5
						C611.8,416.1,611.6,413.2,612.5,410.4z M606.3,128.4c0.8-2.8,2.4-5.5,1.4-8.7c-0.2,0.7-0.5,1.3-0.7,2c-1.5,5-4.7,9.2-6.3,14.1
						c-0.7,2.2-0.6,4.7-1.5,6.8c-2.4,5.6-4.5,11.2-5.5,17.2c-0.5,3.1-1,6.2-2.1,9.2c-3.2,8.4-6,16.9-6.9,26c-0.3,3.2-0.3,6.5-1,9.7
						c-1.5,7-2.9,14.1-3.2,21.2c-0.4,11.8-2.1,23.4-3.1,35.1c-0.7,7.7-1.8,15.4-2.9,23.1c-1.2,9.3-1.5,18.7-1.9,28
						c-0.4,9.4-0.3,18.8-1.4,28.1c-0.6,5.5-1.1,11-0.8,16.5c0.5,10.7-0.7,21.3-1.9,31.8c-1.4,12.3-0.7,24.6-0.7,36.9
						c0,10.9,0.5,21.9,1.4,32.8c0.3,4.1-0.3,8.2,0,12.3c0.5,6.9,0.2,13.8,0.4,20.7c0.2,6.9-0.4,13.9-0.1,20.8
						c0.2,5.8,0.8,11.6,2.1,17.4c0.5,2.3,1.1,4.7,1.1,7.3c0,8.6-0.9,17.2,0.7,25.7c0.6,3.2,0.6,6.7,1.2,9.9c1.3,6.2,2,12.6,2.1,18.8
						c0.1,10.2,2.9,20.1,2.9,30.4c0,7.8,3.6,15.2,3.5,23.1c0,2.6,0.2,5.2,1.3,7.8c1.8,4.5,1.9,9.4,2.8,14c1.3,6.2,1.1,13.4,7.5,17.6
						c3.5,2.3,7.3,2.9,11.4,1.8c1.4-0.4,1.7-1.7,1.6-2.8c-0.3-2.4-0.5-5-1.3-7.3c-2.7-7.8-3.5-16-4.4-24.1c-0.7-5.9-2-11.8-1.9-17.9
						c0.1-7.1-0.3-14.4-1.1-21.6c-0.7-6.1-1.2-12.4-1.5-18.6c-0.5-9.1-0.6-18.2-0.9-27.3c-0.1-2.9,0.2-6.1-0.9-8.5
						c-1.3-2.9-1.1-5.4-0.8-8.2c0.1-1,0.4-2.1,0.3-3.1c-0.3-4.6-0.5-9.1-1-13.7c-1.3-12.5,1.2-24.9,0.4-37.4
						c-0.2-2.9-1.4-5.5-1.6-8.3c-0.7-9.3-1.4-18.6-2.7-27.9c-1-7.2-1.7-14.5-1.6-21.8c0-2.7,0.1-5.3-0.4-8.1c-2-9.6-2-19.3-1.2-29
						c0.4-4.2,1-8.4,0.7-12.6c-0.5-6-0.2-12-0.2-17.9c0.1-8.9-0.1-17.7-0.2-26.6c-0.1-11.9,1.4-23.6,1.8-35.4
						c0.3-10.5,1.4-21.1,1.3-31.6c0-1.9-0.3-3.7,0-5.6c0.9-6.1,1.3-12.3,2-18.5c0.5-4.7-0.1-9.4,0.2-14.1
						c0.8-11.4,1.9-22.7,2.9-34.1c0.4-4.4,1-8.9,1.1-13.3c0.2-8.5,1.9-16.9,2.9-25.3C601.3,153,602.9,140.5,606.3,128.4z
						 M578.6,670.4c1.7-0.6,2-2.1,1.7-3.8c-0.9-4.3-1.3-8.7-2-13.1c-2-11-3.5-22.1-4.8-33.2c-1.4-11.5-2.8-23.1-3.2-34.7
						c-0.1-3.5-0.6-7-1-10.5c-0.9-8.6-2.7-17.2-2.5-25.9c0.2-10.1-0.8-20.1-2.6-30c-0.7-4-1.3-8.2-0.7-12.3
						c1.9-14.5-0.2-29.1,0.2-43.6c0.4-13.6-2-27.2-1.8-40.8c0-0.7,0.4-1.9-0.8-1.9c-3.3-0.1-3.4-2.8-3.2-4.8
						c0.6-6.6-1.2-13-2.6-19.1c-1.9-8.3-3.7-16.8-7-24.8c-1.4-3.3-3.3-7-3-10.3c0.4-4.2-1.8-7.1-3-10.4c-1.6-4.4-4-8.6-5.9-12.9
						c-3.7-8.3-4.3-17.6-7.8-26.1c-0.7-1.6,0.5-3.3-0.4-4.8c-2.7-4.9-3.6-10.4-5.2-15.6c-2.6-8.9-4-18.1-7.9-26.5
						c-1.9-4.1-3.4-8.3-4.8-12.7c-3.5-11.3-6.1-22.9-10.2-34c-1.2-3.1-2.8-6.2-3.2-9.4c0.5-0.8,0.6-1.4,0.2-2.2
						c-3.9-7.8-6.4-16.2-9.4-24.4c-2-5.4-3.3-11.1-5-16.7c-1.1-3.5-1.6-7.6-3.3-10.5c-4.6-7.8-7.4-16.4-12.2-24
						c-0.5-0.8-0.6-2.1-1.7-1.6c-1.1,0.5-0.2,1.6,0,2.5c1.1,5.4,2.9,10.6,4.6,15.8c3.8,11.6,5,23.6,7.9,35.4
						c2.4,10,5.7,19.8,8.4,29.7c2.1,8,4.6,15.9,6.8,23.9c3.2,11.5,6.4,23,9.9,34.4c3.4,11,7.7,21.7,8.8,33.4c1.2,13,4,25.8,7.8,38.4
						c3.7,12.1,6.5,24.4,9.6,36.7c2,7.9,4.9,15.6,6.3,23.7c0.9,4.9,2.7,9.6,3.3,14.7c0.9,6.5,0.7,13.1,2.3,19.5c0.5,2,1.3,4,1.4,6.1
						c0.4,5.5,1.3,10.9,2.3,16.2c1,5.5,3.2,10.9,3.3,16.4c0.2,7.4,1,14.8,1.5,22.2c0.6,10,2.5,20,2.7,30.1
						c0.2,6.9,0.3,13.9,1.5,20.7c2.4,13.7,3.2,27.5,4.5,41.3c0.6,5.8,0.8,11.5,2.6,17.2c1.4,4.4,2.2,9.2,2.5,13.9
						c0.4,8.9,1,17.6,4.9,25.8c2.9,6.1,3.3,12.8,3.6,19.5c0.1,1.7,0.6,3.5,2.2,4.6C576.1,672.9,577.2,670.9,578.6,670.4z
						 M576.2,723.6c1.3-5.1,1.4-10-1.2-14.6c-2.8-4.8-6.6-8.9-9.1-14.1c-4.3-9-9-17.8-14.5-26.3c-4.5-7-7-15-10.7-22.4
						c-4.1-8-5.7-17.1-8.3-25.8c-2.9-9.4-6.7-18.4-10.9-27.2c-4.6-9.6-10.3-18.7-15.5-28.1c-0.3-0.6-0.7-1.3-1.2-1.7
						c-3.2-2.4-3.9-6.3-5.6-9.6c-2.6-5-4.7-10.3-7.2-15.4c-2.4-4.7-4.7-9.5-5.6-14.5c-1.3-7.5-2.7-15.2-1.7-23
						c0.3-2.4-0.2-4.8,0.7-7.2c1.9-5.5,3.8-11,5.1-16.8c1.3-5.6,3.3-11,5-16.5c1.9-6.3,4.2-12.5,5.3-19.1c1.3-7.4,1.1-14.9,3.5-22.4
						c2.3-7,5-13.3,9.2-19.2c0.6-0.8,1.2-1,2.1-0.7c0.6,0.2,1.3,1,0.9,1.3c-2.7,2.1-1.3,6.1-3.9,8.3c-0.9,0.8-1.4,2.1-1.2,3.5
						c0.3,3.6,0,7.2-1.3,10.7c-1.4,3.8-1.8,7.7-2.2,11.7c-0.3,4,0.7,8.1-0.9,12.2c-1.5,3.9-1.9,8.3-3.3,12.3
						c-1.6,4.4-1.5,9.2-4.2,13.2c-0.9,1.3-1.7,3.3-0.7,4.6c2.5,3.4,4.2,7.5,7.2,10.6c4.6,4.7,10.6,6.9,16.4,9.3
						c3.7,1.5,7.8,2.9,11.9-0.1c2.1-1.5,3.9,0.8,4.7,2.4c0.8,1.5,0.2,3.5-1.8,4.2c-2.5,0.9-4.9,2.2-7.8,1.8
						c2.2,11.9,8.7,21.1,17.2,30.3c-0.5-6.7-1.3-12.4-1.4-18.2c-0.2-8-2.4-15.7-2.6-23.7c-0.2-7.3-0.3-14.8-1.9-21.9
						c-1.5-6.8-3.3-13.6-4.2-20.4c-2.3-16.1-2.8-32.5-7.8-48.1c-2-6.4-2.9-13-4.6-19.5c-1.2-4.6-3.1-9-3.9-13.7
						c-1.8-10.4-4.9-20.6-8.1-30.6c-3.3-10.1-4.3-20.6-7.1-30.7c-0.6-2.3-0.4-4.8-4-3.2c-0.7,0.3-1.5-0.2-2.3-0.5
						c-4-1.6-8.5-2.6-12.6-2.9c-6.2-0.4-11.7-2.8-17.6-4c-4.2-0.9-8.4-2.3-12.7-2.7c-9.9-1-18.5-5.4-27.2-9.7
						c-2.3-1.2-4.5-2.7-7-3.1c-10.8-1.6-20.6-6.9-31.3-8.9c-4.3-0.8-8.5-2.3-12.7-2.6c-10.2-0.6-20.1-3.6-30.3-3.5
						c-4,0-8.1-1.3-12.2-1.6c-10.2-0.8-20.4-0.5-30.6-3.2c-7-1.8-13.3-4.5-19.4-8c-1.6-0.9-2.8-2.5-4.5-3.4
						c-6.7-3.4-12.8-7.6-19.3-11.4c-7.9-4.6-14.8-10.9-22.5-16.1c-12.4-8.3-23.3-18.4-34.7-28c-3.6-3-274.5-224.4-278.3-227.1
						c-5.9-4.1-10.4-9.8-16.4-14c-6.7-4.6-12.3-10.9-18.4-16.4c-1.5-1.3-1.8-3.7-3.9-4.4c-3.4-1.1-6.2-3.3-9.1-5.2
						c-2.9-1.8-4.5-1-4.7,2.3c-0.2,3.8-1.3,7.3-2.4,10.9c-1,3.2-2.3,6.5-2.5,9.8c-0.4,6.8-2.1,13.3-3.7,20c-2.3,9.6-4,19.3-4.7,29.1
						c-0.3,4.3-1.9,7.7-5.6,9.9c-4,2.5-5.9,6.5-7.5,10.7c-1.8,4.8-2.9,9.7-4.2,14.6c-2.4,9.6-8.2,17.5-12.5,26.1
						c-2.5,5.1-5.5,10-8.2,15c-2.4,4.5-21.6,23.4-17.2,26.1c1.6,1,3.1,2.2,4.6,3.3c8.2,6.4,284,230.9,293.1,235.9
						c9.1,5,16.5,12.2,25.1,17.9c7.1,4.7,13.7,10.1,20.5,15.2c12.7,9.4,27.3,22.5,37.4,34.6c6.3,7.6,12.2,15.5,19.4,22.4
						c2.5,2.4,5.3,5.1,7,8.2c2.3,4.2,5.1,8,7.7,12c5.9,8.9,11.3,18,17.3,26.9c4.9,7.4,8,15.9,13.8,22.8c2,2.4,4.6,4.2,6,7
						c1,2.1,2.7,3.5,4.5,4.9c3.8,3.1,7,6.8,10.9,9.8c5.9,4.5,11.2,9.7,17.7,13.3c6.5,3.6,13.1,7.2,19.8,10.3
						c4.1,1.9,7.8,4.3,11.5,6.6c4.8,3,10.1,4.7,15.4,6.6c4.6,1.7,8.9,4.4,13.6,5.4c10.9,2.5,20.3,8.4,30.3,13
						c6.2,2.8,11.4,7.4,18.2,9.1c2.2,0.5,4.5,2.2,6.1,4c4.7,5.3,9.1,10.8,12,17.4c3.5,7.9,7.4,15.6,11.8,23
						c2.3,3.8,3.2,8.3,6.4,11.5c2.9,2.9,4.8,6.6,7.4,9.7c7,8.2,13.2,17.1,21.2,24.4c0.7,0.7,1.4,1.3,1.8,2.2c2,4.2,4.9,7.7,7.8,11.1
						c4.6,5.6,10.1,10.6,13.4,17.2c4.6,9.3,11.6,16.8,18.5,24.3c5.2,5.6,11.7,9.3,19.4,10.8c3.3,0.7,6.5,0.1,9.8,0.3
						c4.3,0.3,8.5-0.5,12.7-1.1c6-0.9,11-4.4,16.4-6.9C568.9,734.2,574.4,730.6,576.2,723.6z M564.7,348.8c1-7.3,1.3-14.5-1.9-21.4
						c-0.8-1.7-2-3.3-2.3-5.3c-0.6-3.7-4.9-7.5-8.5-7.9c-4.1-0.5-8.1-1.1-11.9-2.8c-1.9-0.8-3.8-2-6-1.4c1.1,3.6,2.3,7.2,3.2,10.7
						c2.4,9.2,5.7,18,9.5,26.7c3.4,7.9,6,16.2,8.2,24.5c2,7.6,4.4,15.1,5.1,22.9c0.1,0.6,0.5,1,1.1,1.2c0.7-0.4,0.4-1,0.4-1.6
						c0.1-5.9,2-11.6,2-17.6c0-7.2,2-14.5,1.1-21.8C564.3,353,564.4,350.9,564.7,348.8z M546.6,547c1.1-0.5,0.2-1.3-0.4-1.4
						c-4.2-0.5-5.1-4.5-7.3-7.1c-2.5-2.9-5.2-5.8-7-9.1c-3.2-5.7-5-11.9-7.5-17.9c-1.2-2.7-1-6.5-4.7-7.8
						c-7.7-2.7-14.7-6.3-20.2-12.6c-1.2-1.4-3.4-1.6-3.8-3.6c-1.3,0.3-1.2,1.1-1.5,1.9c-2.5,6.8-2.3,13.9-1.9,20.9
						c0.2,4.3,1.6,8.7,2.2,13c0.7,5,3.6,8.8,5,13.3c1.3,4.4,3.6,8.4,5.7,12.4c3.8,7.2,7.9,14.1,12,21.1c4.1,7,8.3,14,11.3,21.6
						c0.6,1.5,1.6,1.7,2.4,0c0.2-0.5,0.5-1,0.9-1.4c3.8-4.2,6.3-9,6.5-14.8c0-0.4-0.2-0.9-0.1-1.3c3.4-7.5,5-15.5,6.7-23.4
						C545.2,549.4,544.7,547.8,546.6,547z M469.6,708.6c4-4,4.1-8.1,0.4-11.4c-4-3.7-7.2-8-10.6-12.2c-5.4-6.7-11.1-13.2-16.6-19.8
						c-2.5-3-4.9-6-7.9-8.6c-0.5-0.5-0.8-1.2-1.7-0.9c-0.9,0.3-0.6,1.2-0.7,1.8c-0.2,3.5-1.6,6.9-1.4,10.5
						c1.2,8.3,1.2,16.6,5.1,24.5c2.1,4.3,3.6,8.9,6.7,12.7c1.3,1.6,2.5,3.1,3.4,4.9c1.6,2.9,9.3,6.8,11.8,5.5
						C462.2,713.5,466.4,711.7,469.6,708.6z M425.9,644.6c1.3-2-2-3.4-2.7-5.4c-1.2-3.4-2.7-6.6-4.7-9.7c-3.7-6-6.3-12.7-11-18.1
						c-0.1-0.1-0.1-0.2-0.1-0.3c-0.6-7.5-7.3-10.4-11.5-15.3c-0.6-0.7-1.5-1.2-2.3-1.6c-1.4-0.6-2.4-0.2-2.4,1.4
						c-0.1,2.6,0,5.1,0,6.7c-1.2,5.4,1,9.3,1.7,13.4c0.8,4.2,1.5,8.5,2.1,12.7c1,6.9,5.3,12.4,7.8,18.6c1.5,3.7,3.4,7.2,6.4,9.9
						c3.2,2.8,3.8,2.8,6.6-0.3c2.1-2.4,4.1-4.9,6.3-7.1C423.5,648,424.8,646.3,425.9,644.6z M-132.2-88c3.1-6.7,0-14.5-7-17
						c-2.5-0.9-5.1-0.7-7.4-1.9c-8.5-4.5-12.6-12.6-16-20.9c-4.3-10.3-7.8-21-14.2-30.4c-1.6-2.4-3.6-4.1-6.1-5.5
						c-4.3-2.5-9.2-4.3-12.7-8c-3.9-4.1-9.7-4.8-14.1-8c-1-0.7-1.5,0.2-2.3,0.9c-3.8,4-6.2,9-9.5,13.4c-1.1,1.4-1.2,3.2,0,4.6
						c1.7,2.1,0.6,3.7-0.8,4.9c-1.2,1-1.7,2.2-2.2,3.5c-1.7,4.1-3,8.4-5,12.4c-3.7,7.4-7.7,14.7-11.5,22c-2,3.9-4.4,7.7-5.9,11.9
						c-3.4,9.7-6.4,19.5-9.5,29.3c-2.7,8.6-5.1,17.3-8,25.8c-2.3,6.7-4.4,13.5-7.6,19.9c-3.8,7.5-9.1,14.6-8.3,23.7
						c-1.2,5.9,2.3,10.5,3.8,15.6c1.4,4.8,5,7.6,9.3,9.9c2.1,1.1,4.3,2.5,5.7,4.5c2.7,3.9,4.7,8.3,6.3,12.8
						c1.6,4.7,3.8,8.9,8.9,11.1c3.6,1.6,7.3,3.5,9.8,6.6c3.7,4.6,8.8,7.2,13.8,9.4c8.7,3.9,16.2,8.5,20.4,17.5
						c1.1,2.4,2.8,4.6,4.4,6.7c1,1.3-16.1,22.9-14.5,21.3c2.2-2.2,24.2-22.4,25.2-25.7c3.9-12.9,11.3-24.2,17.8-35.8
						c3.8-6.8,6.7-13.9,8.2-21.5c1.4-7.1,3.9-13.4,9.3-18.6c2.8-2.6,6-5.5,6.3-9.8c0.8-11.5,2.4-22.8,5.8-33.8
						c0.4-1.4,1.2-2.9,1.3-4.3c0.3-5.4,1.3-10.7,2.8-15.9c2.3-7.8,3.9-15.6,2.7-23.9C-133.3-83.4-133.1-86-132.2-88z"/>
					<path d="M694.7,645.2c1.3,0.4,2.7,1,2.5,2.8c0.1,2.9-4.5,7.3-7.4,6.7c-1.5-0.3-2.6-2-1.6-3.6c1-1.5,2.3-2.7,2.9-4.7
						C691.6,645,693.3,644.7,694.7,645.2z"/>
					<path class="st0" d="M689.9,171.4c0.6,1.6,0.6,2.9,0.1,4c-2.9,6.2-5.5,12.5-7.3,19.2c-1.3,4.9-3.8,9.4-4.9,14.4
						c-2.2,10.2-4.3,20.6-7.2,30.6c-2.7,9.1-3.3,18.5-6.2,27.5c-1.1,3.4-0.8,7.2-1.3,10.8c-0.5,3.7-1.5,7.3-2.8,10.8
						c-1.2,3.3-1.9,6.7-2.8,10.2c-1.9,7.9-3.9,15.7-5.4,23.7c-0.5,2.6-1.5,5.1-2.5,7.2c-2.8,6.2-2.4,12.7-3.3,19
						c-1.4,10.4-2.7,20.9-3.9,31.3c-0.7,6.1-1.4,12.1-1.7,18.2c-0.5,9.9-2.1,19.5-4.5,29.1c-1.5,6.1-1.7,12.6-2.9,18.8
						c-1.8,9.2-4.2,18.2-7.2,27.1c-2.7,8-3.9,16.3-5.4,24.5c-2.6,14-2.4,28.3-4,42.4c-0.9,8-0.4,16.2-1.1,24.2
						c-1.2,13.1,2,25.9,1.8,38.9c-0.1,6.6,2.7,12.7,2.9,19.3c0.2,7,0.8,13.9,0.5,20.9c-0.3,5.7,0.3,11.5,0.9,17.2
						c0.5,4.4-0.1,7.9-4.1,10.6c-1.7,1.1-3.5,2.3-4.5,4.9c-2.4-6.1-2.8-12-3.7-17.7c-2-12.5-2.5-25.1-3.5-37.6
						c-0.9-10.9,0-22-1.7-32.8c-1.3-8.1-0.4-16.3-2-24.4c-0.4-1.9-0.3-4.2,0.9-6.1c1.1-1.8,0-3.8,0.1-5.7c0.1-2.7-0.6-5.4,1.4-8
						c0.7-0.8,0-2.7,0-4c0.1-6.4,2-12.5,2.7-18.8c0.8-7.1,0.9-14.2,1.2-21.3c0.4-9.7,0.1-19.4,2.5-28.9c0.8-3,1-6.3,1-9.3
						c0-9.5,1.6-18.7,2.7-28c1.5-11.8,4.2-23.3,6.4-34.9c1.5-8.2,2.5-16.4,4.1-24.6c2.8-14.4,4-29.1,6.3-43.5
						c0.8-5.1,3.2-10,4.4-15.1c1.3-5.6,2.9-11.1,4.3-16.6c1.2-4.7,2.9-9.3,4.7-13.9c3.1-7.9,4.2-16.3,7-24.3
						c2.4-6.6,5.2-13,7.5-19.6c3.3-9.7,7.9-18.8,11.3-28.5c3.7-10.7,6.5-22,13.4-31.4C686.3,177.9,687.9,174.8,689.9,171.4z"/>
					<path d="M677.1,642.8c0.6,5.2-6.9,13.4-10.7,14.1c-2.3,0.4-4.1-0.6-5.2-2.2c-1.3-1.8,0.5-2.8,1.6-4.1c2.1-2.4,5.6-3.4,6.6-7
						c0.4-1.4,1-2.7,0.1-4c-1.3-2-0.1-3.7,0.8-5.2c0.8-1.2,2.3-0.8,3.6-0.5c2,0.5,2.2,1.8,2.1,3.7
						C675.9,639.3,676.7,641.1,677.1,642.8z"/>
					<path class="st0" d="M654.8,499.4c1.1,4,1.2,8.5,0.2,12.8c-1.2,4.9-1.5,10-3.1,14.9c-0.6,1.9-0.5,4.8-0.3,7.2
						c0.6,6.5-1.7,12.8-2,19.2c-0.2,4.6,0.9,9.2,0.2,13.9c-0.9,6-1.7,12-2.6,18c-0.7,4.6,0.1,9.4-1,13.9c-1.3,5.1-0.5,10.3-0.4,15.4
						c0,2.9,0,5.8-1.4,8.6c-0.9,1.8-0.9,3.9-1.3,5.9c-0.7,3.7-2.5,7.5-5.1,10.4c-2.1,2.3-5.5,2.3-8.4,2.9c-1.9,0.4-1.6-1.1-1.7-2.2
						c-0.3-5.1-0.6-10.2-0.9-15.3c-0.3-4.9-1-9.6-2.1-14.4c-1.5-6.8-0.4-13.8-1.5-20.7c-0.8-5.1-1.7-10.1-1.4-15.4
						c0.5-7.9-0.5-15.9,1-23.8c0.8-4.2,0-8.4,0.5-12.6c1.9-15.7,1.7-31.6,5.2-47.2c2.5-11.1,6.1-21.9,9-32.9
						c0.4-1.4,0.5-2.9,0.8-4.8c2,2.1,1.7,4.5,2.5,6.5c2.5,6.7,4.8,13.5,8.1,19.9c1.1,2.1,1,4.9,1.9,6.5
						C653.2,490.5,653.6,495.1,654.8,499.4z"/>
					<path d="M644.1,715.9c1.6-0.1,3.8,0.5,4.1,2.7c0,2-3.3,5.5-4.8,5.3c-1.5-0.2-2.6-1.7-1.9-2.7
						C642.6,719.4,640.8,716,644.1,715.9z"/>
					<path d="M641.6,693.3c0.5,0.8,0,1.5-0.6,1.8c-3.1,1.5-2.6,5-4.1,7.3c-2.7,4.1-4,9.6-9.8,10.9c-3.2,0.7-6.4,1.1-9.7,0.5
						c-1.8-0.4-3.6-1.1-3.4-3.3c0.2-2.4,2-2.9,5-2.5c4.3-0.5,8-3.4,10.7-7.3c1.3-1.9,2.7-3.7,3.9-5.6c1.4-2.1,4.8-1.1,7-2.4
						C640.7,692.5,641.4,693,641.6,693.3z"/>
					<path class="st0" d="M611.5,407.7c1.1,0.6,1.4,1.6,1,2.7c-0.9,2.7-0.7,5.6-1.9,8.4c-2.3,5.2-1.1,11.1-2.7,16.5
						c-1.3,4.4-1.8,9.2-1.6,13.6c0.3,4.8-0.2,9.3-1,13.9c-1.7,9.5-1.5,19.2-3.1,28.8c-0.5,2.7,0.2,5.8,0.1,8.7c0,1.4-0.4,2.5-1.2,4
						c-0.4-5.6-0.7-10.8-1.2-16c-1-10-1.7-20-3.3-30c-2.1-13-1.4-26.2-3.2-39.2c-1.3-9.5,0-19.3,0.1-28.9c0-4.4,0.6-8.8-0.4-13.2
						c0.3,0,0.6,0,0.9,0c3,4.8,6.2,9.4,8.7,14.3c2.1,4.2,3.5,8.8,6.3,12.8C609.8,405.3,610,406.9,611.5,407.7z"/>
					<path class="st0" d="M607.7,119.7c1,3.2-0.6,5.9-1.4,8.7c-3.4,12.2-4.9,24.6-6.4,37.1c-1,8.4-2.7,16.7-2.9,25.3
						c-0.1,4.4-0.8,8.9-1.1,13.3c-1,11.4-2.1,22.7-2.9,34.1c-0.3,4.7,0.3,9.4-0.2,14.1c-0.7,6.2-1.1,12.4-2,18.5
						c-0.3,1.9,0,3.7,0,5.6c0,10.6-1,21.1-1.3,31.6c-0.4,11.8-1.9,23.5-1.8,35.4c0.1,8.9,0.2,17.7,0.2,26.6c0,5.9-0.4,11.9,0.2,17.9
						c0.4,4.1-0.3,8.4-0.7,12.6c-0.9,9.7-0.8,19.4,1.2,29c0.6,2.7,0.4,5.4,0.4,8.1c-0.1,7.3,0.6,14.5,1.6,21.8
						c1.3,9.2,2,18.6,2.7,27.9c0.2,2.9,1.4,5.4,1.6,8.3c0.8,12.5-1.7,24.9-0.4,37.4c0.5,4.5,0.7,9.1,1,13.7c0.1,1-0.2,2.1-0.3,3.1
						c-0.3,2.8-0.6,5.3,0.8,8.2c1.2,2.5,0.8,5.7,0.9,8.5c0.3,9.1,0.5,18.2,0.9,27.3c0.3,6.2,0.8,12.4,1.5,18.6
						c0.8,7.2,1.2,14.4,1.1,21.6c0,6.1,1.3,12,1.9,17.9c0.9,8.1,1.7,16.3,4.4,24.1c0.8,2.3,1,4.8,1.3,7.3c0.1,1.2-0.1,2.5-1.6,2.8
						c-4.1,1-7.9,0.5-11.4-1.8c-6.4-4.2-6.2-11.4-7.5-17.6c-1-4.7-1-9.6-2.8-14c-1.1-2.6-1.3-5.2-1.3-7.8c0.1-7.9-3.5-15.3-3.5-23.1
						c0-10.2-2.8-20.1-2.9-30.4c-0.1-6.2-0.8-12.5-2.1-18.8c-0.6-3.1-0.6-6.6-1.2-9.9c-1.6-8.6-0.8-17.2-0.7-25.7
						c0-2.5-0.5-5-1.1-7.3c-1.3-5.8-1.8-11.6-2.1-17.4c-0.3-6.9,0.3-13.8,0.1-20.8c-0.2-6.9,0.1-13.9-0.4-20.7
						c-0.3-4.1,0.4-8.2,0-12.3c-0.9-10.9-1.4-21.9-1.4-32.8c0-12.3-0.7-24.5,0.7-36.9c1.2-10.5,2.4-21.1,1.9-31.8
						c-0.3-5.5,0.2-11,0.8-16.5c1.1-9.3,1-18.8,1.4-28.1c0.4-9.3,0.6-18.7,1.9-28c1-7.7,2.2-15.4,2.9-23.1c1-11.7,2.7-23.3,3.1-35.1
						c0.2-7.1,1.7-14.2,3.2-21.2c0.7-3.3,0.7-6.5,1-9.7c0.8-9.1,3.6-17.6,6.9-26c1.1-3,1.6-6.2,2.1-9.2c1-6.1,3.1-11.6,5.5-17.2
						c0.9-2.1,0.8-4.6,1.5-6.8c1.6-4.9,4.8-9.1,6.3-14.1C607.2,121,607.4,120.4,607.7,119.7z"/>
					<path d="M581.5,753.4c1.3,0.9,2.8,2,2,4.3c-1.7,4.8-5.5,7.4-9.8,8.6c-2.7,0.8-5.8,1.2-8.3,2.5c-5.2,2.7-10.8,2.5-14,3.5
						c-10,0.5-17.7,1-25.2-2.1c-1.9-0.8-4.4-0.6-6.6-0.5c-6.5,0.1-12.2-2.6-18.3-4.3c-1.9-0.5-4.2-1.6-3.3-4.5
						c0.6-1.7,5.1-2.8,6.9-1.9c6.4,3.2,13.3,4.9,20.4,5.5c6.6,0.6,13.2,1.1,19.8,1.6c1.7,0.1,3.4,0.1,5.2-0.5
						c1.7-0.6,3.6-1.1,5.3,0.6c1.2,1.2,3,1,4.3,0.3c5.1-2.6,10.1-5.2,15-8c1.3-0.7,2.4-1.9,3-3.4
						C578.7,753.3,579.9,752.3,581.5,753.4z"/>
					<path class="st0" d="M580.3,666.6c0.3,1.7,0.1,3.2-1.7,3.8c-1.4,0.5-2.5,2.5-4.4,1.2c-1.6-1.1-2.1-2.9-2.2-4.6
						c-0.3-6.7-0.7-13.4-3.6-19.5c-3.9-8.2-4.5-16.9-4.9-25.8c-0.2-4.7-1.1-9.4-2.5-13.9c-1.8-5.7-2.1-11.4-2.6-17.2
						c-1.4-13.8-2.1-27.6-4.5-41.3c-1.2-6.8-1.4-13.8-1.5-20.7c-0.2-10.1-2.1-20-2.7-30.1c-0.4-7.4-1.3-14.8-1.5-22.2
						c-0.2-5.5-2.3-10.9-3.3-16.4c-1-5.4-1.9-10.8-2.3-16.2c-0.1-2.1-0.9-4.1-1.4-6.1c-1.5-6.4-1.4-13-2.3-19.5
						c-0.7-5-2.5-9.7-3.3-14.7c-1.4-8.1-4.4-15.8-6.3-23.7c-3.1-12.3-5.9-24.6-9.6-36.7c-3.8-12.6-6.6-25.4-7.8-38.4
						c-1.1-11.7-5.4-22.4-8.8-33.4c-3.5-11.4-6.7-22.9-9.9-34.4c-2.2-8-4.7-15.9-6.8-23.9c-2.7-9.9-6-19.7-8.4-29.7
						c-2.8-11.7-4.1-23.8-7.9-35.4c-1.7-5.2-3.5-10.4-4.6-15.8c-0.2-0.9-1.1-2,0-2.5c1.1-0.5,1.2,0.9,1.7,1.6
						c4.8,7.6,7.7,16.2,12.2,24c1.7,2.9,2.2,7,3.3,10.5c1.7,5.6,3,11.2,5,16.7c3,8.2,5.5,16.6,9.4,24.4c0.4,0.8,0.3,1.3-0.2,2.2
						c0.5,3.2,2.1,6.3,3.2,9.4c4.2,11.1,6.7,22.7,10.2,34c1.4,4.4,2.9,8.6,4.8,12.7c3.8,8.5,5.3,17.7,7.9,26.5
						c1.6,5.3,2.5,10.8,5.2,15.6c0.9,1.6-0.2,3.2,0.4,4.8c3.5,8.4,4,17.7,7.8,26.1c1.9,4.3,4.3,8.5,5.9,12.9c1.2,3.3,3.3,6.2,3,10.4
						c-0.3,3.3,1.7,7,3,10.3c3.3,8,5.1,16.5,7,24.8c1.4,6.1,3.2,12.5,2.6,19.1c-0.2,2.1-0.1,4.7,3.2,4.8c1.3,0.1,0.8,1.2,0.8,1.9
						c-0.2,13.6,2.2,27.2,1.8,40.8c-0.4,14.5,1.8,29.1-0.2,43.6c-0.6,4.1,0,8.3,0.7,12.3c1.8,9.9,2.8,19.9,2.6,30
						c-0.2,8.7,1.6,17.3,2.5,25.9c0.4,3.5,0.9,7,1,10.5c0.3,11.6,1.8,23.2,3.2,34.7c1.4,11.1,2.9,22.2,4.8,33.2
						C579,657.8,579.4,662.3,580.3,666.6z"/>
					<path class="st0" d="M574.9,709c2.7,4.6,2.5,9.5,1.2,14.6c-1.8,7-7.2,10.6-12.9,13.1c-5.4,2.4-10.4,5.9-16.4,6.9
						c-4.2,0.7-8.5,1.4-12.7,1.1c-3.3-0.2-6.5,0.3-9.8-0.3c-7.7-1.5-14.3-5.2-19.4-10.8c-6.9-7.5-13.9-15-18.5-24.3
						c-3.3-6.6-8.7-11.6-13.4-17.2c-2.9-3.5-5.8-7-7.8-11.1c-0.4-0.9-1-1.5-1.8-2.2c-8-7.3-14.2-16.2-21.2-24.4
						c-2.6-3.1-4.5-6.8-7.4-9.7c-3.2-3.2-4.1-7.7-6.4-11.5c-4.4-7.4-8.4-15.1-11.8-23c-2.9-6.6-7.3-12.1-12-17.4
						c-1.6-1.8-3.8-3.4-6.1-4c-6.8-1.7-12.1-6.3-18.2-9.1c-10-4.5-19.3-10.5-30.3-13c-4.7-1.1-9-3.8-13.6-5.4
						c-5.3-1.9-10.6-3.6-15.4-6.6c-3.8-2.3-7.5-4.7-11.5-6.6c-6.7-3.2-13.3-6.8-19.8-10.3c-6.5-3.6-11.9-8.8-17.7-13.3
						c-3.9-3-7.1-6.7-10.9-9.8c-1.7-1.4-3.5-2.8-4.5-4.9c-1.4-2.9-4-4.7-6-7c-5.8-6.9-8.8-15.5-13.8-22.8
						c-5.9-8.9-11.4-18-17.3-26.9c-2.6-4-5.4-7.8-7.7-12c-1.7-3.2-4.5-5.8-7-8.2c-7.2-6.9-13-14.8-19.4-22.4
						c-10.1-12.1-24.8-25.3-37.4-34.6c-6.8-5.1-13.5-10.5-20.5-15.2c-8.6-5.7-16-12.8-25.1-17.9c-9.1-5-284.9-229.5-293.1-235.9
						c-1.5-1.1-3-2.3-4.6-3.3c-4.4-2.7,14.8-21.6,17.2-26.1c2.7-5,5.7-10,8.2-15c4.3-8.6,10.1-16.4,12.5-26.1
						c1.2-4.9,2.4-9.9,4.2-14.6c1.6-4.2,3.5-8.2,7.5-10.7c3.6-2.3,5.3-5.6,5.6-9.9c0.7-9.8,2.4-19.6,4.7-29.1
						c1.6-6.6,3.2-13.1,3.7-20c0.2-3.3,1.5-6.6,2.5-9.8c1.1-3.6,2.2-7.1,2.4-10.9c0.2-3.3,1.8-4.1,4.7-2.3c3,1.9,5.7,4.1,9.1,5.2
						c2.1,0.7,2.4,3.1,3.9,4.4c6.1,5.5,11.7,11.7,18.4,16.4c6,4.1,10.4,9.8,16.4,14c3.8,2.6,274.8,224,278.3,227.1
						c11.3,9.6,22.3,19.7,34.7,28c7.6,5.1,14.5,11.5,22.5,16.1c6.4,3.7,12.6,8,19.3,11.4c1.6,0.8,2.9,2.4,4.5,3.4
						c6.1,3.5,12.4,6.2,19.4,8c10.2,2.6,20.4,2.4,30.6,3.2c4.1,0.3,8.1,1.7,12.2,1.6c10.3-0.1,20.2,2.8,30.3,3.5
						c4.3,0.3,8.5,1.8,12.7,2.6c10.7,2,20.5,7.3,31.3,8.9c2.4,0.4,4.7,1.9,7,3.1c8.6,4.4,17.3,8.7,27.2,9.7
						c4.3,0.4,8.5,1.8,12.7,2.7c5.9,1.3,11.4,3.7,17.6,4c4.1,0.2,8.5,1.3,12.6,2.9c0.8,0.3,1.6,0.8,2.3,0.5c3.6-1.6,3.3,0.9,4,3.2
						c2.8,10.1,3.8,20.6,7.1,30.7c3.2,10,6.4,20.2,8.1,30.6c0.8,4.8,2.7,9.1,3.9,13.7c1.7,6.4,2.6,13.1,4.6,19.5
						c5,15.7,5.5,32,7.8,48.1c1,6.8,2.8,13.6,4.2,20.4c1.6,7.1,1.7,14.6,1.9,21.9c0.2,8,2.4,15.7,2.6,23.7
						c0.1,5.7,0.8,11.4,1.4,18.2c-8.4-9.2-15-18.3-17.2-30.3c2.9,0.4,5.3-0.9,7.8-1.8c2-0.7,2.6-2.7,1.8-4.2
						c-0.8-1.6-2.6-3.9-4.7-2.4c-4.1,3-8.2,1.6-11.9,0.1c-5.8-2.4-11.8-4.6-16.4-9.3c-3.1-3.1-4.7-7.1-7.2-10.6
						c-1-1.3-0.1-3.3,0.7-4.6c2.7-4,2.6-8.9,4.2-13.2c1.4-4,1.8-8.4,3.3-12.3c1.6-4.1,0.5-8.1,0.9-12.2c0.3-4,0.7-7.9,2.2-11.7
						c1.3-3.5,1.6-7,1.3-10.7c-0.1-1.4,0.3-2.7,1.2-3.5c2.6-2.2,1.2-6.1,3.9-8.3c0.4-0.3-0.3-1-0.9-1.3c-0.9-0.4-1.5-0.1-2.1,0.7
						c-4.2,5.9-6.9,12.2-9.2,19.2c-2.4,7.5-2.3,15-3.5,22.4c-1.1,6.6-3.4,12.7-5.3,19.1c-1.7,5.5-3.7,10.9-5,16.5
						c-1.3,5.7-3.2,11.2-5.1,16.8c-0.8,2.4-0.4,4.8-0.7,7.2c-0.9,7.8,0.4,15.4,1.7,23c0.9,5,3.3,9.9,5.6,14.5
						c2.6,5.1,4.6,10.4,7.2,15.4c1.7,3.3,2.3,7.2,5.6,9.6c0.5,0.4,0.9,1.1,1.2,1.7c5.2,9.3,10.9,18.4,15.5,28.1
						c4.2,8.8,8,17.8,10.9,27.2c2.7,8.6,4.3,17.7,8.3,25.8c3.7,7.4,6.2,15.4,10.7,22.4c5.4,8.4,10.2,17.2,14.5,26.3
						C568.3,700.1,572.1,704.2,574.9,709z"/>
					<path class="st0" d="M562.8,327.4c3.2,6.9,2.9,14.1,1.9,21.4c-0.3,2.1-0.4,4.2-0.1,6.3c0.9,7.3-1.1,14.6-1.1,21.8
						c0,6-1.9,11.7-2,17.6c0,0.5,0.2,1.2-0.4,1.6c-0.6-0.2-1-0.6-1.1-1.2c-0.7-7.9-3.2-15.4-5.1-22.9c-2.2-8.3-4.8-16.6-8.2-24.5
						c-3.8-8.7-7.1-17.5-9.5-26.7c-0.9-3.6-2.1-7.1-3.2-10.7c2.3-0.6,4.2,0.6,6,1.4c3.8,1.7,7.9,2.3,11.9,2.8
						c3.6,0.4,7.9,4.3,8.5,7.9C560.8,324.1,562,325.7,562.8,327.4z"/>
					<path d="M552.4,788.5c0.6,3.1-2.1,4.1-4.6,4.5c-1.5,0.2-3,0-5.3,0c-4.8-0.1-10.4-0.5-15.8-1.7c-2.2-0.5-3.7-2.4-4.8-4.3
						c-0.5-0.8,0-2.2,0.9-2.9c1-0.8,2.4-1.3,3.6-0.5c6.4,4.1,13.4,1.7,20.1,1.9C549.2,785.7,551.8,785.6,552.4,788.5z"/>
					<path class="st0" d="M546.2,545.6c0.5,0.1,1.5,0.9,0.4,1.4c-1.9,0.8-1.5,2.5-1.8,3.9c-1.7,7.9-3.3,15.9-6.7,23.4
						c-0.2,0.3,0.1,0.9,0.1,1.3c-0.3,5.8-2.7,10.6-6.5,14.8c-0.4,0.5-0.6,0.9-0.9,1.4c-0.7,1.7-1.8,1.5-2.4,0
						c-3-7.6-7.2-14.6-11.3-21.6c-4.1-7-8.3-14-12-21.1c-2.1-4-4.4-7.9-5.7-12.4c-1.3-4.5-4.3-8.3-5-13.3c-0.6-4.3-2-8.6-2.2-13
						c-0.3-7-0.6-14.1,1.9-20.9c0.3-0.8,0.2-1.6,1.5-1.9c0.4,2,2.6,2.2,3.8,3.6c5.5,6.2,12.5,9.9,20.2,12.6c3.6,1.3,3.5,5.1,4.7,7.8
						c2.5,5.9,4.4,12.2,7.5,17.9c1.8,3.3,4.6,6.2,7,9.1C541.1,541.1,542,545,546.2,545.6z"/>
					<path d="M534.7,808.6c2.2-0.2,4.2,2.3,4.1,5.8c-0.7,1.5-2.6,2.3-4.6,2.3c-2,0-3.1-1.7-3-3.5
						C531.5,811.1,532.1,808.9,534.7,808.6z"/>
					<path class="st0" d="M470,697.1c3.6,3.4,3.6,7.5-0.4,11.4c-3.2,3.2-7.4,5-11.4,7c-2.5,1.3-10.3-2.6-11.8-5.5
						c-0.9-1.8-2.2-3.3-3.4-4.9c-3.1-3.8-4.6-8.4-6.7-12.7c-3.9-7.9-3.9-16.3-5.1-24.5c-0.1-3.6,1.2-7,1.4-10.5
						c0-0.6-0.2-1.5,0.7-1.8c0.8-0.3,1.2,0.5,1.7,0.9c3,2.6,5.4,5.6,7.9,8.6c5.5,6.6,11.2,13.1,16.6,19.8
						C462.9,689.1,466.1,693.4,470,697.1z"/>
					<path class="st0" d="M423.1,639.2c0.7,2,4,3.4,2.7,5.4c-1,1.6-2.4,3.4-3.9,4.9c-2.2,2.3-4.2,4.8-6.3,7.1
						c-2.8,3.1-3.4,3.2-6.6,0.3c-3-2.7-4.9-6.2-6.4-9.9c-2.5-6.2-6.8-11.7-7.8-18.6c-0.6-4.2-1.4-8.5-2.1-12.7
						c-0.7-4.1-2.9-8-1.7-13.4c0-1.5,0-4.1,0-6.7c0-1.6,1-2.1,2.4-1.4c0.8,0.4,1.7,0.9,2.3,1.6c4.1,4.9,10.9,7.8,11.5,15.3
						c0,0.1,0.1,0.2,0.1,0.3c4.7,5.4,7.2,12.1,11,18.1C420.4,632.7,422,635.8,423.1,639.2z"/>
				</g>
			</g>
		</g>
		<rect x="54" y="41.7" class="st4" width="965.2" height="965.2"/>
		<g class="st1">
			<path d="M761.9,650.6c-1.2-1-1.7-2.2-2.5-3.2c-0.6-0.7-0.2-1.5,0.1-2.2c0.5-1.4,1.5-2.4,2.4-3.5c1.8-2.4,4.3-3.5,6.9-4.6
				c1.5-0.7,2.9-1.5,4.4-2.2c3.9-1.9,8-3.6,12.2-5c1.5-0.5,3.2-0.6,4.8-0.4c1.5,0.2,3.1,0.2,4.6,0.1c2.2-0.1,3.6,1.4,5.2,2.6
				c0.3,0.3,0.4,0.6,0.4,1c-0.1,1.2-0.3,2.5-0.4,3.7c-0.2,2.6-2.3,3.7-4,5.2c-3.5,3.2-8,4.8-12.3,6.3c-2.9,1-5.8,2.2-8.8,2.9
				c-3.8,0.9-7.6,0.5-11.4,0.5C762.4,651.9,762.3,650.7,761.9,650.6z M765.9,643.6c-0.4,0.5-0.7,0.9-1,1.3c-0.6,0.6-0.9,1.3-0.5,2.1
				c0.5,0.8,1.2,1.1,2.1,0.9c1.1-0.3,2.2-0.5,3.4-0.1c0.7,0.2,1.5,0.1,2.3,0c2.3-0.3,4.3-1.3,6.4-2.2c1.4-0.6,3-1.2,4.4-1.5
				c2.1-0.4,3.8-1.2,5.6-2.3c0.6-0.4,0.6-1.2,1.4-1.3c1.5-0.2,2.5-1.2,3.8-1.9c0.9-0.6,1.1-1.5,0.9-2.3c-0.3-0.9-0.2-2.4-1.7-2.5
				c-2-0.1-4-0.6-6.1-0.1c-2.1,0.5-3.9,1.7-5.9,2.4c-1.2,0.4-2.6,0.2-3.7,1.1c-1.5,1.2-3.4,2.1-5,2.6
				C769.6,640.6,768.1,642.5,765.9,643.6z"/>
			<path d="M781.6,620.9c-1.4,1.3-3.2,1.8-5,2.3c-2.9,0.7-5.9,0.8-8.9,1.3c-2.5,0.4-5,0-7.5,0.5c-3,0.6-6.1,0.6-9.1,1.6
				c-1.1,0.4-2.4,0.4-3.6,0.9c-0.6,0.3-1.2,0.4-0.3,1.1c1.8,1.5,3,3.8,5.3,4.9c1.1,0.5,1.4,1.5,1.8,2.4c0.3,0.6-0.1,1.5-0.4,1.4
				c-1.2-0.2-1.6,1.1-2.7,1.2c-1.3,0.1-1.9-1-2.6-1.7c-3.2-3-6.1-6.2-8.9-9.5c-1.2-1.5-0.8-3.5,0.8-4.4c0.1-0.1,0.3-0.2,0.4-0.2
				c1.4,0.7,3,0.1,4.4,0.3c2.4,0.4,4.6-0.4,6.8-0.7c3.4-0.6,6.8-1.2,10.3-1.4c4.6-0.3,9.1-0.8,13.6-1.5c0.8-0.1,1.4-0.7,1.7-1.4
				c0.3-0.8-0.4-1.4-1-1.9c-1.3-1.1-2.9-1.6-4.6-1.6c-0.7,0-1.6,0.5-1.9-0.6c-0.3-1.1,0.4-1.5,1.4-1.9c2.2-0.9,4.4-1.9,6.8-0.5
				c2.6,1.5,3.7,4,4.1,6.8C782.7,620,782.5,620,781.6,620.9z"/>
			<path d="M873.3,728.6c2.5-0.1,4.8-0.9,7.2-1.5c1.9-0.5,3.8-0.9,5.7-1.4c0.8-0.2,1.5-0.1,2.2,0.4c1.2,0.8,1.3,1.6,0.2,2.6
				c-1.2,1.2-2.5,1.7-4.3,1.6c-3.6,0-7.2,0.9-10.8,1.6c-1.3,0.3-2.6,0.7-4,0.8c-2,0-3.3,1.6-4.5,2.8c-1.8,1.8-3.9,3.1-5.7,5
				c-1,1.1-1.8,2.4-3.1,3.4c-1.5,1.1-3,0.9-4.5,0.5c-0.4-0.1-0.6-0.4-0.6-0.8c-0.2-1.1,0.8-3.5,1.8-3.9c1-0.4,1.5-1.1,1.9-2
				c-1-0.2-2.1,0.3-2.5,0.9c-1.5,2.1-3.6,1-5.3,0.9c-1.2,0-1.3-1.6-1.3-2.7c0-0.9,0.2-2.1,1.3-2.1c3.6-0.1,6.9-1.4,10.4-1.9
				c3.6-0.5,7-1.5,9.7-4.4c1.3-1.4,2.9-2.7,4.8-3.6c1.5-0.7,2.3-2.3,3.5-3.5c1.2-1.1,3-1.4,4.2,0c1.1,1.3,0.5,3.1-1,3.8
				c-1.9,0.8-3.7,2-5.5,3C873.2,728.3,873.3,728.4,873.3,728.6z"/>
			<path d="M892.5,733.7c1,1.1,0.8,2.4-1,3.5c-1.9,1.2-2.4,3.5-4,5c-0.4,0.4,0,1,0.7,0.7c1.9-0.7,3.9-0.6,5.8-1.2
				c1.4-0.5,3.1-0.4,4.5,0.3c1.4,0.7,1.5,1.6,0.3,2.6c-0.4,0.3-0.8,0.7-1.1,1.2c-0.6,0.9-1.5,0.9-2.2,0.6c-2.6-1.1-5.1-0.5-7.6-0.1
				c-1.4,0.2-2.9,0.2-4,1.2c-1,0.9-1.8,2-2.8,2.9c-1,0.8-2.1,1.8-2.8,3c-0.7,1.2-1.9,2-1.8,3.8c0.1,1.5-3.1,3.4-4.8,3.2
				c-0.3,0-0.6,0-0.8,0.1c-0.8,0.4-1.7,0.5-2.1-0.5c-0.3-1-0.5-2.1,0.7-3c1.7-1.2,2.7-3.2,4.2-4.6c0.2-0.2,0.5-0.6,0.2-0.9
				c-0.2-0.2-0.7-0.3-0.9-0.2c-2.6,1.1-5.5,1-7.9,2.7c-1.6,1.1-4.9-0.7-5-2.6c-0.1-1.1,1.5-2.5,3.2-2.5c3.5,0,6.7-1.6,10.1-2
				c2.3-0.3,4.5-1.1,6.7-1.8c1.1-0.4,1.9-0.9,2.1-2c0.1-1,0.9-1.8,1.4-2.2c2-1.8,2.6-4.4,4.2-6.5C889.1,732.5,891,731.7,892.5,733.7
				z"/>
			<path d="M852.6,705.9c2.8-0.4,5.6-0.7,8.4-1.1c1.2-0.2,2.4-0.1,3.4,0.8c0.4,0.4,0.9,0.9,0.7,1.6c-0.2,0.6-0.7,1-1.3,1.1
				c-2.5,0.2-5,0.5-7.5,0.6c-3.1,0.2-6.3-0.3-9.2,1.5c-1.1,0.7-1.6,1.9-2.6,2.7c-1.3,1-2.5,2.2-3.5,3.3c-0.8,1-1.5,2.3-2.4,3.3
				c-1.5,1.7-3.3,3-5.1,4.3c-0.9,0.6-1.9,0.4-2.8,0c-0.8-0.4-0.9-1.2-0.6-2c0.3-0.9,0-2.2,1.8-2.3c1.1,0,1.9-1.1,2.7-1.8
				c1.8-1.6,3.2-3.6,5.2-4.9c0.5-0.3,1.3-0.8,0.8-1.5c-0.5-0.7-1.2-0.1-1.9,0.1c-2.5,0.9-5,1.7-7.6,2.5c-1,0.3-1.9,0.6-2.6,1.4
				c-1.6,1.8-5.9,1.2-6.8-0.9c-0.4-1,0.6-2.9,1.6-2.9c2.8-0.1,5.5-0.9,8.2-1.4c3.4-0.7,6.8-1.9,10.3-2.3c2.1-0.3,4-0.9,5.6-2.7
				c2.2-2.4,4.8-4.4,7.2-6.5c0.9-0.8,2.1-1.1,3.2-0.9c1,0.2,2.3,0.6,2.1,2c-0.1,1.2,0,2.5-2.1,2.5
				C855.5,702.3,854.2,704.5,852.6,705.9z"/>
			<path d="M839.3,692.6c3.4-0.7,6.9-0.3,10.3-1c1.4-0.3,2.1,0.5,3,1.2c0.7,0.6,0.3,1.2,0.1,1.8c-0.4,1.3-1.7,1.1-2.5,1
				c-6.1-0.3-12.2,0.2-18.2,1.7c-2.3,0.6-4.2,2-6.1,3.4c-2.7,1.9-5.5,3.6-7.9,5.7c-0.9,0.8-1.9,0.8-2.9,0.3c-0.7-0.4-1.1-1-1-1.9
				c0.1-1.2,0.4-2.2,1.6-2.9c1.1-0.6,2.5-0.8,3.3-1.9c-1.8,0.1-3.7,0.1-5.2,1.1c-1.3,0.9-2.6,0.6-3.9,0.4c-1.1-0.2-1.8-1.9-1.6-3.1
				c0.1-0.6,2.3-2,3.1-2c2.8,0.1,5.5-0.2,8.2-0.6c2.5-0.4,5-0.8,7.5-1.2c1.1-0.2,2.1-0.4,3-1.1c2.7-2.2,5.9-3.7,8.7-5.8
				c1.7-1.3,4.1-2.1,6.5-2.5c1.4-0.2,2.1,0.6,2.3,1.8c0.2,1.3-0.8,2.1-1.9,2.2C843,689.5,841.2,691,839.3,692.6z"/>
			<path d="M780.8,662.8c1.4,1.1,2.7,2.8,4.3,4.3c0.8,0.8,1.2,1.7,0.6,2.6c-0.9,1.3-2.5,1.5-3.7,0.6c-1.7-1.4-3.1-3-4.3-4.8
				c-0.6-0.9-1.5-1.5-2.4-2.1c-1.4-0.9-2.7-2-3.6-3.4c-0.6-0.8-0.5-2.1,0-2.9c0.5-0.8,1.5-1.1,2.6-0.9c3.2,0.6,6.5,0.7,9.8,0.7
				c5.4-0.1,10.8-0.6,16.1-0.7c2.3-0.1,4.5-0.1,6.8-0.9c1.4-0.5,2.1-1.7,2.9-2.7c0.5-0.7-0.9-2.5-2-2.8c-0.6-0.1-1.2-0.2-1.8-0.3
				c-1-0.1-1.7-0.7-2-1.5c-0.3-0.9,0.2-1.7,1-2.3c0.8-0.6,1.8-0.6,2.7-0.6c2.5,0.2,6.4,3.8,6.9,6.2c0.4,2.1-1,5.1-3.2,6.1
				c-3.8,1.8-7.7,2.9-12.1,2.5c-3.8-0.4-7.8,0.2-11.7,0.5c-2.1,0.2-4.1,0.2-6.2,0c-0.7,0-1.6-0.3-2,0.4
				C779.2,661.6,780,662,780.8,662.8z"/>
			<path d="M821.6,665c-1.4-1.9-2.2-2-4.2-0.9c-1.3,0.7-2.6,1.3-3.8,2.1c-1,0.7-2.5,0.2-3.6-0.2c-1.2-0.5-0.9-2.2,0.4-3.1
				c1-0.7,2.2-0.8,3.2-1.2c3-1.1,6.1-2.2,9.2-3.2c0.9-0.3,2.5,1.3,2.3,2.3c-0.1,0.7,0.2,0.8,0.6,1.3c1.2,1.8,3.2,3,4.2,5
				c0.5,1-0.8,3-2.1,3.5c-2.9,1-5.7,2.1-8.6,3.1c-0.8,0.3-1.5,0.6-2.3,0.7c-3.1,0.4-5.9,2-8.9,2.6c-2.3,0.5-4.6,1.2-6.9,1.7
				c-2.3,0.5-4.5,1.2-6.4,2.8c-1.2,1-3.9,0.8-5.1-0.3c-1.3-1.2-1-3.2,0.8-3.8c3-1.1,6.3-1.3,9.3-2.2c2.9-0.9,5.8-1.8,8.7-2.7
				c1.7-0.5,3.5-0.9,5.3-1.4c3.1-0.9,6.1-2,8.9-3.5c0.6-0.3,0.6-0.8,0.1-1.4C822.1,665.9,821.7,665.5,821.6,665z"/>
			<path d="M796.4,689.7c1.4-1.3,3.1-1.1,4.6-1.5c4.6-1.2,9.2-2.6,13.8-3.8c0.8-0.2,1.5-0.6,2-0.9c2.3-1.6,5.1-1.4,7.5-2.6
				c1.9-1,4.3-1.2,6.4-1.7c2.9-0.7,5.7-1.9,8.7-2.3c0.9-0.1,1.8-0.4,2.7-0.4c1.1,0,1.8,0.7,2,1.6c0.1,1-0.2,1.9-1.5,2.2
				c-2,0.4-4.1,0.1-6.1,0.7c-2.1,0.5-4.4,1-6.4,1.8c-3.6,1.4-7.4,2.2-10.9,3.9c-2.2,1.1-4.8,1.5-7.3,2.2c-1,0.3-1.9,0.8-2.9,1.2
				c-2,0.8-4.1,1.5-6.2,2c-0.5,0.1-1,0.2-1.3,0.7c-0.4,0.6-0.7,1.6-1.6,1.5c-1.4-0.1-3-0.2-4.2-1
				C794.9,692.7,795.4,690.6,796.4,689.7z"/>
			<path d="M838.1,727.3c1-1.6,2.9-1.7,4.3-2c3.8-0.8,7.2-2.2,10.7-3.7c2-0.8,4.2-1.1,6.2-2c5.8-2.3,11.6-4.5,17.7-6
				c1.7-0.4,3.1-0.7,4.6,0.3c1,0.7,1.1,1.6,0.8,2.6c-0.3,1-1.2,0.9-1.9,0.9c-3.7,0.1-7.3,0.8-10.9,1.8c-3.7,1-7.1,2.9-10.7,3.9
				c-4.1,1.1-7.8,3-11.8,4.3c-0.9,0.3-1.6,1-2.2,1.8c-0.8,1.1-2.4,1.1-3.5,1.7c-1.6,0.8-2.6-0.2-3.6-0.9
				C836.4,729.1,837,728,838.1,727.3z"/>
		</g>
	</g>
	<path d="M41.2,59.1c0.2,0.5,0.5,1.1,0.2,1.5c-0.5,0.7-2.5,0.3-2.8,0c-3.3-2.5-7.4-6.3-6.3-7.9c0.8-1.3,4.3-1,6.3,0.6
		C39.2,53.8,38.9,53.8,41.2,59.1z"/>
	<path d="M41.2,298c0.2,0.5,0.5,1.1,0.2,1.5c-0.5,0.7-2.5-0.3-2.8-0.6c-3.3-2.5-6-5.2-4.9-6.9c0.8-1.3,2.9-1.5,4.9,0.1
		C39.2,292.7,38.9,292.7,41.2,298z"/>
</g>
</svg>
