<?xml version="1.0" encoding="utf-8"?>
<!-- Generator: Adobe Illustrator 21.1.0, SVG Export Plug-In . SVG Version: 6.00 Build 0)  -->
<svg version="1.1" id="レイヤー_1" xmlns="http://www.w3.org/2000/svg" xmlns:xlink="http://www.w3.org/1999/xlink" x="0px"
	 y="0px" viewBox="0 0 155.9 155.9" style="enable-background:new 0 0 155.9 155.9;" xml:space="preserve">
<style type="text/css">
	.st0{clip-path:url(#SVGID_2_);fill:#1E2452;}
	.st1{clip-path:url(#SVGID_2_);}
	.st2{fill:#FFFFFF;}
	.st3{fill:none;stroke:#1E2452;stroke-width:0.8;stroke-miterlimit:10;}
	.st4{clip-path:url(#SVGID_2_);fill:#FFFFFF;stroke:#1E2452;stroke-width:0.8;stroke-miterlimit:10;}
	.st5{font-family:'FuturaPT-Light';}
	.st6{font-size:14.0365px;}
	.st7{letter-spacing:1;}
	.st8{clip-path:url(#SVGID_2_);fill:none;}
</style>
<g>
	<defs>
		<path id="SVGID_1_" d="M143.9,156.1H12c-6.6,0-12-5.4-12-12V12.2c0-6.6,5.4-12,12-12h131.9c6.6,0,12,5.4,12,12v131.9
			C155.9,150.7,150.5,156.1,143.9,156.1z"/>
	</defs>
	<clipPath id="SVGID_2_">
		<use xlink:href="#SVGID_1_"  style="overflow:visible;"/>
	</clipPath>
	<path class="st0" d="M143.9,155.9H12c-6.6,0-12-5.4-12-12V12C0,5.4,5.4,0,12,0h131.9c6.6,0,12,5.4,12,12v131.9
		C155.9,150.5,150.5,155.9,143.9,155.9z"/>
	<g class="st1">
		<path class="st2" d="M22.2,20.3c0-0.8,1.3-1.5,3-1.6L306.5,16c1.6,0,3,1.3,3,3v1.4c0,1.6-1.3,3-3,3c0,0-174,0-262.5,0
			c-7.3,0-18.8,0-18.8,0C23.6,23.3,22.2,21.1,22.2,20.3z"/>
		<path class="st3" d="M22.2,20.3c0-0.8,1.3-1.5,3-1.6L306.5,16c1.6,0,3,1.3,3,3v1.4c0,1.6-1.3,3-3,3c0,0-174,0-262.5,0
			c-7.3,0-18.8,0-18.8,0C23.6,23.3,22.2,21.1,22.2,20.3z"/>
	</g>
	<path class="st4" d="M111.8,20.7c-4.1,0-6.7,0.6-6.7-2.5s1.7-5.1,5.8-5.1s7.9,1.2,7.9,4.3S115.8,20.7,111.8,20.7z"/>
	<path class="st4" d="M97.3,20.9c-5.5,0.1-6.5-0.9-6.7-3.1C90.3,14.8,93,12,97,12s6.8,2.5,6.8,5.6S101.3,20.8,97.3,20.9z"/>
	<path class="st4" d="M47.6,21.3c-4.1,0.1-6.9,0.3-7-2.7s2.8-5.7,6.9-5.8s6.5,2.9,6.6,6S51.7,21.2,47.6,21.3z"/>
	<path class="st4" d="M68.5,21.1c-6.1,0.1-7.1-0.3-6.9-3.4c0.2-3,3.6-5.4,7.6-5.1c4.1,0.2,7.2,2.8,7.1,5.9S72.5,21.1,68.5,21.1z"/>
	<g class="st1">
		<path class="st2" d="M20,23.1c0-0.8,1.3-1.5,3-1.6l281.3-2.7c1.6,0,3,1.3,3,3v1.4c0,1.6-1.4,3-3,3c0,0-174,0-262.5,0
			c-7.3,0-18.8,0-18.8,0C21.3,26.1,20,23.9,20,23.1z"/>
		<path class="st3" d="M20,23.1c0-0.8,1.3-1.5,3-1.6l281.3-2.7c1.6,0,3,1.3,3,3v1.4c0,1.6-1.4,3-3,3c0,0-174,0-262.5,0
			c-7.3,0-18.8,0-18.8,0C21.3,26.1,20,23.9,20,23.1z"/>
	</g>
	<g class="st1">
		<path class="st2" d="M54.2,25.6c0.9-0.2,1.8,0.1,3.1,0.1c0.3,0,0.2,0,0.4,0c1.3,0,2.8,0.8,3.3,2c0,0,0,0,0,0
			c1.4,4.1,0.7,49,0.8,49.5c0,0.2,0.1,0.3,0.1,0.3c0.1,0.1,0.3,0.1,0.5,0c0,0,0.1-0.1,0.1-0.2c0.1-0.6-0.7-44.9,0.7-49.5
			c0.1-0.4,0.5-1.5,1.4-2"/>
		<path class="st2" d="M70,25.6c-0.9-0.2-1.8,0.1-3.1,0.1c-0.3,0-0.2,0-0.4,0c-1.3,0-2.8,0.8-3.3,2c0,0,0,0,0,0
			c-1.4,4.1-0.7,49-0.8,49.5c0,0.2-0.1,0.3-0.1,0.3c-0.1,0.1-0.3,0.1-0.5,0c0,0-0.1-0.1-0.1-0.2c-0.1-0.6,0.7-44.9-0.7-49.5
			c-0.1-0.4-0.5-1.5-1.4-2"/>
	</g>
	<g class="st1">
		<path class="st2" d="M69,25.6c0.9-0.2,1.8,0.1,3.1,0.1c0.3,0,0.2,0,0.4,0c1.3,0,2.8,0.8,3.3,2c0,0,0,0,0,0
			c1.4,4.1,0.7,57.1,0.8,57.6c0,0.2,0.1,0.3,0.1,0.3c0.1,0.1,0.3,0.1,0.5,0c0,0,0.1-0.1,0.1-0.2c0.1-0.6-0.7-53,0.8-57.7
			c0.1-0.4,0.5-1.5,1.4-2"/>
		<path class="st2" d="M84.9,25.6c-0.9-0.2-1.8,0.1-3.1,0.1c-0.3,0-0.2,0-0.4,0c-1.3,0-2.8,0.8-3.3,2c0,0,0,0,0,0
			c-1.4,4.1-0.8,57.1-0.8,57.6c0,0.2-0.1,0.3-0.1,0.3c-0.1,0.1-0.3,0.1-0.5,0c0,0-0.1-0.1-0.1-0.2c-0.1-0.6,0.7-53-0.7-57.7
			c-0.1-0.4-0.5-1.5-1.4-2"/>
	</g>
	<g class="st1">
		<path class="st2" d="M83.8,25.6c0.9-0.2,1.8,0.1,3.1,0.1c0.3,0,0.2,0,0.4,0c1.3,0,2.8,0.8,3.3,2c0,0,0,0,0,0
			c1.4,4.1,0.7,49,0.8,49.5c0,0.2,0.1,0.3,0.1,0.3c0.1,0.1,0.3,0.1,0.5,0c0,0,0.1-0.1,0.1-0.2c0.1-0.6-0.7-44.9,0.7-49.5
			c0.1-0.4,0.5-1.5,1.4-2"/>
		<path class="st2" d="M99.6,25.6c-0.9-0.2-1.8,0.1-3.1,0.1c-0.3,0-0.2,0-0.4,0c-1.3,0-2.8,0.8-3.3,2c0,0,0,0,0,0
			c-1.4,4.1-0.7,49-0.8,49.5c0,0.2-0.1,0.3-0.1,0.3c-0.1,0.1-0.3,0.1-0.5,0c0,0-0.1-0.1-0.1-0.2c-0.1-0.6,0.7-44.9-0.7-49.5
			c-0.1-0.4-0.5-1.5-1.4-2"/>
	</g>
	<g class="st1">
		<path class="st2" d="M98.4,25.6c0.9-0.2,1.8,0.1,3.1,0.1c0.3,0,0.2,0,0.4,0c1.3,0,2.8,0.8,3.3,2c0,0,0,0,0,0
			c1.4,4.1,0.7,23.5,0.8,24c0,0.2,0.1,0.3,0.1,0.3c0.1,0.1,0.3,0.1,0.5,0c0,0,0.1-0.1,0.1-0.2c0.1-0.6-0.7-19.4,0.7-24
			c0.1-0.4,0.5-1.5,1.4-2"/>
		<path class="st2" d="M114.2,25.6c-0.9-0.2-1.8,0.1-3.1,0.1c-0.3,0-0.2,0-0.4,0c-1.3,0-2.8,0.8-3.3,2c0,0,0,0,0,0
			c-1.4,4.1-0.7,23.5-0.8,24c0,0.2-0.1,0.3-0.1,0.3c-0.1,0.1-0.3,0.1-0.5,0c0,0-0.1-0.1-0.1-0.2c-0.1-0.6,0.7-19.4-0.7-24
			c-0.1-0.4-0.5-1.5-1.4-2"/>
	</g>
	<g class="st1">
		<path class="st2" d="M39.5,25.6c0.9-0.2,1.8,0.1,3.1,0.1c0.3,0,0.2,0,0.4,0c1.3,0,2.8,0.8,3.3,2c0,0,0,0,0,0
			c1.4,4.1,0.7,23.5,0.8,24c0,0.2,0.1,0.3,0.1,0.3c0.1,0.1,0.3,0.1,0.5,0c0,0,0.1-0.1,0.1-0.2c0.1-0.6-0.7-19.4,0.8-24
			c0.1-0.4,0.5-1.5,1.4-2"/>
		<path class="st2" d="M55.3,25.6c-0.9-0.2-1.8,0.1-3.1,0.1c-0.3,0-0.2,0-0.4,0c-1.3,0-2.8,0.8-3.3,2c0,0,0,0,0,0
			c-1.4,4.1-0.8,23.5-0.8,24c0,0.2-0.1,0.3-0.1,0.3c-0.1,0.1-0.3,0.1-0.5,0c0,0-0.1-0.1-0.1-0.2c-0.1-0.6,0.7-19.4-0.7-24
			c-0.1-0.4-0.5-1.5-1.4-2"/>
	</g>
	<path class="st4" d="M97.2,85.5c0,4.1-2.5,6.5-5.5,6.5c-3.1,0-5.5-2.4-5.5-6.5s2.5-7.4,5.5-7.4C94.7,78.1,97.2,81.4,97.2,85.5z"/>
	<path class="st4" d="M111.8,60c0,4.1-2.5,6.5-5.5,6.5c-3.1,0-5.5-2.4-5.5-6.5s2.5-7.4,5.5-7.4C109.4,52.6,111.8,55.9,111.8,60z"/>
	<path class="st4" d="M67.6,85.3c0,4.1-2.5,6.8-5.5,6.8c-3.1,0-5.5-2.7-5.5-6.8s2.5-7.4,5.5-7.4C65.2,78,67.6,81.3,67.6,85.3z"/>
	<path class="st4" d="M52.9,59.8c0,4.1-2.5,6.8-5.5,6.8c-3.1,0-5.5-2.7-5.5-6.8s2.5-7.4,5.5-7.4C50.4,52.5,52.9,55.8,52.9,59.8z"/>
	<g class="st1">
		<path class="st2" d="M76.6,117.8c0.2,0.2,0.5,0.2,0.7,0l0,0c0.2-0.2,0.4-0.6,0.5-0.8l0.2-0.7c0.1-0.3,0.2-0.7,0.2-1l0.2-8.1
			c0-0.3,0.1-0.6,0.1-0.7c0-0.1,0.3-0.3,0.5-0.4l0.2-0.1c0.3-0.1,0.5-0.2,0.5-0.2s0.1,0.1,0.1,0.1s0,0.3,0,0.4c0,0.1,0,0.5,0,0.8
			l0,0c0,0.3,0.1,0.6,0.1,0.6s0.3,0.1,0.6,0.1l0,0c0.3,0,0.6,0,0.7-0.1c0.1-0.1,0.2-0.3,0.2-0.5c0-0.2,0-0.5,0-0.7s-0.1-0.5-0.2-0.7
			c-0.1-0.2-0.1-0.5-0.1-0.6s0.3-0.3,0.5-0.4l5-2.5c0.2-0.1,0.6-0.3,0.9-0.5l0.4-0.2c0.2-0.1,0.6-0.4,0.8-0.6l0.2-0.2
			c0.2-0.2,0.4-0.5,0.5-0.7s0.1-0.5,0.1-0.6s-0.1-0.2-0.2-0.2c-0.1,0-0.4,0-0.6,0.1l-7,1.8c-0.3,0.1-0.6,0.1-0.8,0.1s-0.5,0-0.8,0
			l-1.1-0.1c-0.3,0-0.6,0-0.6-0.1c-0.1,0-0.2-0.1-0.2-0.2c0-0.1,0-0.4,0-0.7l0-2.5c0-0.3,0-0.7,0-1l0-0.8c0-0.3,0-0.7-0.1-1
			l-0.1-1.3c0-0.3-0.1-0.7-0.1-1l-0.1-0.8c0-0.3,0-0.6,0.1-0.8c0.1-0.2,0.3-0.4,0.6-0.6l2.5-1.6c0.2-0.1,0.5-0.4,0.6-0.5
			c0.1-0.1,0.2-0.4,0.2-0.6c0-0.2,0.1-0.4,0-0.5c0-0.1-0.1-0.2-0.2-0.2c-0.1,0-0.4,0-0.6,0.1l-2,0.5c-0.3,0.1-0.7,0.1-0.9,0.2
			c-0.2,0-0.5,0-0.6-0.1s-0.3-0.4-0.3-0.7c0-0.3-0.1-0.5-0.2-0.6s-0.2,0-0.2,0c-0.1,0-0.1,0.3-0.2,0.6s-0.2,0.6-0.3,0.7
			S76,88,75.8,88s-0.6-0.1-0.9-0.2l-2-0.5c-0.3-0.1-0.6-0.1-0.6-0.1c-0.1,0-0.2,0.1-0.2,0.2c0,0.1,0,0.3,0,0.5
			c0,0.2,0.1,0.5,0.2,0.6s0.3,0.3,0.6,0.5l2.5,1.6c0.2,0.1,0.5,0.4,0.6,0.6c0.1,0.2,0.1,0.5,0.1,0.8l-0.1,0.8c0,0.3-0.1,0.7-0.1,1
			L75.6,95c0,0.3-0.1,0.7-0.1,1l0,0.8c0,0.3,0,0.7,0,1l0,2.5c0,0.3,0,0.6,0,0.7c0,0.1-0.1,0.2-0.2,0.2c-0.1,0-0.4,0.1-0.6,0.1
			l-1.1,0.1c-0.3,0-0.6,0-0.8,0s-0.5-0.1-0.8-0.1l-7-1.8c-0.3-0.1-0.6-0.1-0.6-0.1c-0.1,0-0.2,0.1-0.2,0.2s0.1,0.4,0.1,0.6
			s0.3,0.5,0.5,0.7L65,101c0.2,0.2,0.6,0.4,0.8,0.6l0.4,0.2c0.2,0.1,0.6,0.3,0.9,0.5l5,2.5c0.2,0.1,0.5,0.3,0.5,0.4s0,0.4-0.1,0.6
			c-0.1,0.2-0.1,0.5-0.2,0.7s0,0.5,0,0.7s0.1,0.4,0.2,0.5c0.1,0.1,0.4,0.1,0.7,0.1l0,0c0.3,0,0.6-0.1,0.6-0.1
			c0.1-0.1,0.1-0.3,0.1-0.6l0,0c0-0.3,0-0.6,0-0.8s0-0.3,0-0.4s0.1-0.1,0.1-0.1s0.3,0.1,0.5,0.2l0.2,0.1c0.3,0.1,0.5,0.3,0.5,0.4
			s0.1,0.4,0.1,0.7l0.2,8.1c0,0.3,0.1,0.7,0.2,1l0.2,0.7C76.1,117.1,76.4,117.5,76.6,117.8L76.6,117.8z"/>
	</g>
	<g class="st1">
		<text transform="matrix(1 0 0 1 23.3652 135.8828)"><tspan x="0" y="0" class="st2 st5 st6 st7">THINK GLOBAL</tspan><tspan x="15.4" y="13" class="st2 st5 st6 st7">EAT LOCAL</tspan></text>
	</g>
	<path class="st8" d="M130,156.3H23.4c-13.7,0-25-11.2-25-25V24.6c0-13.8,11.2-25,25-25H130c13.8,0,25,11.3,25,25v106.7
		C155,145.1,143.8,156.3,130,156.3z"/>
</g>
</svg>
