<?xml version="1.0" encoding="utf-8"?>
<!-- Generator: Adobe Illustrator 21.1.0, SVG Export Plug-In . SVG Version: 6.00 Build 0)  -->
<svg version="1.1" id="レイヤー_1" xmlns="http://www.w3.org/2000/svg" xmlns:xlink="http://www.w3.org/1999/xlink" x="0px"
	 y="0px" viewBox="0 0 230.2 201.4" style="enable-background:new 0 0 230.2 201.4;" xml:space="preserve">
<style type="text/css">
	.st0{fill:none;stroke:#9FA0A0;stroke-width:0.1;stroke-miterlimit:10;}
	.st1{clip-path:url(#SVGID_2_);}
</style>
<path class="st0" d="M87.5,201.4"/>
<g>
	<g>
		<defs>
			<circle id="SVGID_1_" cx="114.9" cy="81" r="45.9"/>
		</defs>
		<clipPath id="SVGID_2_">
			<use xlink:href="#SVGID_1_"  style="overflow:visible;"/>
		</clipPath>
		<g class="st1">
			<g>
				<g id="XMLID_6_">
					<g>
						<path d="M129.3,79.8L129.3,79.8c-0.1,0-0.3,0-0.4,0C129,79.8,129.1,79.8,129.3,79.8z"/>
						<path d="M122.1,79.8c3.8,0,4.2,0,6.8,0c0.1,0,0.3,0,0.4,0v47.1h-14.4V95.4V81v-1.2C118.4,79.8,118.1,79.8,122.1,79.8z"/>
						<path d="M114.9,65.4c0,7.8,6.2,14.2,14,14.4c-2.6,0-3,0-6.8,0c-4,0-3.6,0-7.2,0V65.4z"/>
						<path d="M114.9,79.8V81c-3.4,0-3.2,0-7.2,0c-4,0-2.8,0-7.2,0V35.1h14.4v30.3V79.8z"/>
						<path d="M114.9,95.4c0-7.9-6.4-14.4-14.4-14.4v0c4.4,0,3.2,0,7.2,0c4,0,3.8,0,7.2,0V95.4z"/>
					</g>
					<g>
					</g>
				</g>
			</g>
		</g>
		<rect x="100.5" y="70.7" class="st1" width="14.4" height="10.3"/>
		<rect x="114.9" y="79.8" class="st1" width="14.4" height="10.3"/>
	</g>
</g>
<g>
	<path d="M23.1,162c0-1.1,0.2-2.2,0.6-3.1c0.4-0.9,0.9-1.7,1.6-2.3c0.7-0.6,1.5-1.1,2.4-1.4c0.9-0.3,1.9-0.5,3.1-0.5
		c1.1,0,2.1,0.2,3.1,0.5c0.9,0.3,1.7,0.8,2.4,1.4c0.7,0.6,1.2,1.4,1.6,2.3c0.4,0.9,0.6,1.9,0.6,3.1s-0.2,2.2-0.6,3.1
		c-0.4,0.9-0.9,1.7-1.6,2.3c-0.7,0.6-1.5,1.1-2.4,1.4c-0.9,0.3-2,0.5-3.1,0.5c-1.1,0-2.1-0.2-3.1-0.5c-0.9-0.3-1.7-0.8-2.4-1.4
		c-0.7-0.6-1.2-1.4-1.6-2.3C23.3,164.2,23.1,163.2,23.1,162z M36.3,162c0-1.1-0.1-2.1-0.4-2.9c-0.3-0.8-0.7-1.5-1.2-2
		c-0.5-0.5-1.1-0.9-1.8-1.2c-0.7-0.3-1.4-0.4-2.2-0.4c-0.8,0-1.5,0.1-2.2,0.4c-0.7,0.3-1.3,0.6-1.8,1.2c-0.5,0.5-0.9,1.2-1.2,2
		c-0.3,0.8-0.4,1.8-0.4,2.9s0.1,2.1,0.4,2.9c0.3,0.8,0.7,1.5,1.2,2c0.5,0.5,1.1,0.9,1.8,1.2c0.7,0.3,1.4,0.4,2.2,0.4
		c0.8,0,1.5-0.1,2.2-0.4c0.7-0.3,1.3-0.6,1.8-1.2c0.5-0.5,0.9-1.2,1.2-2C36.1,164.1,36.3,163.1,36.3,162z"/>
	<path d="M49.4,163.7c-1.8-1.9-3.5-3.8-5.3-5.6c0,0.4,0,0.9,0,1.5c0,0.6,0,1.5,0,2.6c0,0.3,0,0.6,0,1.1c0,0.4,0,0.9,0,1.3
		c0,0.5,0,0.9,0,1.4c0,0.5,0,0.9,0,1.3c0,0.4,0,0.8,0,1.1c0,0.3,0,0.5,0,0.6c-0.2,0-0.5,0-0.7,0c-0.3,0-0.5,0-0.7,0
		c0-0.1,0.1-0.4,0.1-0.7c0-0.4,0.1-0.8,0.1-1.3c0-0.5,0.1-1.1,0.1-1.6c0-0.6,0.1-1.2,0.1-1.8c0-0.6,0-1.2,0-1.7s0-1.1,0-1.5
		c0-1.3,0-2.4,0-3.3c0-0.9,0-1.6-0.1-2.1h0.3c0.8,0.9,1.7,1.8,2.6,2.9c0.9,1,1.9,2,2.8,3c0.9,1,1.8,1.9,2.6,2.8
		c0.8,0.9,1.6,1.6,2.2,2.3V163c0-1.4,0-2.8,0-4.1c0-1.3-0.1-2.6-0.1-3.8c0.3,0.1,0.5,0.1,0.7,0.1c0.2,0,0.4,0,0.6-0.1
		c0,0.3-0.1,0.7-0.1,1.3c0,0.6-0.1,1.2-0.1,1.9c0,0.7-0.1,1.3-0.1,2s0,1.2,0,1.6c0,0.3,0,0.7,0,1.2c0,0.5,0,0.9,0,1.4
		c0,0.5,0,1,0,1.5c0,0.5,0,1,0,1.4c0,0.4,0,0.8,0,1.1c0,0.3,0,0.5,0,0.7h-0.3C52.8,167.4,51.2,165.6,49.4,163.7z"/>
	<path d="M60.5,157.6c0-0.9-0.1-1.7-0.1-2.6c0.6,0,1.2,0,1.8,0.1c0.6,0,1.2,0,1.8,0c0.6,0,1.2,0,1.8,0c0.6,0,1.2,0,1.8-0.1
		c0,0.2-0.1,0.4-0.1,0.6s0,0.4,0.1,0.6c-0.4,0-0.8-0.1-1.2-0.1c-0.4,0-0.7-0.1-1.1-0.1c-0.4,0-0.8-0.1-1.3-0.1c-0.5,0-1,0-1.7,0
		c0,0.4,0,0.8,0,1.2s0,0.8,0,1.3c0,0.5,0,1,0,1.5c0,0.5,0,0.9,0,1.1c0.6,0,1.1,0,1.6,0c0.5,0,0.9,0,1.3-0.1c0.4,0,0.8,0,1.1-0.1
		c0.3,0,0.6,0,0.9-0.1c0,0.2-0.1,0.4-0.1,0.6c0,0.2,0,0.4,0.1,0.6c-0.4,0-0.8-0.1-1.2-0.1c-0.5,0-0.9,0-1.4-0.1c-0.5,0-0.9,0-1.3,0
		c-0.4,0-0.7,0-1,0c0,0.1,0,0.3,0,0.4c0,0.1,0,0.3,0,0.5v0.8v1.2c0,0.8,0,1.4,0,1.9c0,0.5,0,0.9,0,1.1c0.4,0,0.9,0,1.4,0
		c0.5,0,1,0,1.5,0c0.5,0,1,0,1.4-0.1c0.4,0,0.8-0.1,1.1-0.2c0,0.1,0,0.2-0.1,0.3c0,0.1,0,0.2,0,0.3c0,0.2,0,0.4,0.1,0.5
		c-0.6,0-1.2,0-1.8,0s-1.2,0-1.8,0c-0.6,0-1.2,0-1.8,0c-0.6,0-1.2,0-1.8,0c0-0.9,0.1-1.7,0.1-2.6c0-0.9,0.1-1.7,0.1-2.6v-3.5
		C60.6,159.4,60.6,158.5,60.5,157.6z"/>
	<path d="M86.5,163.7c-1.8-1.9-3.5-3.8-5.3-5.6c0,0.4,0,0.9,0,1.5c0,0.6,0,1.5,0,2.6c0,0.3,0,0.6,0,1.1c0,0.4,0,0.9,0,1.3
		c0,0.5,0,0.9,0,1.4c0,0.5,0,0.9,0,1.3c0,0.4,0,0.8,0,1.1c0,0.3,0,0.5,0,0.6c-0.2,0-0.5,0-0.7,0c-0.3,0-0.5,0-0.7,0
		c0-0.1,0.1-0.4,0.1-0.7c0-0.4,0.1-0.8,0.1-1.3c0-0.5,0.1-1.1,0.1-1.6c0-0.6,0.1-1.2,0.1-1.8c0-0.6,0-1.2,0-1.7s0-1.1,0-1.5
		c0-1.3,0-2.4,0-3.3c0-0.9,0-1.6-0.1-2.1h0.3c0.8,0.9,1.7,1.8,2.6,2.9c0.9,1,1.9,2,2.8,3c0.9,1,1.8,1.9,2.6,2.8
		c0.8,0.9,1.6,1.6,2.2,2.3V163c0-1.4,0-2.8,0-4.1s-0.1-2.6-0.1-3.8c0.3,0.1,0.5,0.1,0.7,0.1c0.2,0,0.4,0,0.6-0.1
		c0,0.3-0.1,0.7-0.1,1.3c0,0.6-0.1,1.2-0.1,1.9c0,0.7-0.1,1.3-0.1,2c0,0.6,0,1.2,0,1.6c0,0.3,0,0.7,0,1.2c0,0.5,0,0.9,0,1.4
		s0,1,0,1.5c0,0.5,0,1,0,1.4c0,0.4,0,0.8,0,1.1c0,0.3,0,0.5,0,0.7h-0.3C89.9,167.4,88.3,165.6,86.5,163.7z"/>
	<path d="M96.6,162c0-1.1,0.2-2.2,0.6-3.1c0.4-0.9,0.9-1.7,1.6-2.3s1.5-1.1,2.4-1.4c0.9-0.3,1.9-0.5,3.1-0.5c1.1,0,2.1,0.2,3.1,0.5
		c0.9,0.3,1.7,0.8,2.4,1.4c0.7,0.6,1.2,1.4,1.6,2.3c0.4,0.9,0.6,1.9,0.6,3.1s-0.2,2.2-0.6,3.1c-0.4,0.9-0.9,1.7-1.6,2.3
		c-0.7,0.6-1.5,1.1-2.4,1.4c-0.9,0.3-2,0.5-3.1,0.5c-1.1,0-2.1-0.2-3.1-0.5c-0.9-0.3-1.7-0.8-2.4-1.4s-1.2-1.4-1.6-2.3
		C96.7,164.2,96.6,163.2,96.6,162z M109.7,162c0-1.1-0.1-2.1-0.4-2.9c-0.3-0.8-0.7-1.5-1.2-2c-0.5-0.5-1.1-0.9-1.8-1.2
		c-0.7-0.3-1.4-0.4-2.2-0.4c-0.8,0-1.5,0.1-2.2,0.4c-0.7,0.3-1.3,0.6-1.8,1.2c-0.5,0.5-0.9,1.2-1.2,2c-0.3,0.8-0.4,1.8-0.4,2.9
		s0.1,2.1,0.4,2.9c0.3,0.8,0.7,1.5,1.2,2c0.5,0.5,1.1,0.9,1.8,1.2c0.7,0.3,1.4,0.4,2.2,0.4c0.8,0,1.5-0.1,2.2-0.4
		c0.7-0.3,1.3-0.6,1.8-1.2c0.5-0.5,0.9-1.2,1.2-2C109.6,164.1,109.7,163.1,109.7,162z"/>
	<path d="M120.4,168.9c-0.3-0.8-0.7-1.8-1.1-2.9c-0.4-1.1-0.9-2.3-1.4-3.5c-0.5-1.2-1-2.5-1.6-3.8c-0.5-1.3-1-2.5-1.5-3.7
		c0.2,0,0.4,0,0.5,0.1c0.2,0,0.3,0,0.5,0c0.2,0,0.3,0,0.5,0c0.2,0,0.4,0,0.5-0.1c0.3,0.9,0.6,1.8,1,2.8s0.7,2,1.1,3
		c0.4,1,0.8,2,1.2,3.1s0.8,2.1,1.3,3.1c0.2-0.6,0.5-1.2,0.8-1.8c0.3-0.7,0.6-1.4,0.9-2.1c0.3-0.7,0.6-1.5,0.9-2.2
		c0.3-0.8,0.6-1.5,0.8-2.2c0.3-0.7,0.5-1.4,0.7-2c0.2-0.6,0.4-1.1,0.5-1.6c0.3,0.1,0.5,0.1,0.7,0.1c0.2,0,0.5,0,0.7-0.1
		c-1.1,2.3-2.1,4.7-3,7c-1,2.3-1.9,4.6-2.8,6.9c-0.2,0-0.4,0-0.7,0C120.8,168.9,120.6,168.9,120.4,168.9z"/>
	<path d="M142.9,168.9c-0.2,0-0.4,0-0.5,0c-0.2,0-0.3,0-0.5,0s-0.4,0-0.5,0c-0.2,0-0.3,0-0.5,0c-0.1-0.3-0.2-0.7-0.4-1.1
		c-0.2-0.4-0.3-0.9-0.5-1.4c-0.2-0.5-0.4-1-0.6-1.5s-0.4-1-0.6-1.4c-0.4,0-0.9,0-1.3,0c-0.4,0-0.9,0-1.3,0c-0.4,0-0.8,0-1.2,0
		c-0.4,0-0.8,0-1.2,0c-0.4,1.1-0.8,2.1-1.2,3s-0.6,1.7-0.8,2.4c-0.2,0-0.5,0-0.7,0c-0.3,0-0.5,0-0.7,0c1.1-2.4,2.2-4.7,3.2-7
		c1-2.3,2.1-4.7,3.1-7.1h0.4c0.3,0.8,0.7,1.6,1,2.5c0.4,0.9,0.8,1.8,1.2,2.8c0.4,0.9,0.8,1.9,1.2,2.8c0.4,0.9,0.8,1.8,1.1,2.6
		c0.3,0.8,0.7,1.5,0.9,2.1C142.5,168.1,142.8,168.6,142.9,168.9z M134,162.6c0.4,0,0.7,0,1.1,0c0.4,0,0.7,0,1.1,0c0.4,0,0.8,0,1.1,0
		c0.4,0,0.8,0,1.1,0l-2.2-5.1L134,162.6z"/>
	<path d="M154.5,168.9c0-0.8,0.1-1.7,0.1-2.5c0-0.9,0-1.7,0-2.6v-3.5c0-0.9,0-1.8,0-2.6c0-0.9-0.1-1.7-0.1-2.6c0.2,0,0.3,0,0.5,0.1
		c0.2,0,0.3,0,0.5,0s0.3,0,0.5,0c0.2,0,0.3,0,0.5-0.1c0,0.9-0.1,1.8-0.1,2.6c0,0.9-0.1,1.7-0.1,2.6v1.1c0,0.1,0,0.2,0.1,0.2
		c0.1,0,0.1-0.1,0.3-0.2c0.5-0.4,1-0.9,1.5-1.4c0.5-0.5,1-1,1.6-1.6c0.5-0.6,1-1.1,1.6-1.7c0.5-0.6,1-1.1,1.5-1.7
		c0.1,0,0.3,0,0.4,0.1c0.1,0,0.3,0,0.4,0c0.2,0,0.3,0,0.5,0c0.2,0,0.3,0,0.5-0.1c-0.5,0.4-1,0.9-1.6,1.4c-0.6,0.6-1.2,1.1-1.8,1.7
		c-0.6,0.6-1.2,1.2-1.7,1.7c-0.5,0.6-1,1-1.4,1.5c1.1,1.2,2.2,2.5,3.3,3.7c1.1,1.3,2.2,2.6,3.4,3.8c-0.2,0-0.4,0-0.6,0
		c-0.2,0-0.4,0-0.6,0c-0.2,0-0.4,0-0.6,0c-0.2,0-0.4,0-0.6,0c-0.5-0.6-1-1.2-1.6-1.9c-0.6-0.7-1.2-1.4-1.7-2.1
		c-0.6-0.7-1.1-1.3-1.5-1.8c-0.5-0.5-0.8-0.9-1-1.1c-0.1-0.1-0.2-0.2-0.2-0.2c-0.1,0-0.1,0-0.1,0.1v1.8c0,0.9,0,1.8,0.1,2.6
		c0,0.9,0.1,1.7,0.1,2.5c-0.3,0-0.6,0-1,0S154.8,168.9,154.5,168.9z"/>
	<path d="M168.8,157.7c0-0.9-0.1-1.7-0.1-2.6c0.2,0,0.3,0,0.5,0.1c0.2,0,0.3,0,0.5,0s0.3,0,0.5,0c0.2,0,0.3,0,0.5-0.1
		c0,0.9-0.1,1.8-0.1,2.6c0,0.9-0.1,1.7-0.1,2.6v3.5c0,0.9,0,1.8,0.1,2.6c0,0.9,0.1,1.7,0.1,2.5c-0.3,0-0.6,0-1,0s-0.7,0-1,0
		c0-0.8,0.1-1.7,0.1-2.5c0-0.9,0-1.7,0-2.6v-3.5C168.9,159.4,168.9,158.5,168.8,157.7z"/>
	<path d="M182.8,163.7c-1.8-1.9-3.5-3.8-5.3-5.6c0,0.4,0,0.9,0,1.5c0,0.6,0,1.5,0,2.6c0,0.3,0,0.6,0,1.1c0,0.4,0,0.9,0,1.3
		c0,0.5,0,0.9,0,1.4c0,0.5,0,0.9,0,1.3c0,0.4,0,0.8,0,1.1c0,0.3,0,0.5,0,0.6c-0.2,0-0.5,0-0.7,0c-0.3,0-0.5,0-0.7,0
		c0-0.1,0.1-0.4,0.1-0.7c0-0.4,0.1-0.8,0.1-1.3c0-0.5,0.1-1.1,0.1-1.6c0-0.6,0.1-1.2,0.1-1.8c0-0.6,0-1.2,0.1-1.7c0-0.6,0-1.1,0-1.5
		c0-1.3,0-2.4,0-3.3c0-0.9,0-1.6-0.1-2.1h0.3c0.8,0.9,1.7,1.8,2.6,2.9c0.9,1,1.9,2,2.8,3c0.9,1,1.8,1.9,2.6,2.8
		c0.8,0.9,1.6,1.6,2.2,2.3V163c0-1.4,0-2.8,0-4.1s-0.1-2.6-0.1-3.8c0.3,0.1,0.5,0.1,0.7,0.1c0.2,0,0.4,0,0.6-0.1
		c0,0.3-0.1,0.7-0.1,1.3c0,0.6-0.1,1.2-0.1,1.9c0,0.7-0.1,1.3-0.1,2c0,0.6,0,1.2,0,1.6c0,0.3,0,0.7,0,1.2c0,0.5,0,0.9,0,1.4
		c0,0.5,0,1,0,1.5c0,0.5,0,1,0,1.4c0,0.4,0,0.8,0,1.1c0,0.3,0,0.5,0,0.7h-0.3C186.2,167.4,184.6,165.6,182.8,163.7z"/>
	<path d="M194,160.3c0-0.9,0-1.8,0-2.6c0-0.9-0.1-1.7-0.1-2.6c0.5,0,1,0,1.5,0.1c0.5,0,1,0,1.5,0c0.5,0,1,0,1.5-0.1c0.5,0,1,0,1.5,0
		c1.2,0,2.2,0.2,3,0.5c0.8,0.3,1.5,0.8,2.1,1.3c0.5,0.6,0.9,1.3,1.2,2.1c0.2,0.8,0.4,1.8,0.4,2.8c0,1.3-0.2,2.5-0.7,3.4
		c-0.5,0.9-1.1,1.7-1.8,2.2c-0.7,0.6-1.5,1-2.4,1.2c-0.9,0.2-1.7,0.4-2.5,0.4c-0.5,0-0.9,0-1.4,0c-0.4,0-0.9,0-1.4,0
		c-0.5,0-0.9,0-1.4,0c-0.4,0-0.9,0-1.4,0c0-0.8,0.1-1.7,0.1-2.5c0-0.9,0-1.7,0-2.6V160.3z M195.7,163.8c0,1.5,0,2.9,0.1,4.3
		c0.3,0.1,0.7,0.1,1.2,0.2c0.5,0,1,0.1,1.5,0.1c0.7,0,1.5-0.1,2.2-0.3c0.7-0.2,1.4-0.5,2-1c0.6-0.5,1.1-1.1,1.4-2
		c0.4-0.8,0.6-1.9,0.6-3.3c0-1.2-0.1-2.1-0.4-2.9c-0.3-0.8-0.7-1.4-1.2-1.8c-0.5-0.4-1.1-0.7-1.8-0.9c-0.7-0.2-1.5-0.3-2.3-0.3
		c-0.6,0-1.2,0-1.7,0.1c-0.5,0-1,0.1-1.4,0.1c0,0.6-0.1,1.3-0.1,2c0,0.7,0,1.4,0,2.2V163.8z"/>
</g>
<polyline class="st0" points="0,25 -15.7,25 -15.7,23 "/>
</svg>
