<svg id="レイヤー_1" data-name="レイヤー 1" xmlns="http://www.w3.org/2000/svg" xmlns:xlink="http://www.w3.org/1999/xlink" viewBox="0 0 230.2 230.5"><defs><style>.cls-1{fill:none;}.cls-2{clip-path:url(#clip-path);}</style><clipPath id="clip-path"><circle class="cls-1" cx="114.9" cy="96" r="45.9"/></clipPath></defs><title>aArtboard 1</title><g class="cls-2"><g id="_Group_" data-name="&lt;Group&gt;"><path d="M122.1,94.8h7.2v47.1H114.9V94.8Z"/><path d="M114.9,80.4a14.39,14.39,0,0,0,14,14.4h-14Z"/><path d="M114.9,94.8V96H100.5V50.1h14.4V94.8Z"/><path d="M114.9,110.4A14.4,14.4,0,0,0,100.5,96h14.4Z"/></g></g><g class="cls-2"><rect x="100.5" y="85.7" width="14.4" height="10.3"/></g><g class="cls-2"><rect x="114.9" y="94.8" width="14.4" height="10.3"/></g><path d="M23.1,177a7.79,7.79,0,0,1,.6-3.1,6.34,6.34,0,0,1,1.6-2.3,7.22,7.22,0,0,1,2.4-1.4,9.59,9.59,0,0,1,3.1-.5,10.59,10.59,0,0,1,3.1.5,7.22,7.22,0,0,1,2.4,1.4,6.34,6.34,0,0,1,1.6,2.3,8.31,8.31,0,0,1,0,6.2,6.34,6.34,0,0,1-1.6,2.3,7.22,7.22,0,0,1-2.4,1.4,10.07,10.07,0,0,1-3.1.5,10.59,10.59,0,0,1-3.1-.5,7.22,7.22,0,0,1-2.4-1.4,6.34,6.34,0,0,1-1.6-2.3A7.45,7.45,0,0,1,23.1,177Zm13.2,0a8.47,8.47,0,0,0-.4-2.9,5.61,5.61,0,0,0-1.2-2,5.67,5.67,0,0,0-1.8-1.2,5.38,5.38,0,0,0-2.2-.4,5.38,5.38,0,0,0-2.2.4,4.39,4.39,0,0,0-1.8,1.2,5.61,5.61,0,0,0-1.2,2,10.71,10.71,0,0,0,0,5.8,5.61,5.61,0,0,0,1.2,2,5.67,5.67,0,0,0,1.8,1.2,5.38,5.38,0,0,0,2.2.4,5.38,5.38,0,0,0,2.2-.4,4.39,4.39,0,0,0,1.8-1.2,5.61,5.61,0,0,0,1.2-2A11.93,11.93,0,0,0,36.3,177Z"/><path d="M49.4,178.7c-1.8-1.9-3.5-3.8-5.3-5.6V184H42.7a5.64,5.64,0,0,0,.1-.7c0-.4.1-.8.1-1.3s.1-1.1.1-1.6.1-1.2.1-1.8v-6.5A12.17,12.17,0,0,0,43,170h.3c.8.9,1.7,1.8,2.6,2.9s1.9,2,2.8,3,1.8,1.9,2.6,2.8,1.6,1.6,2.2,2.3v-7.1c0-1.3-.1-2.6-.1-3.8a2,2,0,0,0,.7.1,1.27,1.27,0,0,0,.6-.1c0,.3-.1.7-.1,1.3s-.1,1.2-.1,1.9-.1,1.3-.1,2v8.9h-.3A55.33,55.33,0,0,0,49.4,178.7Z"/><path d="M60.5,172.6c0-.9-.1-1.7-.1-2.6a10.87,10.87,0,0,1,1.8.1h3.6a10.87,10.87,0,0,0,1.8-.1c0,.2-.1.4-.1.6a1.27,1.27,0,0,0,.1.6c-.4,0-.8-.1-1.2-.1s-.7-.1-1.1-.1-.8-.1-1.3-.1H62.3V176h1.6a5.28,5.28,0,0,0,1.3-.1,3.75,3.75,0,0,0,1.1-.1,2.77,2.77,0,0,0,.9-.1c0,.2-.1.4-.1.6a1.27,1.27,0,0,0,.1.6c-.4,0-.8-.1-1.2-.1a6.6,6.6,0,0,1-1.4-.1H62.3v5.9h2.9a6.15,6.15,0,0,0,1.4-.1,3.6,3.6,0,0,0,1.1-.2.37.37,0,0,1-.1.3v.3a.75.75,0,0,0,.1.5H60.5c0-.9.1-1.7.1-2.6s.1-1.7.1-2.6v-3.5C60.6,174.4,60.6,173.5,60.5,172.6Z"/><path d="M86.5,178.7c-1.8-1.9-3.5-3.8-5.3-5.6V184H79.8a5.64,5.64,0,0,0,.1-.7c0-.4.1-.8.1-1.3s.1-1.1.1-1.6.1-1.2.1-1.8v-6.5a12.17,12.17,0,0,0-.1-2.1h.3c.8.9,1.7,1.8,2.6,2.9s1.9,2,2.8,3,1.8,1.9,2.6,2.8,1.6,1.6,2.2,2.3v-7.1c0-1.3-.1-2.6-.1-3.8a2,2,0,0,0,.7.1,1.27,1.27,0,0,0,.6-.1c0,.3-.1.7-.1,1.3s-.1,1.2-.1,1.9-.1,1.3-.1,2v8.9h-.3A55.32,55.32,0,0,0,86.5,178.7Z"/><path d="M96.6,177a7.79,7.79,0,0,1,.6-3.1,6.34,6.34,0,0,1,1.6-2.3,7.22,7.22,0,0,1,2.4-1.4,9.59,9.59,0,0,1,3.1-.5,10.59,10.59,0,0,1,3.1.5,7.22,7.22,0,0,1,2.4,1.4,6.34,6.34,0,0,1,1.6,2.3,8.31,8.31,0,0,1,0,6.2,6.34,6.34,0,0,1-1.6,2.3,7.22,7.22,0,0,1-2.4,1.4,10.07,10.07,0,0,1-3.1.5,10.59,10.59,0,0,1-3.1-.5,7.22,7.22,0,0,1-2.4-1.4,6.34,6.34,0,0,1-1.6-2.3A6.16,6.16,0,0,1,96.6,177Zm13.1,0a8.47,8.47,0,0,0-.4-2.9,5.61,5.61,0,0,0-1.2-2,5.67,5.67,0,0,0-1.8-1.2,6.25,6.25,0,0,0-4.4,0,4.39,4.39,0,0,0-1.8,1.2,5.61,5.61,0,0,0-1.2,2,10.71,10.71,0,0,0,0,5.8,5.61,5.61,0,0,0,1.2,2,5.67,5.67,0,0,0,1.8,1.2,6.25,6.25,0,0,0,4.4,0,4.39,4.39,0,0,0,1.8-1.2,5.61,5.61,0,0,0,1.2-2A8.47,8.47,0,0,0,109.7,177Z"/><path d="M120.4,183.9c-.3-.8-.7-1.8-1.1-2.9s-.9-2.3-1.4-3.5-1-2.5-1.6-3.8-1-2.5-1.5-3.7a.75.75,0,0,1,.5.1h1a.75.75,0,0,0,.5-.1c.3.9.6,1.8,1,2.8s.7,2,1.1,3,.8,2,1.2,3.1a28.8,28.8,0,0,0,1.3,3.1,14.17,14.17,0,0,1,.8-1.8l.9-2.1c.3-.7.6-1.5.9-2.2s.6-1.5.8-2.2.5-1.4.7-2a14.24,14.24,0,0,0,.5-1.6,2,2,0,0,0,.7.1,1.7,1.7,0,0,0,.7-.1c-1.1,2.3-2.1,4.7-3,7s-1.9,4.6-2.8,6.9h-.7A.75.75,0,0,0,120.4,183.9Z"/><path d="M142.9,183.9h-2a7.6,7.6,0,0,0-.4-1.1c-.2-.4-.3-.9-.5-1.4l-.6-1.5c-.2-.5-.4-1-.6-1.4h-5q-.6,1.65-1.2,3a16.79,16.79,0,0,0-.8,2.4h-1.4c1.1-2.4,2.2-4.7,3.2-7s2.1-4.7,3.1-7.1h.4c.3.8.7,1.6,1,2.5s.8,1.8,1.2,2.8.8,1.9,1.2,2.8.8,1.8,1.1,2.6.7,1.5.9,2.1A4,4,0,0,0,142.9,183.9Zm-8.9-6.3h4.4l-2.2-5.1Z"/><path d="M154.5,183.9c0-.8.1-1.7.1-2.5v-8.7c0-.9-.1-1.7-.1-2.6a.9.9,0,0,1,.5.1h1a.9.9,0,0,0,.5-.1c0,.9-.1,1.8-.1,2.6s-.1,1.7-.1,2.6v1.1c0,.1,0,.2.1.2s.1-.1.3-.2a19.2,19.2,0,0,0,1.5-1.4l1.6-1.6c.5-.6,1-1.1,1.6-1.7s1-1.1,1.5-1.7a.6.6,0,0,1,.4.1h.9a.9.9,0,0,0,.5-.1c-.5.4-1,.9-1.6,1.4s-1.2,1.1-1.8,1.7l-1.7,1.7c-.5.6-1,1-1.4,1.5,1.1,1.2,2.2,2.5,3.3,3.7s2.2,2.6,3.4,3.8h-2.4c-.5-.6-1-1.2-1.6-1.9s-1.2-1.4-1.7-2.1-1.1-1.3-1.5-1.8-.8-.9-1-1.1l-.2-.2c-.1,0-.1,0-.1.1v1.8a21.75,21.75,0,0,0,.1,2.6c0,.9.1,1.7.1,2.5h-1C155.2,183.7,154.8,183.9,154.5,183.9Z"/><path d="M168.8,172.7c0-.9-.1-1.7-.1-2.6a.9.9,0,0,1,.5.1h1a.9.9,0,0,0,.5-.1c0,.9-.1,1.8-.1,2.6s-.1,1.7-.1,2.6v3.5a21.75,21.75,0,0,0,.1,2.6c0,.9.1,1.7.1,2.5h-2c0-.8.1-1.7.1-2.5v-6.1A11.3,11.3,0,0,0,168.8,172.7Z"/><path d="M182.8,178.7c-1.8-1.9-3.5-3.8-5.3-5.6V184h-1.4a5.64,5.64,0,0,0,.1-.7c0-.4.1-.8.1-1.3s.1-1.1.1-1.6.1-1.2.1-1.8a9.15,9.15,0,0,1,.1-1.7v-4.8a12.17,12.17,0,0,0-.1-2.1h.3c.8.9,1.7,1.8,2.6,2.9s1.9,2,2.8,3,1.8,1.9,2.6,2.8,1.6,1.6,2.2,2.3v-7.1c0-1.3-.1-2.6-.1-3.8a2,2,0,0,0,.7.1,1.27,1.27,0,0,0,.6-.1c0,.3-.1.7-.1,1.3s-.1,1.2-.1,1.9-.1,1.3-.1,2v8.9h-.3C186.2,182.4,184.6,180.6,182.8,178.7Z"/><path d="M194,175.3v-2.6c0-.9-.1-1.7-.1-2.6a7.57,7.57,0,0,1,1.5.1h1.5a7.57,7.57,0,0,0,1.5-.1h1.5a8.53,8.53,0,0,1,3,.5,7.43,7.43,0,0,1,2.1,1.3,7.19,7.19,0,0,1,1.2,2.1,11.8,11.8,0,0,1,.4,2.8,7.12,7.12,0,0,1-.7,3.4,6.66,6.66,0,0,1-1.8,2.2,5.45,5.45,0,0,1-2.4,1.2,11.78,11.78,0,0,1-2.5.4h-5.6c0-.8.1-1.7.1-2.5v-6.2Zm1.7,3.5c0,1.5,0,2.9.1,4.3.3.1.7.1,1.2.2s1,.1,1.5.1a8.33,8.33,0,0,0,2.2-.3,5.38,5.38,0,0,0,2-1,4.26,4.26,0,0,0,1.4-2,7.48,7.48,0,0,0,.6-3.3,8.12,8.12,0,0,0-.4-2.9,4.07,4.07,0,0,0-1.2-1.8,5.08,5.08,0,0,0-1.8-.9,8.52,8.52,0,0,0-2.3-.3,9.15,9.15,0,0,0-1.7.1c-.5,0-1,.1-1.4.1,0,.6-.1,1.3-.1,2v5.7Z"/></svg>