<?xml version="1.0" encoding="utf-8"?>
<!-- Generator: Adobe Illustrator 21.1.0, SVG Export Plug-In . SVG Version: 6.00 Build 0)  -->
<svg version="1.1" id="レイヤー_1" xmlns="http://www.w3.org/2000/svg" xmlns:xlink="http://www.w3.org/1999/xlink" x="0px"
	 y="0px" viewBox="0 0 345.7 346.2" style="enable-background:new 0 0 345.7 346.2;" xml:space="preserve">
<style type="text/css">
	.st0{clip-path:url(#SVGID_2_);}
</style>
<g>
	<g>
		<defs>
			<circle id="SVGID_1_" cx="172.9" cy="173.1" r="172.9"/>
		</defs>
		<clipPath id="SVGID_2_">
			<use xlink:href="#SVGID_1_"  style="overflow:visible;"/>
		</clipPath>
		<g class="st0">
			<g>
				<g id="XMLID_6_">
					<g>
						<path d="M227.1,168.5L227.1,168.5c-0.5,0.1-1.1,0.1-1.6,0C225.9,168.5,226.4,168.5,227.1,168.5z"/>
						<path d="M227.1,168.6V346h-54.2V227.4v-54.2v-4.6c13.3,0,12.1,0.1,27,0.1c14.2,0,15.8-0.1,25.5-0.1
							C225.9,168.6,226.5,168.6,227.1,168.6z"/>
						<path d="M172.9,114.5c0,29.5,23.4,53.3,52.5,54.1c-9.7,0-11.3,0.1-25.5,0.1c-14.9,0-13.7-0.1-27-0.1V114.5z"/>
						<path d="M172.9,168.5v4.6c-12.8,0-12.1,0.1-27.1,0.1c-14.9,0-10.4-0.1-27-0.1V0.3h54.2v114.2V168.5z"/>
						<path d="M172.9,173.1v54.2c0-29.9-24.3-54.2-54.2-54.2v-0.1c16.6,0,12.1,0.1,27,0.1C160.8,173.2,160.1,173.1,172.9,173.1z"/>
					</g>
					<g>
					</g>
				</g>
			</g>
		</g>
		<rect x="118.7" y="134.5" class="st0" width="54.2" height="38.6"/>
		<rect x="172.9" y="168.5" class="st0" width="54.2" height="38.6"/>
	</g>
</g>
</svg>
