<?xml version="1.0" encoding="utf-8"?>
<!-- Generator: Adobe Illustrator 21.1.0, SVG Export Plug-In . SVG Version: 6.00 Build 0)  -->
<svg version="1.1" id="レイヤー_1" xmlns="http://www.w3.org/2000/svg" xmlns:xlink="http://www.w3.org/1999/xlink" x="0px"
	 y="0px" viewBox="0 0 300.5 209.7" style="enable-background:new 0 0 300.5 209.7;" xml:space="preserve">
<style type="text/css">
	.st0{fill:#3BA8AA;}
</style>
<g>
	<path class="st0" d="M150.3,166.5c-10.8,0.1-20.9,1.1-31,2.7c-13.2,2.1-26.2,5.1-39.1,8.7c-7.9,2.2-15.5,5.2-23.1,8.1
		c-16.9,6.5-33.4,13.7-49.5,21.9c-1.5,0.8-3.1,1.6-4.9,1.7c-2.3,0.2-3.1-0.7-2.4-3c0.5-1.9,1.7-3.5,2.8-5
		c6.4-9.2,12.9-18.3,19.3-27.5c39.4-56,78.8-111.9,118.1-167.9c0.8-1.2,1.7-2.3,2.7-3.3c4.2-3.9,9.8-4,14.1-0.1c1,0.9,1.8,2,2.6,3.1
		c36.5,51.6,73,103.3,109.4,154.9c9.4,13.2,18.7,26.5,28.1,39.7c0.9,1.2,1.7,2.4,2.3,3.8c0.4,0.8,0.7,1.7,0.8,2.6
		c0.1,1.1-0.5,1.8-1.7,2c-1.1,0.1-2-0.2-3-0.5c-1.7-0.5-3.2-1.4-4.7-2.2c-18.4-9-37.3-17-56.7-23.8c-8.6-3-17.5-5.2-26.3-7.4
		c-10.9-2.7-21.9-5-33.1-6.5C166.6,167.2,158.2,166.5,150.3,166.5z M298.8,205.9c0-0.5-0.2-0.9-0.5-1.2c-0.6-0.7-1.2-1.3-1.8-2
		c-38-41.4-75.9-82.7-113.9-124.1c-7.4-8.1-14.8-16.1-22.2-24.2c-6.3-6.8-15.6-6.7-21.9,0.1c-1.3,1.4-2.6,2.9-3.9,4.3
		C90.8,107.3,47,155.9,3.2,204.5c-0.3,0.3-0.6,0.7-0.9,1c-0.5,0.6-0.7,1.2-0.1,1.9c0.5,0.6,1.2,0.7,2,0.1c0.8-0.6,1.5-1.2,2.3-1.8
		c13.3-10.5,26.6-21.1,40.5-30.9c8.3-5.9,17-11.3,25.7-16.8c21-13.4,41.9-26.9,62.8-40.4c1.5-0.9,2.9-1.8,4.6-2.4
		c8.5-2.8,16.6-2.4,24.2,2.6c14.3,9.2,28.6,18.5,43,27.7c7.2,4.7,14.4,9.5,21.8,13.9c8.1,4.9,16.2,9.8,24,15.1
		c14.3,9.7,28,20.3,41.6,31.1c0.6,0.5,1.2,1,1.9,1.4C297.5,207.6,298.7,207,298.8,205.9z"/>
</g>
</svg>
