<?xml version="1.0" encoding="utf-8"?>
<!-- Generator: Adobe Illustrator 21.1.0, SVG Export Plug-In . SVG Version: 6.00 Build 0)  -->
<svg version="1.1" id="レイヤー_1" xmlns="http://www.w3.org/2000/svg" xmlns:xlink="http://www.w3.org/1999/xlink" x="0px"
	 y="0px" viewBox="0 0 595.3 505.3" style="enable-background:new 0 0 595.3 505.3;" xml:space="preserve">
<style type="text/css">
	.st0{fill:#FFFFFF;}
	.st1{fill:#3BA8AA;}
	.st2{fill:#3AB0B3;}
</style>
<g>
	<rect x="0.6" class="st0" width="593.7" height="505.3"/>
	<g>
		<path class="st1" d="M297.5,250.7c-10.8,0.1-20.9,1.1-31,2.7c-13.2,2.1-26.2,5.1-39.1,8.7c-7.9,2.2-15.5,5.2-23.1,8.1
			c-16.9,6.5-33.4,13.7-49.5,21.9c-1.5,0.8-3.1,1.6-4.9,1.7c-2.3,0.2-3.1-0.7-2.4-3c0.5-1.9,1.7-3.5,2.8-5
			c6.4-9.2,12.9-18.3,19.3-27.5c39.4-56,78.8-111.9,118.1-167.9c0.8-1.2,1.7-2.3,2.7-3.3c4.2-3.9,9.8-4,14.1-0.1
			c1,0.9,1.8,2,2.6,3.1c36.5,51.6,73,103.3,109.4,154.9c9.4,13.2,18.7,26.5,28.1,39.7c0.9,1.2,1.7,2.4,2.3,3.8
			c0.4,0.8,0.7,1.7,0.8,2.6c0.1,1.1-0.5,1.8-1.7,2c-1.1,0.1-2-0.2-3-0.5c-1.7-0.5-3.2-1.4-4.7-2.2c-18.4-9-37.3-17-56.7-23.8
			c-8.6-3-17.5-5.2-26.3-7.4c-10.9-2.7-21.9-5-33.1-6.5C313.8,251.4,305.4,250.8,297.5,250.7z M446,290.1c0-0.5-0.2-0.9-0.5-1.2
			c-0.6-0.7-1.2-1.3-1.8-2c-38-41.4-75.9-82.7-113.9-124.1c-7.4-8.1-14.8-16.1-22.2-24.2c-6.3-6.8-15.6-6.7-21.9,0.1
			c-1.3,1.4-2.6,2.9-3.9,4.3c-43.8,48.6-87.6,97.2-131.4,145.8c-0.3,0.3-0.6,0.7-0.9,1c-0.5,0.6-0.7,1.2-0.1,1.9
			c0.5,0.6,1.2,0.7,2,0.1c0.8-0.6,1.5-1.2,2.3-1.8c13.3-10.5,26.6-21.1,40.5-30.9c8.3-5.9,17-11.3,25.7-16.8
			c21-13.4,41.9-26.9,62.8-40.4c1.5-0.9,2.9-1.8,4.6-2.4c8.5-2.8,16.6-2.4,24.2,2.6c14.3,9.2,28.6,18.5,43,27.7
			c7.2,4.7,14.4,9.5,21.8,13.9c8.1,4.9,16.2,9.8,24,15.1c14.3,9.7,28,20.3,41.6,31.1c0.6,0.5,1.2,1,1.9,1.4
			C444.7,291.8,445.9,291.2,446,290.1z"/>
	</g>
	
		<ellipse transform="matrix(0.7071 -0.7071 0.7071 0.7071 -166.2946 191.5101)" class="st0" cx="148" cy="296.5" rx="1.8" ry="1.3"/>
	<polygon class="st0" points="147.1,295.6 148.7,293.9 150.6,296.1 148.7,297.6 	"/>
	
		<ellipse transform="matrix(0.6795 -0.7337 0.7337 0.6795 -74.7884 419.965)" class="st0" cx="443.3" cy="295.6" rx="1.4" ry="1.9"/>
	<polyline class="st0" points="442.7,296.9 441.7,296.2 443.9,294.1 444.5,294.9 	"/>
	<g>
		<path class="st2" d="M99.5,420.1c0.2-3.3,0.3-6.7,0.4-10.1c0.1-3.4,0.2-6.9,0.2-10.5v-13.8c0-3.5-0.1-7-0.2-10.4
			c-0.1-3.4-0.3-6.9-0.4-10.4c0.7,0.1,1.4,0.2,2,0.3c0.6,0.1,1.3,0.1,1.9,0.1c0.6,0,1.3,0,1.9-0.1c0.6-0.1,1.3-0.2,2-0.3
			c-0.2,3.5-0.3,7-0.4,10.4c-0.1,3.4-0.2,6.9-0.2,10.4v4.4c0,0.4,0.2,0.6,0.5,0.6c0.2,0,0.6-0.2,1.1-0.7c1.9-1.6,3.8-3.4,5.9-5.5
			c2.1-2,4.1-4.2,6.2-6.4c2.1-2.2,4.2-4.4,6.2-6.7c2-2.3,4-4.5,5.9-6.6c0.6,0.1,1.2,0.2,1.7,0.3c0.5,0.1,1.1,0.1,1.6,0.1
			c0.6,0,1.3,0,1.9-0.1c0.6-0.1,1.3-0.2,1.9-0.3c-1.9,1.6-4,3.5-6.4,5.7c-2.4,2.2-4.7,4.5-7.1,6.8c-2.4,2.3-4.7,4.6-6.8,6.8
			c-2.2,2.2-4,4.2-5.4,5.8c4.3,4.9,8.7,9.9,13.1,14.9c4.4,5.1,8.9,10.1,13.5,15.2c-0.8-0.1-1.6-0.2-2.4-0.2s-1.6,0-2.4,0
			c-0.8,0-1.5,0-2.2,0c-0.7,0-1.5,0.1-2.2,0.2c-1.9-2.2-4.1-4.7-6.4-7.6c-2.3-2.8-4.6-5.6-6.8-8.2c-2.2-2.7-4.2-5-6-7.2
			c-1.8-2.1-3.1-3.6-4-4.5c-0.4-0.4-0.8-0.6-1-0.6c-0.3,0-0.4,0.2-0.4,0.5v7c0,3.5,0.1,7,0.2,10.5c0.1,3.4,0.3,6.8,0.4,10.1
			c-1.2-0.1-2.5-0.2-3.9-0.2C102.1,419.9,100.8,419.9,99.5,420.1z"/>
		<path class="st2" d="M149.3,385.6c0-3.5-0.1-7-0.2-10.4c-0.1-3.4-0.3-6.9-0.4-10.4c1.3,0.1,2.6,0.2,3.9,0.3
			c1.3,0.1,2.6,0.1,3.9,0.1c0.6,0,1.4,0,2.3-0.1c0.9-0.1,1.8-0.1,2.8-0.1c0.9,0,1.8-0.1,2.7-0.1c0.9-0.1,1.6-0.1,2.2-0.1
			c0.8,0,1.8,0,3,0.1c1.2,0.1,2.4,0.2,3.7,0.5c1.3,0.3,2.6,0.7,3.9,1.2c1.3,0.5,2.5,1.3,3.5,2.3c1,1,1.9,2.3,2.5,3.8
			c0.6,1.5,1,3.4,1,5.7c0,3.5-0.8,6.4-2.3,8.6c-1.5,2.2-3.4,3.9-5.6,5.1c-2.2,1.2-4.6,2.1-7.1,2.5c-2.5,0.4-4.7,0.6-6.6,0.6
			c-1.2,0-2.4,0-3.4,0c-1,0-2.1-0.1-3.1-0.2v4.4c0,3.5,0.1,7,0.2,10.5c0.1,3.4,0.3,6.8,0.4,10.1c-1.2-0.1-2.5-0.2-3.9-0.2
			c-1.4,0-2.7,0.1-3.9,0.2c0.2-3.3,0.3-6.7,0.4-10.1c0.1-3.4,0.2-6.9,0.2-10.5V385.6z M155.9,391.7c1.8,0.4,3.7,0.6,5.7,0.6
			c1.7,0,3.4-0.2,5.1-0.6c1.8-0.4,3.4-1.1,4.9-2.1c1.5-1,2.7-2.4,3.6-4.1c0.9-1.7,1.4-4,1.4-6.7c0-2.3-0.3-4.2-1-5.6
			c-0.6-1.4-1.5-2.6-2.7-3.4c-1.2-0.8-2.6-1.4-4.2-1.6c-1.7-0.3-3.5-0.4-5.6-0.4h-7.2V391.7z"/>
		<path class="st2" d="M216.2,375.2c-0.1-3.4-0.3-6.9-0.4-10.4c2.4,0.1,4.8,0.2,7.2,0.3c2.4,0.1,4.8,0.1,7.2,0.1
			c2.4,0,4.9,0,7.3-0.1c2.5-0.1,5.1-0.2,8-0.3c-0.2,0.8-0.2,1.6-0.2,2.4s0.1,1.6,0.2,2.4c-1.4-0.2-3.2-0.3-5.2-0.4
			c-2-0.1-4.1-0.2-6.2-0.3c-2.1-0.1-4.2-0.1-6.1-0.2c-2-0.1-3.6-0.1-4.9-0.1c-0.1,1.9-0.1,3.7-0.1,5.4c0,1.7,0,3.4,0,5.1
			c0,1.9,0,3.6,0,5.2c0,1.6,0,3.2,0,4.9c3.5,0,7-0.1,10.5-0.2c3.5-0.1,6.9-0.3,10.3-0.6c-0.2,0.8-0.3,1.6-0.3,2.4s0.1,1.6,0.3,2.4
			c-1.3-0.2-2.9-0.3-4.5-0.4c-1.7-0.1-3.4-0.1-5.3-0.2c-1.8-0.1-3.7-0.1-5.5-0.1c-1.9,0-3.7,0-5.4,0v6.8c0,3.5,0.1,7,0.2,10.5
			c0.1,3.4,0.3,6.8,0.4,10.1c-1.2-0.1-2.5-0.2-3.9-0.2c-1.4,0-2.7,0.1-3.9,0.2c0.2-3.3,0.3-6.7,0.4-10.1c0.1-3.4,0.2-6.9,0.2-10.5
			v-13.8C216.4,382.1,216.3,378.6,216.2,375.2z"/>
		<path class="st2" d="M256.4,375.2c-0.1-3.4-0.3-6.9-0.4-10.4c0.7,0.1,1.4,0.2,2,0.3c0.6,0.1,1.3,0.1,1.9,0.1c0.6,0,1.3,0,1.9-0.1
			c0.6-0.1,1.3-0.2,2-0.3c-0.2,3.5-0.3,7-0.4,10.4c-0.1,3.4-0.2,6.9-0.2,10.4v13.8c0,3.5,0.1,7,0.2,10.5c0.1,3.4,0.3,6.8,0.4,10.1
			c-1.2-0.1-2.5-0.2-3.9-0.2c-1.4,0-2.7,0.1-3.9,0.2c0.2-3.3,0.3-6.7,0.4-10.1c0.1-3.4,0.2-6.9,0.2-10.5v-13.8
			C256.6,382.1,256.5,378.6,256.4,375.2z"/>
		<path class="st2" d="M289.9,369c-1.4,0-2.9,0-4.4,0c-1.5,0-3.1,0.1-4.6,0.2c-1.5,0.1-3,0.2-4.4,0.3c-1.4,0.1-2.7,0.2-3.8,0.4
			c0.3-1,0.4-1.8,0.4-2.6c0-0.6-0.1-1.4-0.4-2.5c3.5,0.1,7,0.2,10.4,0.3c3.4,0.1,6.8,0.1,10.4,0.1c3.5,0,7,0,10.4-0.1
			c3.4-0.1,6.8-0.2,10.4-0.3c-0.3,1.1-0.4,1.9-0.4,2.6c0,0.7,0.1,1.5,0.4,2.5c-1.1-0.2-2.4-0.3-3.8-0.4c-1.4-0.1-2.9-0.2-4.4-0.3
			c-1.5-0.1-3.1-0.1-4.6-0.2c-1.5,0-3,0-4.4,0c-0.2,5.5-0.2,11.1-0.2,16.6v13.8c0,3.5,0.1,7,0.2,10.5c0.1,3.4,0.3,6.8,0.4,10.1
			c-1.2-0.1-2.5-0.2-3.9-0.2c-1.4,0-2.7,0.1-3.9,0.2c0.2-3.3,0.3-6.7,0.4-10.1c0.1-3.4,0.2-6.9,0.2-10.5v-13.8
			C290.1,380.1,290.1,374.5,289.9,369z"/>
		<path class="st2" d="M349.2,399.2c-7-7.5-13.9-14.9-20.9-22.3c-0.1,1.5-0.1,3.5-0.2,6c-0.1,2.5-0.1,6-0.1,10.3c0,1.1,0,2.5,0,4.2
			c0,1.7,0.1,3.4,0.1,5.2c0,1.8,0.1,3.7,0.1,5.5c0.1,1.9,0.1,3.6,0.2,5.2s0.1,3,0.2,4.2c0.1,1.2,0.1,2,0.2,2.5
			c-0.9-0.1-1.8-0.2-2.8-0.2c-1.1,0-2.1,0.1-3,0.2c0.1-0.5,0.2-1.5,0.4-3c0.1-1.4,0.3-3.2,0.4-5.2c0.1-2,0.2-4.2,0.4-6.6
			c0.1-2.4,0.2-4.7,0.3-7.1c0.1-2.4,0.1-4.7,0.2-6.9c0.1-2.3,0.1-4.3,0.1-6c0-5.1,0-9.6,0-13.3c0-3.7-0.1-6.5-0.2-8.3h1.3
			c3.3,3.5,6.8,7.3,10.5,11.4c3.7,4,7.4,8,11.1,12c3.7,3.9,7.2,7.7,10.5,11.2c3.3,3.5,6.2,6.5,8.6,9v-10.9c0-5.6,0-11.1-0.1-16.4
			c-0.1-5.3-0.3-10.4-0.5-15.1c1.1,0.3,2,0.4,2.7,0.4c0.6,0,1.5-0.1,2.6-0.4c-0.1,1.2-0.2,2.9-0.4,5.3c-0.1,2.4-0.3,4.9-0.4,7.6
			c-0.1,2.7-0.3,5.3-0.4,7.9c-0.1,2.6-0.2,4.6-0.2,6.2c0,1.3,0,2.9,0,4.8c0,1.8,0,3.7,0,5.7c0,2,0.1,4,0.1,6c0,2,0.1,3.9,0.1,5.6
			c0,1.7,0,3.3,0,4.5c0,1.2,0,2.1,0,2.7h-1.1C362.8,414,356.2,406.7,349.2,399.2z"/>
		<path class="st2" d="M386,375.1c-0.1-3.4-0.3-6.9-0.4-10.3c2.4,0.1,4.8,0.2,7.2,0.3c2.4,0.1,4.8,0.1,7.2,0.1s4.8,0,7.2-0.1
			c2.4-0.1,4.7-0.2,7.2-0.3c-0.2,0.8-0.2,1.6-0.2,2.4s0.1,1.6,0.2,2.4c-1.7-0.1-3.3-0.2-4.7-0.3c-1.4-0.1-2.9-0.2-4.5-0.3
			c-1.6-0.1-3.3-0.2-5.2-0.3c-1.9-0.1-4.1-0.1-6.8-0.1c-0.1,1.7-0.1,3.4-0.2,4.9c-0.1,1.6-0.1,3.3-0.1,5.3c0,2.1,0,4.1,0,6.1
			c0,2,0,3.5,0,4.5c2.4,0,4.5,0,6.4-0.1c1.9-0.1,3.6-0.1,5.1-0.2c1.6-0.1,3-0.2,4.3-0.2c1.3-0.1,2.6-0.2,3.7-0.3
			c-0.2,0.8-0.2,1.6-0.2,2.5c0,0.8,0.1,1.6,0.2,2.4c-1.4-0.2-3-0.3-4.9-0.4c-1.9-0.1-3.7-0.2-5.5-0.2c-1.8,0-3.6-0.1-5.2-0.1
			c-1.6,0-2.9,0-3.9,0c0,0.5,0,1,0,1.6c0,0.6,0,1.3,0,2.1v3.1v4.8c0,3.1,0,5.6,0,7.6c0,2,0.1,3.5,0.1,4.5c1.8,0,3.6,0,5.6,0
			c2,0,4,0,6-0.1c2-0.1,3.8-0.2,5.5-0.3c1.7-0.1,3.3-0.3,4.5-0.6c-0.1,0.4-0.2,0.8-0.2,1.2c0,0.5,0,0.9,0,1.2c0,0.9,0.1,1.6,0.2,2.1
			c-2.4-0.1-4.8-0.2-7.2-0.2c-2.4,0-4.8,0-7.3,0c-2.5,0-4.9,0-7.3,0c-2.4,0-4.9,0.1-7.3,0.2c0.2-3.4,0.3-6.8,0.4-10.3
			c0.1-3.4,0.2-6.9,0.2-10.4v-13.8C386.2,382,386.2,378.5,386,375.1z"/>
		<path class="st2" d="M426.4,412.5c0.7,1,1.6,1.9,2.7,2.7c1,0.8,2.3,1.5,3.7,2c1.4,0.5,2.9,0.8,4.7,0.8c1.8,0,3.4-0.3,4.8-0.9
			c1.4-0.6,2.6-1.4,3.6-2.5c1-1,1.8-2.3,2.3-3.7c0.5-1.4,0.8-2.9,0.8-4.5c0-2.5-0.6-4.4-1.9-5.9c-1.3-1.4-2.8-2.7-4.7-3.6
			c-1.9-1-3.9-1.8-6.1-2.7c-2.2-0.8-4.2-1.8-6.1-3c-1.9-1.2-3.4-2.7-4.7-4.6c-1.3-1.9-1.9-4.4-1.9-7.6c0-2.3,0.4-4.3,1.2-6.2
			c0.8-1.8,2-3.4,3.5-4.8c1.5-1.3,3.4-2.4,5.5-3.1c2.1-0.8,4.6-1.1,7.2-1.1c2.6,0,4.8,0.3,6.7,0.9c1.9,0.6,3.6,1.6,5.2,2.9
			c-0.5,0.9-0.9,1.9-1.2,2.9c-0.3,1-0.6,2.3-1,3.9h-1c-0.3-0.8-0.6-1.6-1.1-2.5c-0.5-0.9-1.1-1.7-1.8-2.5c-0.8-0.8-1.7-1.4-2.8-1.9
			c-1.1-0.5-2.4-0.8-3.9-0.8c-1.5,0-2.9,0.2-4.1,0.7c-1.3,0.5-2.4,1.2-3.3,2.1c-0.9,0.9-1.7,1.9-2.2,3.2c-0.5,1.2-0.8,2.6-0.8,4
			c0,2.5,0.6,4.5,1.9,6c1.3,1.4,2.8,2.7,4.7,3.7c1.9,1,3.9,1.9,6.1,2.7c2.2,0.8,4.2,1.7,6.1,2.9c1.9,1.1,3.4,2.6,4.7,4.3
			c1.3,1.8,1.9,4.1,1.9,7.1c0,2.5-0.4,4.8-1.3,7c-0.9,2.2-2.2,4.1-3.9,5.8c-1.7,1.6-3.8,2.9-6.2,3.8c-2.4,0.9-5.2,1.3-8.3,1.3
			c-3.3,0-6-0.4-8.1-1.3c-2.1-0.9-3.8-1.9-5.2-3c0.5-1.2,0.8-2.3,1-3.3c0.2-1,0.4-2.3,0.5-3.8h1
			C425.1,410.6,425.7,411.5,426.4,412.5z"/>
		<path class="st2" d="M466.6,412.5c0.7,1,1.6,1.9,2.7,2.7c1,0.8,2.3,1.5,3.7,2c1.4,0.5,2.9,0.8,4.7,0.8c1.8,0,3.4-0.3,4.8-0.9
			c1.4-0.6,2.6-1.4,3.6-2.5c1-1,1.8-2.3,2.3-3.7c0.5-1.4,0.8-2.9,0.8-4.5c0-2.5-0.6-4.4-1.9-5.9c-1.3-1.4-2.8-2.7-4.7-3.6
			c-1.9-1-3.9-1.8-6.1-2.7c-2.2-0.8-4.2-1.8-6.1-3c-1.9-1.2-3.4-2.7-4.7-4.6c-1.3-1.9-1.9-4.4-1.9-7.6c0-2.3,0.4-4.3,1.2-6.2
			c0.8-1.8,2-3.4,3.5-4.8c1.5-1.3,3.4-2.4,5.5-3.1c2.1-0.8,4.6-1.1,7.2-1.1c2.6,0,4.8,0.3,6.7,0.9c1.9,0.6,3.6,1.6,5.2,2.9
			c-0.5,0.9-0.9,1.9-1.2,2.9c-0.3,1-0.6,2.3-1,3.9h-1c-0.3-0.8-0.6-1.6-1.1-2.5c-0.5-0.9-1.1-1.7-1.8-2.5c-0.8-0.8-1.7-1.4-2.8-1.9
			c-1.1-0.5-2.4-0.8-3.9-0.8c-1.5,0-2.9,0.2-4.1,0.7c-1.3,0.5-2.4,1.2-3.3,2.1c-0.9,0.9-1.7,1.9-2.2,3.2c-0.5,1.2-0.8,2.6-0.8,4
			c0,2.5,0.6,4.5,1.9,6c1.3,1.4,2.8,2.7,4.7,3.7c1.9,1,3.9,1.9,6.1,2.7c2.2,0.8,4.2,1.7,6.1,2.9c1.9,1.1,3.4,2.6,4.7,4.3
			c1.3,1.8,1.9,4.1,1.9,7.1c0,2.5-0.4,4.8-1.3,7c-0.9,2.2-2.2,4.1-3.9,5.8c-1.7,1.6-3.8,2.9-6.2,3.8c-2.4,0.9-5.2,1.3-8.3,1.3
			c-3.3,0-6-0.4-8.1-1.3c-2.1-0.9-3.8-1.9-5.2-3c0.5-1.2,0.8-2.3,1-3.3c0.2-1,0.4-2.3,0.5-3.8h1
			C465.3,410.6,465.9,411.5,466.6,412.5z"/>
	</g>
</g>
<g>
</g>
<g>
</g>
<g>
</g>
<g>
</g>
<g>
</g>
<g>
</g>
</svg>
