<?xml version="1.0" encoding="utf-8"?>
<!-- Generator: Adobe Illustrator 21.1.0, SVG Export Plug-In . SVG Version: 6.00 Build 0)  -->
<svg version="1.1" id="レイヤー_1" xmlns="http://www.w3.org/2000/svg" xmlns:xlink="http://www.w3.org/1999/xlink" x="0px"
	 y="0px" viewBox="0 0 356.1 356.1" style="enable-background:new 0 0 356.1 356.1;" xml:space="preserve">
<style type="text/css">
	.st0{fill:#3B1207;}
	.st1{fill:#FCE3B2;}
	.st2{fill:#57A697;}
	.st3{fill:#D1C4B6;}
	.st4{fill:#9D7525;}
	.st5{fill:#C0511D;}
	.st6{fill:#A07E5B;}
	.st7{fill:none;}
</style>
<g>
	<g id="XMLID_4_">
		<g>
			<path class="st0" d="M68.5,283c0.4,0.4,0.2,0.9,0.2,1.4c0.1,1.8-1.2,3.5-0.8,5.3c0.4,1.5,0.2,3-0.1,4.4c-0.2,0.8,0,1.6-0.1,2.3
				c-0.3,1.6,0.7,3,0.6,4.5c-0.3,3.8,0.8,7.4,1,11.1c0.1,1.3,1.2,2.2,1.1,3.3c-0.1,1.5,0.5,2.9,1.1,4.1c2,4.2,4.9,7.7,8.1,11.2
				c2.2,2.4,4.3,4.9,7.5,6.3c3.6,1.6,7.2,2.5,11.1,0.9c0.9-0.3,1.7,0,2.5,0.5c1.1,0.7,2.3,1.3,3.7,0.3c0.4-0.3,1.8-0.8,2.3,0
				c0.5,0.7,0.8,0.5,1.4,0.5c2.6-0.1,5.3-0.8,7.9,0.1c2.3,0.8,4.7,1.5,7.2,0.9c0.5-0.1,1,0,1.4,0.4c1.6,1.5,3.7,1.2,5.6,1.2
				c3-0.1,6-0.9,9-1c5.7-0.1,11.3-1,17,0.2c2.2,0.5,4.5,0.8,6.7,0.4c0.9-0.1,2.1,0.1,2.3-1.1c0.2-1.4,1-2.6,1.1-4
				c0.1-1.2,0.8-1.9,1.8-2.6c2.2-1.5,5.3-1.1,7.2-3.4c0,0,0.1,0,0.2,0c1.4,0.7,2.6-0.4,4-0.5c1.5-0.2,2.5-1.5,3.3-2.8
				c0.2-0.2,0.2-0.5,0.1-0.7c-0.1-0.1-0.4-0.2-0.5-0.1c-1.8,0.9-3.7-0.2-5.6,0.2c-1.7,0.3-3.4-0.8-5.2-1c-1.5-0.2-3.1-1.1-4.6-1.6
				c-2.1-0.6-4-1.6-6-2.1c-0.8-0.2-1.9-0.6-2.3-1.7c-0.1-0.3-0.6-1-1-0.7c-1.1,0.8-1.7-0.3-2.6-0.5c-0.8-0.2-0.3-1.3-1.2-1.5
				c-2.8-0.7-4.6-3.2-7.3-4.3c-0.1,0.1-0.2,0.2-0.2,0.4c-1,3.6-2.3,6.9-5,9.6c-1,1-2.1,1.9-3.1,2.8c-0.9,0.8,0.1,1.9-0.9,2.3
				c-1.1,0.4-1.5,1.4-2.1,2.2c-1.3,1.7-2.8,3.4-4.4,4.9c-0.6,0.6-2,1.8-3.1,1.1c-2.4-1.5-5.5-2.3-6.5-5.4c-0.2-0.7-0.7-1.3-1-2
				c-1.9,2.2-4.2,3.6-6.5,5.2c-2.3,1.6-5,1.9-7.2,0.7c-1.9-1-3.3-3.2-2.9-6c0.2-1.9,0.5-3.7,1.5-5.3c0.7-1.1,0.9-2.4,0.8-3.9
				c-0.7,0.4-0.8,1.2-1.5,1.3c-3.1,0.4-5.4,2.6-8,3.9c-2.4,1.2-4.9,1.5-7.4,1.1c-1.4-0.2-2.2-1.6-3.1-2.6c-1.1-1.2-1.4-3.2-0.4-4.6
				c0.9-1.2,1.6-2.4,2.2-3.7c1-2.1,3-3.1,4.6-4.6c0.5-0.5,1-1.1,0-1.4c-1.7-0.5-3.5-1-5.3-1.1c-1.8-0.1-3.4-0.5-4.9-1.5
				c-1.8-1.1-2.3-3.1-1.1-4.7c1.3-2,3.3-3.1,5.4-4.1c4.4-2.1,9.3-1.8,13.7-3.6c2.4-1,4.9-1.8,7.1-3.2c0.6-0.4,0.9-0.6,0.3-1.4
				c-1.8-2.3-4.2-3.9-6.6-5.2c-2.8-1.5-5-3.5-6.8-6c-2.4-3.2-3.6-6.4-0.9-10.1c0.3-0.3,0.4-0.8,0.5-1.2c0.7-2,2.2-2.8,4.2-2.3
				c0.6,0.2,1.2,0.2,1.8,0.3c2.3,0.4,4.7,0.2,6.6,2.1c0.4,0.4,1,0.6,1.6,0.7c1.9,0.5,3.5,1.6,5.1,2.7c0.8,0.6,0.8,1.6,1.8,2.2
				c2.7,1.9,6.1,2.5,9,2.7c4.8,0.4,9.6,1.4,14.6-0.3c3.9-1.3,7.9-2.4,11.7-3.9c1.4-0.5,2.9-0.4,4.2-1.3c2.2-1.5,4.9-1.9,7.4-2.9
				c3.3-1.4,6.6-2.8,9.5-5.1c2.1-1.6,3.6-4,6-5.2c1.8-0.9,3.5-1.9,5-3.2c0.4-0.3,1-0.6,0.8-1.1c-1.5-3.2-0.2-5.9,1.1-8.7
				c0.5-1,0.4-2.2-0.6-2.9c-1-0.8-1.1-1.8-1.5-2.8c-0.6-1.2-0.1-2.6-0.8-3.8c-1.8-2.9-4.1-5.1-6.9-7c-1.7-1.2-3.5-1.5-5.5-1.3
				c-2,0.1-4-0.4-6-0.1c-2.9,0.4-5.8-2.3-8.7,0c-0.1,0.1-0.4-0.1-0.7-0.2c-1.9-0.7-3.5,0.3-5.2,0.8c-2.1,0.7-4.2,1.3-6.4,1.4
				c-2.4,0.1-4.6,0.9-6.8,1.7c-1.1,0.4-2.5,0.4-3.2,1.5c-0.5,0.8-1.3,0.8-1.8,1.1c-1.5,1-3.4,0.7-4.9,2c-1.7,1.5-3.7,2.8-6,3.3
				c-0.7,0.2-1.6,0.3-2.1,0.8c-2,2.4-5.1,2.9-7.5,4.8c-3.1,2.4-6.2,4.7-9.6,6.6c-2.1,1.2-4.3,2.4-6.3,3.9c-2,1.5-5.1,0.2-7,2.4
				c-3-0.6-6.2-0.1-9.2-1.5c-2.2-1-3.4-3.1-5.5-4.2c-0.5-0.2-1.2-0.4-1.5-1.2c-1-2-2.6-3.5-4.1-5c-2-1.9-4.8-2.2-7.3-3.2
				c-1.4-0.5-2.9-0.7-4.2-1c-1.5-0.4-3-0.1-4.5-0.5c-0.5-0.2-1.5,0.6-2.4,0.7c-2.5,0.1-4.9,1-6.9,2.3c-1.6,1.1-3.2,2.4-3.9,4.7
				c-0.4,1.2-1.3,2.2-0.8,3.6c1.5,3.5,3.3,6.8,7.3,8.2c0.6,0.2,1.3,0.5,1.5,1c0.5,0.9,1.5,1,2.2,1.5c2.4,1.5,5.2,0.8,7.7,1.4
				c1.4,0.3,2.9,0.4,4.4,0.6c2.8,0.4,4.7,2.7,7.3,3.5c0.3,0.1,0.6,0.4,0.6,0.9c0.2,1.3,0.8,2.5,1.2,3.7c0.7,1.7,1,3.4,0.4,5.3
				c-0.6,1.9,1.5,4.2-0.7,6C68.3,282.6,68.4,282.9,68.5,283z M262.7,355.3c-0.8-2.2-2.9-1.3-4.4-1.7c-2.2-0.5-4.5-0.3-6.7-0.4
				c-3-0.1-6.1,0.5-9.1,0.7c-3.1,0.2-6.1,0.3-9.2-0.6c-2.5-0.8-5.1-1.6-7.6-1.5c-3.1,0.1-5.9-1-8.9-1c-0.2,0-0.5-0.2-0.7-0.1
				c-2,1.2-4.2,0.6-6.3,0.3c-3.5-0.5-6-2.2-8.2-5.1c-1.8-2.4-0.3-4.3,0-6.4c0.1-0.4,0.8-0.6,1.1-0.8c1.8-1.9,4.5-1.7,6.5-2.9
				c1.4-0.8,2.8-0.5,4-0.1c1.1,0.3,1.7-0.9,2.7-0.6c0.3,0.1,0.9-0.3,1.2,0c1.5,1.4,3.2,0.5,4.5-0.1c1.4-0.7,2.8-0.8,4-0.4
				c2.2,0.8,4.7,0.1,6.7,1.6c0.7,0.5,1.3,0.2,1.6-0.7c0.3-1,0.7-1.4,1.8-1.9c1.5-0.7,2.6-2.4,4.1-3.4c0.5-0.3,0.3-0.9,0.1-1.4
				c-1.4-2.7-2.3-5.6-4.2-8.1c-0.6-0.8-0.5-2.1-1.9-2.3c-0.3,0-0.3-0.6,0-0.8c0.6-0.5,0.3-1,0-1.3c-2.6-2.4-3.7-5.8-5.7-8.6
				c-1.3-1.8-2.6-3.5-4.3-4.9c-0.7-0.6-0.8-1.6-1.3-2.4c-2.5-3.7-3.6-7.9-3.7-12.4c-0.1-2.5-0.5-5.1-0.7-7.6c-0.3-3.2,0.5-6.5,2.2-9
				c1.4-2.2,3.6-4.3,6.6-5.3c3.7-1.2,7.4-2.6,9.8-6c0.8-1.1,2.6-0.9,3-2.5c1.5,1.4,2.5-1.1,4.2-0.5c1.3,0.5,3.1,0,4.6-0.3
				c1-0.1,1.9-0.3,3.2,0.3c-0.7-1.3-0.3-2.6-1.7-3.1c-0.9-0.4-0.3-1.4-0.5-2c-1.1-3.4-3-6.2-5.8-8.5c-0.1-0.1-0.4-0.2-0.5-0.3
				c-0.7-1-1.6-2.4-2.5-2.2c-1.3,0.3-2.5,1.5-3.6,2.5c-0.8,0.8-1.5,1.7-2.7,1.9c-1.1,0.3-1.2,1.6-2.1,2.3c-1.8,1.4-3.7,2.7-5.6,3.7
				c-1.9,0.9-3,3.3-5.5,3.1c-4.4,3.3-9.9,4.9-13.8,8.9c-1.9,1.9-4.3,2.6-6.5,3.7c-2.9,1.6-6.2,2.7-8.7,5.4c-2.1,2.4-5.3,3.7-8,5.4
				c-2.1,1.4-3.9,3.2-6.2,4.2c-2.9,1.3-4.9,3.8-7.3,5.7c-3.3,2.7-6.9,4.7-10.4,7c-1.6,1.1-3.2,2.2-5,3c-0.8,0.3-1.4,0.8-1.3,1.8
				c0,0.4-0.1,0.8-0.5,0.9c-2.7,0.6-2.2,3.6-3.8,5.1c-0.5,0.4-0.2,1.3,0.4,1.4c2.1,0.3,2.5,2.5,3.9,3.4c2.2,1.5,4.3,3.1,6.9,4
				c2,0.8,4,1.7,5.9,2.8c1.9,1.1,4.2,1.1,6.2,1.8c2.6,0.9,5.2,0.6,7.9,0.1c1.1-0.2,2.7,0,4.1,0.4c1.4,0.4,2.6,1.1,3.9,1.6
				c3.1,1.3,4,5.5,1.7,8c-0.6,0.6-1,1.2-1.3,2c-0.6,1.8-1.9,2.5-3.8,2.6c-0.8,0.1-1.9,0-2.5,1c-0.2,0.3-0.5,0.4-0.8,0.4
				c-2.7-0.6-4.7,1.1-6.9,2c-1.2,0.5-1.8,1.4-1.9,2.7c0,0.5-0.2,1-0.3,1.5c-0.4,3.1-1.3,4-4.3,4.3c-3.8,0.4-7.7,0.9-11.5,1
				c-2.1,0-4.2-0.8-6.3-1.3c-0.3-0.1-0.5-0.5-0.9-0.2c-1,1.1-1.9,1.4-3.5,0.9c-1.4-0.5-3.1-0.1-4.6,0.3c-1.7,0.4-3.4,0.3-5.2-0.1
				c-1-0.2-2.3,0-3.1,0.6c-1.9,1.2-3.7,0.7-5.6,0.2c-1-0.2-1.8-0.6-2.9-0.2c-0.4,0.1-1.2,0-1.7-0.4c-1.6-1.2-3.4-1.6-5.4-0.6
				c-0.9,0.5-1.6-0.6-2.5-0.9c-0.3-0.1-0.6-0.6-0.9-0.6c-2.8,0-5.7,0-8.5,0.2c-0.6,0-1,1.1-1.6,1.7c-0.7-0.9,0.5-2.1-0.3-2.2
				c-1.5-0.2-2.6-1.5-4.3-1.2c-7,1.1-13.6,0.2-19.8-3.5c-1.7-1-3.1-2.5-5.1-3c-0.4-0.1-0.4-0.6-0.6-0.9c-1.5-2.2-3-4.5-5.2-6.1
				c-0.8-0.7-1.4-1.5-1.8-2.3c-0.9-2-2.5-3.4-3.9-5c-1.4-1.6-2.5-2-4.4-2.4c-2.3-0.5-4.4,0-6.1,0.8c-2.8,1.4-5.5,1.4-8.4,1.6
				c-2.3,0.2-4.7,0.7-6.9,0.6c-1.8-0.1-3,0.8-4.6,0.9c-1.5,0.1-2.7,1.3-3.8,2.2c-1.9,1.5-4.2,2.1-6.3,3.3c-0.4,0.3-2.1-0.3-3.1-0.5
				c-0.9-0.3-1.4-1.6-1.9-2.4c-0.5-0.8,0.2-2.1,1.1-2.6c1.1-0.6,2.2-1.6,3.6-1.7c0.4,0,0.8,0,0.8-0.5c0-0.7-0.6-0.5-1-0.5
				c-2.4,0.2-4.9,0.4-7.3,0.9c-0.9,0.2-1.9,0.4-2.7,0.3c-2-0.2-3,0.8-4,2.2c-0.2,0.2-0.5,0.8-0.5,0.6c-0.6-1.4-2-0.6-2.9-1.1
				c-0.9-0.5-1.1-1.7-2.5-1.7c-0.6,0-0.7-1.6-0.9-2.5c-0.1-0.7,1-0.3,1.3-0.7c1.4-1.4,3.9-0.6,5-2.6c0.1-0.1,0.4-0.3,0.4-0.2
				c1.8,1.6,3.7,0.1,5.5,0.1c1.1,0,2.5-0.5,3.8-0.5c1.4,0,2.4-0.8,3.8-1c-2.4-1.1-3.9-3.3-6.1-4.6c-0.8-0.5-2.3,0.6-2.7-1
				c-1.3,1.9-2.9-0.4-4.3,0.2c-0.2,0.1-0.5,0.2-0.7,0.1c-0.7-0.3,0.3-2.3-1.5-1.5c-0.3-0.9-0.8-1.8-0.6-2.9c0.1-0.7,0.4-1.1,1.1-1.4
				c2.6-1.4,5.1-1.2,7.6,0c0.7,0.3,1.3,1.5,2.2,0.3c0.2,0.2,0.5,0.3,0.5,0.4c0.2,1.3,0.8,1.8,2.2,2.1c2,0.5,3.3,2.5,5,3.7
				c0.4,0.3,0.7,0.9,1.2,0.9c2.8,0,4.3,2.5,6.6,3.4c2,0.8,3.9,1.8,6.4,1.8c5,0,9.8-0.9,14.5-2.4c2.1-0.7,4.3-0.2,6.5-0.1
				c1.2,0.1,1.7-0.1,1.5-1.6c-0.3-2.8-1.2-4.7-4.1-5.2c-1.6-0.2-2.1-1.8-3.2-2.6c-2.1-1.6-4.6-2.8-6.3-5.1c-0.7-1-2.8-1.4-4.1-1.3
				c-1.7,0.1-2.9-0.9-4.1-1.6c-1.4-0.7-2.2-2.8-3.9-0.3c-0.6,0.8-2.2,0.6-3.4,0.6c-2.3,0-4.2,0.8-5.6,2.7c-0.4,0.5-1,1-1.3,0.5
				c-0.8-1.5-2.4-1.4-3.4-2.3c-0.9-0.8-1.4-1.8-0.3-2.8c1.1-0.9,1.5-2.5,3-2.9c0.3-0.1,0.4-0.5,0.4-0.8c-0.1-0.4-0.5-0.6-0.7-0.5
				c-1.6,0.6-2.7-0.8-4.1-1.2c-1.7-0.4-3.7-0.6-5.3-1.8c-0.7-0.4-1.1-1.2-2.1-1.4c-0.5-0.1-0.2-0.9-0.1-1.4c0.1-0.5,0.5-0.7,1-0.6
				c1.9,0.2,3.9,0.1,5.8,0.3c2,0.2,4.2,1.8,6.4,0.2c-1.2-2.2-3-3.9-4.5-5.8c-0.8-1-1-2.2-0.8-3.3c0.2-1.2,1.7-1.1,2.7-1.3
				c2.2-0.4,3.6,0.8,4.6,2.7c1.6,3,4,5.4,6,8.1c0.9,1.3,1.9,3.4,4.3,3.3c0.3,1.6,1.5,2.1,2.8,1.9c1-0.2,1.1,0.3,1.6,0.7
				c1.4,0.9,2.6,2,4.1,2.6c2.2,0.9,4.1,2,5.9,3.6c1.9,1.6,4.3,2.5,6.6,3.7c0.6,0.3,0.8,0,0.8-0.6c0-0.8,0-1.6-0.1-2.4
				c-0.8-5.5,0.2-10.9,0.4-16.3c0.1-3.5,0.5-6.9,1.3-10.3c0.1-0.5-2.2-2.7-2.9-2.7c-1-0.1-1.9-0.2-2.9,0c-1.5,0.3-3.1-0.2-4.6-0.7
				c-3.3-1.1-6.5-2.5-9.6-4.1c-1.4-0.8-2.6-2-4.1-2.4c-0.9-0.2-1-1.1-1.5-1.4c-1.4-0.8-2.1-2.4-3.6-3.2c-1.3-0.7-1.7-3.1-2.4-4.9
				c-0.6-1.6-0.9-3.3-2.7-4.2c-1-0.5-1-1.7-1.4-2.6c-0.9-2.1-1.7-4.1-2.8-6.1c-0.5-0.9-0.4-1.9-0.3-2.9c0.1-0.5,0.3-1-0.1-1.5
				c-1.3-1.8,0.1-2.6,1.3-3c1.1-0.4,2.4-1.2,3.5,0.3c0.3,0.4,1,0.4,1.6,0.3c0.4-0.1,0.9-0.2,1.2,0.2c1,1.7,3.1,1.3,4.5,2.2
				c0.3,0.2,1.1-0.5,1.4,0.4c0.1,0.2,0.8,0.4,1-0.1c0.5-1,1.3-0.5,2.1-0.7c2.3-0.5,4.9-0.3,7-1.5c1.4-0.8,1.8-2.8,3.2-3.9
				c1.1-0.9,2.1-1.7,3.3-2.4c1.3-0.8,2.6-1.7,3.7-2.8c1.6-1.7,3.6-2,5.7-2.2c2.3-0.3,2.8,0.1,4.7,1.9c0.6,0.7,1.5,1,2.5,0.7
				c2.2-0.5,4.3-1.7,6.7-1.5c1.9,0.1,4.2,2.1,4.5,4c0.1,0.8,0,1.1-0.7,1.5c-2,0.9-3.3,2.7-5.1,3.8c-0.5,0.3-0.7,0.7-0.5,1.3
				c0.2,0.6,0.6,0.8,1.2,0.7c1.7-0.3,3.1,1,4.9,1c1,0,2.3,3.2,2,4.3c-0.6,2.3-1.5,2.9-4,3c-1.1,0-2.2,0.1-2.6,1.1
				c-0.4,1,0.4,1.8,1.1,2.4c1.2,1.1,2.5,2,3.8,3c0.9,0.7,1.8,0,2.7,0c3.3-0.1,6.2-1.2,8.8-3.3c2.7-2.1,5.6-3.9,8.7-5.4
				c1.1-0.5,2.1-1.3,3-2.2c3.2-2.7,6.9-4.5,10.5-6.5c5.1-2.8,10.4-5.2,15.9-7.3c2.9-1.1,5.8-2.3,8.6-2.8c3.4-0.5,6.7-1.4,10-2.2
				c3.4-0.8,6.7,0,10-0.5c1-0.2,2.2,0.3,3.4,0.4c2.2,0.1,4.4,0.1,6.5,0.1c1,0,1.7,0.6,2.7,0.8c2,0.5,4.1,0.6,5.9,1.6
				c1.6,0.8,3.2,1.8,4.2,3.2c0.8,1.1,2.1,1.2,2.8,2.1c0.1,0.1,0.8-0.1,0.8-0.1c-0.1-2,1.8-1.9,2.9-2.5c1.6-0.8,2.3-2.4,3.5-3.5
				c0.6-0.5,0.9-1.3-0.4-1.8c-0.8-0.3-1.4-1.2-2-1.9c-3.3-4.3-6.6-8.6-9.4-13.2c-1.1-1.9-2.7-3.6-4.1-5.4c-2.7-3.4-4.4-7.3-5.8-11.3
				c-0.6-1.9-1.4-3.7-1.9-5.6c-0.9-3.2-1.4-6.6-2.8-9.7c-1.3-2.9-1.3-6.3-2.9-9.2c-0.1-0.2-0.2-0.5-0.2-0.7c0.2-1.7-0.5-3.3-0.8-5
				c-0.5-2.8-1.5-5.6-1.6-8.6c-0.1-3,0.5-6.2-0.2-9.1c-0.9-3.6-0.3-7,0.4-10.4c0.7-3.4,2.1-6.7,3.2-10c0.1-0.3,0.4-0.7,0.6-0.9
				c2.1-2.3,2-2.2,0.7-4.8c-1.9-3.8-3.1-7.9-3.2-12.2c-0.1-1.9-0.9-3.9,0.1-5.8c0.7-1.4,1.2-2.8,2.6-3.5c1.5-0.8,2.1-2.4,3.6-3.4
				c1.9-1.3,3.4-3.2,5.8-3.8c1.3-0.3,1.1-1,0.4-1.7c-1.7-1.7-1.9-3.8-2-5.9c-0.1-1.2-0.7-1.9-1.8-1.6c-1.1,0.3-1.5-0.1-2-0.9
				c-1.4-2.1-3.4-3.3-5.4-4.8c-1.2-0.8-1.6-2.7-3.1-3.3c-1.8-0.8-1.6-2.5-2.1-3.9c-0.9-2.4-2.8-4.2-3.7-6.6
				c-2.3-5.7-3.2-11.4-1.2-17.4c0.9-2.8,1.3-5.8,2.2-8.7c0.7-2.2,1.7-4.3,2.9-6.3c0.2-0.3,0.3-0.6,0.4-0.9c0.7-4.5,4-7,7.2-9.5
				c1.7-1.4,3.1-3.1,4.9-4.5c2.3-1.8,5-2.9,7.4-4.4c2.9-1.8,6.2-2.3,9.2-3.9c0.9-0.5,1.9,0.1,2.9-0.1c4.1-0.7,8.3-0.7,12.5-0.4
				c1.3,0.1,3,0.6,4.3,0.9c1.2,0.2,2.3,1.2,3.8,1c1-0.2,2.4,0.8,3.1,1.4c2.7,2.1,6.2,2.8,8.9,4.9c1.8,1.4,3.9,2.9,5.9,3.4
				c2.6,0.7,2.9,3.2,4.9,4.3c2.1,1.1,3.6,3,5.8,4.2c0.8,0.5,1.6,1.4,2.3,2.1c3.1,3,6.4,5.7,10.1,7.9c1.8,1,3.9,0.6,5.6,1.9
				c2.5,1.9,5.6,1.2,8.5,1.9c2.5,0.6,5-0.5,7.5-0.3c0.5,0,0.8-0.4,1.2-0.8c1.7-1.4,3.5-2.7,5.8-2.3c1.1,0.1,1.4-1,2.7-0.7
				c2.5,0.6,4.2,3.8,3,6.1c-0.9,1.7-1.8,3.3-2.5,5.1c-1.6,3.9-4.7,6.5-7.1,9.7c-3.5,4.5-8.6,5.9-13.1,8.5c-1.3,0.7-2.7,1.4-3.9,2.4
				c-1.4,1.1-2.9,1.7-4.7,1.7c-2.4,0-4.7,1.2-7.1,0.7c-0.2,0-0.5,0.4-0.6,0.6c-0.2,0.5,0.2,0.7,0.5,0.8c2.3,0.6,4.3,1.9,7,0.8
				c1.6-0.6,3.7,0.1,5.6,0.3c0.2,0,0.5,0.2,0.7,0.3c0.8,0,1.7-0.5,2.2,0.4c0.6,1,0.6,2.3,0.5,3.5c0,0.5-0.3,1-0.9,1.3
				c-3.9,1.9-7.3,4.5-11.1,6.5c-1.9,1-4.4,1.4-5.9,2.8c-1.5,1.4-3.8,0-4.8,1.9c-6,0.3-12,1.5-18.1,1.3c-1.7-0.1-3.7,0.3-5.5,0.9
				c-1.4,0.4-2.9,0.6-4.6,0.3c-1.7-0.4-3.7,0.2-5.4,0.7c-0.5,0.2-0.6,0.7-0.6,1.3c-0.1,0.9,0.6,1.6,0.6,2.3
				c-0.3,3.3,2.3,3.3,4.2,3.8c2.5,0.6,5.3,0.3,7.8,1.2c2.4,0.8,4.8,1.4,7,2.7c2.7,1.6,5.6,2.9,7.9,5.1c2.1,2,5,3.1,6.4,6
				c0.5,0.9,1.8,1.4,2.8,2.1c2.7,1.8,4.6,4.4,7.3,6.2c2.2,1.4,3.5,3.8,5.8,5.2c0.8,0.5,1.5,0.6,1.2,1.8c-0.1,0.5-0.1,1.1,0.8,0.8
				c0.1,0,0.3,0,0.3,0c0.6,2.5,3,3.5,4.6,5.2c1.5,1.7,2.4,3.9,4.4,5.4c0.9,0.7,1.7,1.7,2.1,2.8c1,2.2,3.2,2.9,4.9,4.3
				c2,1.6,4.4,2.5,6.4,4c1.8,1.3,1.1,3.5,0.7,5.3c-0.8,4.3-1.9,8.5-3.8,12.5c-0.6,1.2-1.6,2.2-1.9,3.6c-0.2,1.1-0.4,1.6,1.3,1.6
				c2.5-0.1,5.1-0.2,7.7,0.5c1.7,0.4,2.9,1.3,4.4,1.9c1.2,0.5,1.3,2.3,2,3.5c1.4,2.4,2.4,4.9,3.5,7.4c0.3,0.6,0.8,1.1,1.5,1
				c1.4-0.3,2,0.7,2.5,1.6c1.3,1.9,3.6,2.5,5.1,4.1c1.9,1.9,4.3,3.3,6.6,4.4c3.2,1.5,3.6,4.8,5.8,6.7c1.2,1.1,1.7,2.9,3.3,3.7
				c0.1,0.1,0.3,0.2,0.3,0.3c-0.3,3.3,2.9,4.2,4.4,6.2c2,2.5,3.9,5.1,6.4,7.2c1.4,1.2,2,3,3.6,4c0.2,0.1,0.4,0.2,0.4,0.4
				c0.5,3.4,3.6,5.3,4.9,8.3c2.3,5.4,5.6,10.4,6.6,16.4c0,0.2,0.1,0.6,0.3,0.7c1.5,1.1,1.2,2.9,1.8,4.2c1.2,2.6,1.8,5.4,2.4,8.1
				c0.9,4,2.5,8,1.9,12.3c1.8,2.9,0.5,6.3,1.2,9.3c0.2,1-0.1,1.9,0,2.8c0.1,2.6,0,5.4,0.6,7.7c0.8,2.9-1,4.9-0.8,7.4
				c0,0.2-0.2,0.6-0.1,0.7c2.2,2.9-0.6,5.5-0.5,8.3c0,1.4-0.8,2.7-0.6,4.2c0.2,1.5-0.8,2.8-1.2,4.2c-1.1,3.9-2.7,7.6-3.4,11.6
				c-0.3,1.7-1.1,3.3-2,4.8c-1.3,2-2.2,4.5-4.5,5.8c-3.4,2-6.7,4.1-10,6.1c-3.9,2.4-8.1,3-12.3,3.8c-2.2,0.4-4.6,0.3-6.9,0.5
				c-3.7,0.2-7.2-0.9-10.6-2.4c-1.1-0.5-1.7-0.4-1.8,1c-0.5,4.3-3.6,6.1-7.2,7.6c-2.8,1.2-5.6,0.3-8.3,0.8c-1.9,0.3-3.7-0.3-5.6,0.1
				c-1.6,0.3-3.4-0.6-5.2-0.4c-2.5,0.4-4.8,0.3-7.1-0.8c-0.3-0.1-1.1-0.8-1.3,0.3C263.2,355.5,262.8,355.5,262.7,355.3z
				 M343.8,301.7c0.6-6.8,0.8-13.7,0.2-20.5c-0.4-5.3-0.7-10.7-1.7-16c-0.7-3.2-1.4-6.4-2.2-9.6c-1.6-6.4-4.6-12.2-6.6-18.4
				c-0.9-2.7-2.6-5.3-4-7.9c-2-3.5-4.4-6.8-7.4-9.7c-2.3-2.2-3.7-5-6.1-7.1c-1.5-1.4-3-3.1-4.2-4.9c-1.4-2.2-2.9-4.4-4.5-6.5
				c-1.6-2.2-3.8-3.9-5.7-5.9c-1-1-1.5-1.3-1.9,0c-1.2-1.3-2.4-2.7-3.6-3.9c-0.6-0.5-1.5-0.2-2.2-1.1c-0.9-1.1-2.5-1.6-3.6-2.7
				c-0.8-0.7-1.7-1.4-2.6-2.1c-2.9-2.6-3.6-6.6-5.6-9.8c-0.5-0.8-0.8-0.7-1.5-0.8c-3-0.3-6.2,0.4-8.6-2.1c-0.5,0.5,0.5,1.2-0.3,1.5
				c-1.5,0.6-2.2,2.1-3.5,3c-2.2,1.5-3.7,4.1-5.8,5.8c-1.6,1.3-1.9,4.3-4.9,3.8c-0.1,0-0.3,0.2-0.3,0.4c-0.2,3-3.3,3.6-4.6,5.7
				c-0.4,0.6-1.5-0.1-1.3,0.9c0.4,2.7-1.9,4.2-2.8,6.2c-0.1,0.2-0.2,0.4-0.3,0.4c-2.7,0.2-4.1,2.5-6.2,3.7c-3.8,2.3-6.5,6.1-10.6,8
				c-0.3,0.1-0.5,0.7-0.7,1.1c-0.5,1.7-2.1,2.7-3.1,4c-1.2,1.6-4,2.2-3.2,5c0.1,0.3-0.1,0.5-0.5,0.7c-1.7,0.7-2.4,2.4-3.7,3.5
				c-1.2,1.1-2.1,2.6-3.2,3.8c-2.4,2.7-5.8,4.5-7.1,8.1c-0.1,0.2-0.4,0.5-0.7,0.5c-2.3,0.6-3.6,2.7-5,4.2c-2.3,2.4-5,4.2-7,6.9
				c-1.1,1.6-3.4,2.7-5.1,4.1c-2.8,2.2-5.8,4.3-8.8,6.3c-2.5,1.7-5,3.5-7.2,5.7c-3.6,3.5-8.6,5.2-13.1,7.2c-3,1.3-6.4,2-9.5,3.1
				c-1.9,0.7-3.6,1.8-5.4,2.8c-1.6,0.9-3.2,1.8-5,2.1c-3.5,0.6-6.9,0.4-10.4,0.1c-3.3-0.2-6.6,0.2-9.9-0.9c-0.6-0.2-1.5-0.2-2.1-0.4
				c-1.7-0.6-3.5-0.5-5.1-1.6c-1.6-1.1-3.3-2.2-4.6-3.6c-1.8-2-4.5-2.4-6.7-3.5c-0.5-0.3-1.8-1-2.9-0.1c-2.4,1.9-2.6,2.2-1.1,4.9
				c0.1,0.2,0.2,0.5,0.3,0.7c0.9,1.6,1.9,3.1,3.8,3.8c1.8,0.6,3.6,1.6,4.7,3.1c1,1.2,2.3,2.2,3.5,3c1.6,1.2,2.5,2.6,3.2,4.3
				c0.8,2.2-0.2,3.8-2.4,4.3c-0.5,0.1-0.9,0.4-1.2,0.8c-1.9,2.1-4.7,3-7.1,4c-1.6,0.6-3.5,1.6-5.8,1.2c-1.5-0.3-3.6,0.7-5.6,0.8
				c-1.1,0-1.6,0.9-2.3,1.8c0.5,0.1,0.7,0.3,0.9,0.2c2.4-0.7,4.8-0.1,7.2,0.1c1.6,0.1,2.8,1.2,3.6,2.4c1.4,1.9,1.1,2.9-0.7,4.5
				c-1.1,0.9-2.2,1.8-3.3,2.8c-0.9,0.8-1.9,1.6-2.5,2.8c0.7,0.2,1.2,0,1.6-0.3c1.2-1.1,2.9-1.4,4.2-2.3c1.6-1.1,3.3-0.3,4.9-0.4
				c1.1-0.1,1.9-0.5,2.5,0.8c0.1,0.3,0.6,0.4,0.9,0.6c2,0.8,3.7,3.2,3.1,4.8c-0.7,2.2-0.4,4.7-1.9,6.6c0.5,0.3,0.8,0.1,1-0.1
				c1.4-1.1,2.7-2.3,4.1-3.5c0.8-0.6,1.6-1.5,2.6-1.1c1.5,0.6,3.1,0.4,4.6,0.6c0.4,0.1,0.8-0.1,1,0.3c0.7,1.5,2.4,2.6,2.1,5.1
				c1.8-2.3,2.9-4.5,4.7-5.9c3.7-2.9,5.8-6.6,7.2-10.9c1.2-3.5,2.4-7.1,4.2-10.3c0.9-1.7,1.6-3.7,3.1-5c1.8-1.5,3.3-3.5,5.8-4.1
				c0.4-0.1,0.9-0.5,1.1-0.9c0.3-0.6,0.7-0.6,1.3-0.8c2.6-0.8,5.2-1.8,7.2-3.6c5.5-5,11.6-9.3,17.7-13.5c1.8-1.2,4-2.1,5.6-3.7
				c1.1-1.2,2.5-2.1,3.8-3.1c3.7-2.9,8.9-3.3,11.8-7.3c2.1-0.2,3.2-2.1,4.8-3.1c1.4-0.9,2.4-2.4,4.1-2.7c1.8-0.3,3-1.5,4.4-2.4
				c1.5-1.1,3.2-2,4.8-2.8c3.5-1.8,6.5-4.1,9.4-6.6c3-2.5,6.1-5,9.5-7c2.8-1.6,5.3-3.5,7.7-5.7c2.3-2.1,4.9-3.8,7.1-6.1
				c1.9-2,2.4-2.2,3.2-5.1c0.1-0.2,0.4-0.3,0.6-0.4c0.5-0.4,1-0.7,1.5-1.1c2.3-2,5.3-1,6.4,1.8c0.5,1.2-0.3,2.2-0.2,3.3
				c0.3,2.3-1.3,3.5-2.6,4.9c-1.7,1.8-4,2.9-5.5,4.9c-0.4,0.6-0.8,1.3-1.3,1.9c-1.2,1.5-3.2,1.6-4.3,3c-0.9,1.1-1.8,2.3-3.4,2.4
				c-0.3,0-0.6,0.2-0.5,0.6c0,0.1,0.2,0.3,0.3,0.4c1.1,0.3,1.9,1.2,2.9,1.7c1.1,0.6,1,2.2,2.3,2.4c1,0.2,1.4,0.7,1.4,1.7
				c0,0.4,0.4,1,0.7,1.3c1.4,1.3,2,3,2.6,4.8c0.6,1.7,1.4,3.4,2.3,5c0.5,0.9,1.4,1.4,0.8,2.6c-0.2,0.5,0.2,0.8,0.6,0.9
				c3.7,1.2,7.4,2.4,11.1,3.6c4.7,1.5,9.4,2.9,13.9,5c3,1.4,6.2,2.5,9.1,4.3c0.3,0.2,0.6,0.3,0.9,0.3c1.8-0.2,2.8,0.9,4,1.9
				c1,0.9,1.8,1.7,1.2,3c-0.6,1.4-2.2,2.2-3.7,1.7c-1.3-0.4-2.6-0.8-3.6-1.9c-0.4-0.4-1-1.1-1.4-0.8c-1.4,0.9-2-0.3-2.8-0.8
				c-1.4-0.9-3.1-1.1-4.6-2c-2.8-1.6-5.6-3.2-8.8-4c-0.8-0.2-1.5,0.2-2.3-0.3c-3.2-1.8-6.6-3.2-10.2-4c-3.6-0.8-7.3-1.6-11.1-1.5
				c-2.3,0.1-4.5-0.1-6.6,0.9c-2.6,1.1-4.8,2.5-5.3,5.6c-0.1,0.4-0.2,0.9-0.5,1.2c-1.2,1.5-1.6,3.2-1.6,5c0,2.2-1,4.5-0.3,6.5
				c1,2.5,1.5,5.1,2.6,7.6c1.1,2.6,2.7,5.1,3.6,7.7c1.7,4.7,4,9.1,6.6,13.3c2,3.2,3.8,6.5,5.7,9.7c1.8,3,3.5,6.1,4.9,9.4
				c1.4,3.1,4.5,5.6,3.6,9.7c-0.3,1.2-1.3,3.3-2.4,3.1c-1.6-0.2-2.9,1-4.7,0.6c-0.9-0.2-1.8-0.8-2.9-0.8c-1.7,0-3.3,0.8-5-0.1
				c-0.7-0.4-1.2,1.1-1.8,0.6c-1.6-1.6-3.4-0.1-5.1-0.4c-3-0.6-6.1,1.5-9.1,0.2c-1.2-0.5-2.5,0.3-3.2-0.3c-1.1-1-2.1-1.3-3.4-1.4
				c-2.3-0.1-3.4,1.1-3,3.4c0.1,0.7,0.3,1,1.1,0.8c1.7-0.3,3.2,0.7,4.9,0.9c2.5,0.3,4.8,1.4,7.4,1.5c3.7,0.1,7.3-1.1,11.1-0.7
				c2.5,0.2,5-0.6,7.5,0.5c0.5,0.2,1.1,0.2,1.7,0.1c2-0.3,3.7,1,5.7,0.7c1.8-0.3,3.3,0.9,5.1,1.1c2.6,0.3,5.1,0.2,7.6,0.3
				c1.3,0.1,2.6,0.7,3.7-0.4c1.6,1.7,3.5,0.6,5.2,0.2c1.7-0.4,3.5-0.8,4.8-2.3c0.9-1.1,0.5-2.2,0.4-3.4c0-0.1,0-0.3,0-0.4
				c1.2-1.9-1.5-1.9-1.6-3.1c-1.7,0.8-1.8-0.4-2-1.6c-0.1-0.7-0.7-1.6-1.3-2c-3.1-2.3-4.4-5.8-6.4-8.8c-2.4-3.6-3.8-7.8-6.4-11.3
				c-1.6-2.2-2.6-4.8-4.4-7.1c-2.5-3.1-4-7.1-5.7-10.8c-1.1-2.4-2.1-4.8-3.3-7.2c-0.9-1.7-0.1-3.4,1.7-3.5c0.4,0,0.8,0.1,1.1,0
				c1.4-0.7,2.4,0.1,3.5,0.7c1.2,0.7,2.3,1.2,1.5,2.9c-0.1,0.2,0.2,0.6,0.3,0.9c0.3,1.3,1.1,2.3,1.7,3.4c1.8,3.8,2.9,8,6.1,11.1
				c1.6,1.6,2.5,3.9,3.5,6c0.5,1,0.9,1.9,2.2,2c-0.1,1.1,0.1,2.1,0.8,3.1c0.4,0.5,1,0.9,1.2,1.6c1.2,3.1,3.5,5.6,4.8,8.6
				c0.9,2.1,2.8,3.8,4.1,5.8c1,1.5,2,2.6,3.9,2.7c0.3,0,0.7,0.2,0.8,0.4c1.1,1.8,3.1,2.4,4.9,3.3c1.5,0.8,3.3,0.2,5.1,0.9
				c0.9,0.3,1.2,1.3,2.4,1.4c1.9,0,3.9,1,5.5-0.7c2.3,1.4,4.1-0.6,6.1-1c3.1-0.6,6.1-1.9,8.7-3.8c2.3-1.7,4.8-3.1,6.5-5.4
				c1.7-2.3,2.4-5.2,3.5-7.8c1.3-3.2,2.4-6.5,3.2-9.9C342.9,310.5,343.4,306.1,343.8,301.7z M272.9,41.1c0.3-0.4,0.6-0.8,0.3-1.2
				c-0.3-0.4-0.7-0.1-1-0.1c-2.8,0.4-5.5,0.2-8.3,0.2c-2.6,0.1-5.1-1.3-7.7-1.5c-1.2-0.1-2.4-0.3-3.6-0.8c-2.7-1.2-5.5-2.3-8-4.1
				c-4.1-2.8-8.3-5.1-12-8.6c-3.6-3.4-7.3-6.9-11.6-9.6c-3.3-2.1-6.6-4.2-10.1-6c-1.6-0.8-3.3-1.2-4.8-2c-2.6-1.3-5.1-2.2-7.9-1.2
				c-1.4,0.5-3,0.8-4.2,0.3c-1.5-0.7-2.6-0.1-4,0.1c-2.6,0.3-4.6,2.1-7,2.7c-2.7,0.7-4.1,3.7-7.1,3.8c-0.2,0-0.5,0.2-0.6,0.4
				c-0.7,2.2-2.8,3.2-4.4,4.3c-3.3,2.3-4.3,6-6.4,8.9c-1.8,2.6-2.9,5.6-3.4,8.9c-0.5,3-1,6.1-1.9,9.1c-0.8,2.7,0.4,5.3,0.8,7.9
				c0.6,3.4,2.3,6.5,4,9.4c1.2,2.1,3.1,3.7,4.4,5.7c0.6,1,1.6,1.5,2.7,2c0.8,0.3,1.1,0.2,1-0.7c-0.1-1.4,0.4-2.6,1.3-3.6
				c1.2-1.2,2-2.7,2.6-4.3c0.5-1.7,2.7-1.6,3.5-3c0.1,0.1,0.3,0.2,0.4,0.3c1.3,0.9,2.7,0.8,4.1,0.5c1.1-0.3,2-0.2,3,0.3
				c1.7,0.8,3.2,1.5,4.4,3.4c1,1.5,1.3,3,1,4.3c-0.8,3.6-1.1,7.3-1.5,11c-0.3,2,0,3.1,2.3,1.9c0.3-0.1,0.7,0,1.1,0.2
				c0.8,0.4,1.9,0.4,2.3-0.1c1.3-1.2,2.8-0.3,4-0.3c3.6,0.2,7.2,0.4,10.7-0.1c1.9-0.2,4,0.7,5.6-0.9c1.1,1,2.4,0.3,3.5,0.2
				c2.5-0.3,4.9-0.2,7.4-0.2c3.6-0.1,7-1.8,10.5-2.5c3-0.6,5.4-2.8,8.3-3.6c0.4-0.1,0.6-0.5,0.6-0.9c0-0.2-0.4-0.4-0.5-0.4
				c-1.3,0-2.2-0.8-3.3-1.1c-2.3-0.5-4.5-1-6.7-1.7c-2-0.7-4.5-0.1-5.8-2.4c0-0.1-0.4,0-0.5,0c-1.1-0.4-1.9-1.3-2-2.3
				c-0.1-0.9,0.8-1.8,1.8-2.2c0.6-0.2,1.2-0.3,1.8-0.4c1.6-0.3,3.3,0.5,4.7,0.2c4.4-1.1,8.7-2.3,13.2-3.1c3.3-0.5,5.8-2.7,8.6-4.3
				c1.2-0.7,2.2-1.6,3.5-2.2c2.6-1.1,4.9-2.9,7-4.8C270.5,45.3,271.6,43,272.9,41.1z M271.3,151.7c0.4-1.6-0.4-2.8-1.7-3.3
				c-1-0.4-1.5-1-2.2-1.6c-1.3-1.1-2.5-2.4-4.2-3c-0.9-0.3-1.8-1.2-2-1.6c-1-3-3.9-4.5-5.4-7.2c-1.2-2.1-3.1-3.6-4.7-5.4
				c-4-4.5-8.1-9.1-13-12.7c-1.6-1.1-2.3-3-4-3.9c-1.2-0.7-2.2-1.6-3.3-2.5c-3-2.6-5.5-5.6-9-7.7c-0.8-0.5-1.7-0.3-2.2-0.7
				c-2.2-1.8-4.8-2.1-7.3-3.1c-1.7-0.6-3.3,0.2-4.9-0.3c-2.5-0.9-5.2-0.9-7-1.4c-2.8-0.1-2.9-0.1-4.4,1.1c-0.2,0.1-0.4,0.2-0.7,0.2
				c-2.5,0.2-4.8,1.1-6.9,2.4c-1.2,0.8-2.6,1.2-3.8,2.1c-0.6,0.4-1.3,0.4-1.9,1c-3.2,3.1-5.9,6.7-8.6,10.3c-1.8,2.4-3.5,4.9-4.3,8
				c-0.3,1.5-0.7,3-1.3,4.4c-1.7,3.6-2.7,7.1-1.6,11c0.2,0.5,0.2,1.1,0.1,1.7c-0.9,4.7,0,9.3,0.8,14c0.6,3.5,1.3,7,2.2,10.5
				c1.4,5.1,2.5,10.3,3.9,15.4c0.5,2.1,1,4.3,2.1,6.1c1.2,2,1.6,4.3,3.2,6.1c0.5,0.6,1.4,1.2,1.4,2c0.2,2.3,2,3.7,3.1,5.5
				c2.2,3.6,5.1,6.8,7.6,10.3c2.5,3.6,5.7,6.6,8.3,10c1.8,2.4,5.8,2.4,7,5.7c0,0,0.1,0.1,0.1,0.1c1.5-1,2.2,0.5,3.2,1.1
				c0.5,0.3,0.7-0.1,0.9-0.4c3.5-4.2,7-8.3,10.4-12.5c2.1-2.6,3.8-5.4,6.5-7.4c2.8-2.1,5.5-4.4,8.3-6.5c1.7-1.3,2.9-3.3,5-3.8
				c1.4-0.3,2.6-1.3,4-1.5c0.6-0.1,1-0.6,0.8-1.1c-0.6-1.5,0.4-1.7,1.2-2.6c1.3-1.6,3-2.7,4.3-4.3c1.8-2.3,4.1-4.2,5.9-6.4
				c1.6-1.9,3.6-3.4,4.9-5.6c2.6-4.5,4.9-9.1,6.6-13.9C270,157.4,270.7,154.5,271.3,151.7z M256.1,337.7c0.6,0.1,0.8-0.6,0.4-1.1
				c-2.2-2.7-3.6-5.9-5-9c-1.2-2.4-2.7-4.6-4-6.9c-1.1-2-2.3-4.1-3.4-6.2c-1.7-3.4-4.1-6.3-5.6-9.8c-0.8-2-1.4-4.1-2.5-6
				c-1.4-2.4-2.4-4.9-3.6-7.3c-1.2-2.5-1.3-5.4-3.2-7.6c-0.3-0.4,0-0.7,0-1c0-3.2,0.7-6.4,0.4-10c-1.4,1.9-3.3,3.4-3.2,5.3
				c0.1,1.9-0.5,3.5-0.6,5.3c0,0.4-0.1,0.9,0.1,1.3c1.5,2.8,0.8,5.9,1.1,8.9c0.3,2.6,1.1,4.9,3.1,6.7c0.6,0.5,1.3,1,1.6,1.8
				c1,2.4,2.7,4.2,4.3,6.2c1.2,1.6,2.7,3.2,3.2,5c0.5,2.1,1.9,3.2,3,4.8c1,1.4,2.3,2.7,2.5,4.6c0.1,0.7,0.5,1.4,0.9,2
				c1.1,2,2.4,4,1.8,6.4c-0.6,2-0.3,4.6-2.9,5.7c-0.2,0.1-0.3,0.3-0.5,0.5c0.8,0.6,1.6,0.7,2.4,0.6c1.8-0.2,3.7,0.5,5.4-0.5
				c0.2-0.1,0.6,0.1,0.8,0.3C253.8,338.4,254.9,337.5,256.1,337.7z M214.4,339.4c0.1-0.1-0.1-0.3-0.2-0.5c-1.1,0.6-2.4-1-3.5,0.2
				c-0.8,0.9-1.9,1.9-2.8,2.4c-1.5,0.6-1.9,1.5-1.6,2.8c0.3,1.1,1.2,2,2.6,1.7c0.4,0.1,0.7,0.2,1.1,0.2c1.6,0,3.2-0.3,3.9-1.8
				C214.5,342.8,213.8,341,214.4,339.4z M205.5,231.2c0-0.7-0.4-1-0.8-1.2c-2.2-1-4.2-2.4-6.1-3.9c-0.3-0.2-0.6-0.4-1-0.1
				c-2.7,2.1-5.4,4.2-8.1,6.3c-0.3,0.3-0.7,0.4-0.6,1.1c0.5,3.3,2,6.1,3.4,9c0.3,0.5,0.7,1.3,1.2,0.5c0.9-1.6,2.7-2,3.9-3.2
				c2.2-2.1,4.2-4.4,6.6-6.3C204.7,232.9,205.4,232.1,205.5,231.2z M196.4,92.3c0.5-0.2,1.3-0.2,0.8-0.7c-0.8-0.9,0.5-2.7-1.5-2.9
				c-0.3,0-0.2-0.5-0.2-0.8c0-1.5-1-2.5-2.5-2.1c-2.3,0.6-4.6,0.8-7,0.9c-1.4,0.1-2.7,0.3-3.8,1.4c-0.7,0.6-1.7,1.1-2.7,1.6
				c-1.7,0.9-3.8,0.2-5.4,1.8c-1.6,1.7-4.1,2.8-4.8,5.1c-0.6,1.8-0.7,3.7-0.9,5.5c0.3,1.5,0.2,2.9,1.1,4.2c0.6,0.9,0.7,0.8,1.4,0
				c2.7-2.9,5.5-5.7,9-7.8c2.3-1.4,4.8-3.1,7.2-3.6C190.2,94.1,193.3,93.2,196.4,92.3z M184.1,80.7c0.2-0.6-0.1-1.2-0.6-1.5
				c-0.6-0.4-1-0.7-0.8-1.5c0.4-1.9,0.3-3.9,0.5-5.8c0.2-2.2,0.5-4.3,0.7-6.2c0-0.8,0.2-1.4-0.5-1.7c-0.2-0.1-0.6-0.2-0.7,0
				c-0.2,1.7-2,2.3-2.6,3.6c-2,4.5-2.7,9.2-1.4,14.1c0.2,0.8,0.8,1.1,1.3,0.5c0.8-0.9,2.1-0.6,3-1.4
				C183.3,80.6,183.9,81.4,184.1,80.7z"/>
			<path class="st1" d="M256.1,337.7c-1.1-0.2-2.3,0.7-3.3-0.1c-0.2-0.2-0.7-0.4-0.8-0.3c-1.7,1-3.6,0.3-5.4,0.5
				c-0.8,0.1-1.6,0-2.4-0.6c0.2-0.2,0.3-0.5,0.5-0.5c2.5-1.1,2.3-3.6,2.9-5.7c0.6-2.4-0.7-4.4-1.8-6.4c-0.4-0.7-0.8-1.3-0.9-2
				c-0.2-1.9-1.6-3.2-2.5-4.6c-1.1-1.6-2.5-2.7-3-4.8c-0.5-1.8-1.9-3.5-3.2-5c-1.5-2-3.3-3.8-4.3-6.2c-0.3-0.8-1-1.3-1.6-1.8
				c-2.1-1.8-2.8-4.1-3.1-6.7c-0.3-3,0.3-6.1-1.1-8.9c-0.2-0.4-0.1-0.9-0.1-1.3c0.1-1.8,0.7-3.4,0.6-5.3c-0.1-1.9,1.7-3.4,3.2-5.3
				c0.2,3.6-0.4,6.8-0.4,10c0,0.3-0.4,0.6,0,1c1.9,2.2,2,5.1,3.2,7.6c1.2,2.4,2.2,5,3.6,7.3c1.1,1.8,1.7,4,2.5,6
				c1.4,3.5,3.9,6.5,5.6,9.8c1.1,2.1,2.3,4.2,3.4,6.2c1.3,2.3,2.8,4.5,4,6.9c1.5,3.1,2.9,6.3,5,9
				C256.8,337.1,256.7,337.8,256.1,337.7z"/>
			<path class="st2" d="M243.3,70.1c1.1,0.2,2.1,1.1,3.3,1.1c0.2,0,0.5,0.2,0.5,0.4c0,0.4-0.2,0.8-0.6,0.9c-3,0.8-5.3,3.1-8.3,3.6
				c-3.6,0.6-6.9,2.3-10.5,2.5c-2.5,0.1-4.9,0-7.4,0.2c-1.2,0.1-2.4,0.8-3.5-0.2c-1.6,1.7-3.8,0.7-5.6,0.9
				c-3.6,0.4-7.1,0.3-10.7,0.1c-1.2-0.1-2.7-1-4,0.3c-0.5,0.4-1.5,0.4-2.3,0.1c-0.3-0.1-0.8-0.3-1.1-0.2c-2.3,1.2-2.6,0-2.3-1.9
				c0.4-3.6,0.7-7.3,1.5-11c0.3-1.3,0-2.8-1-4.3c-1.2-1.8-2.7-2.5-4.4-3.4c-1-0.5-1.9-0.6-3-0.3c-1.4,0.4-2.8,0.4-4.1-0.5
				c-0.1-0.1-0.3-0.2-0.4-0.3c-0.8,1.4-3,1.3-3.5,3c-0.5,1.6-1.3,3.1-2.6,4.3c-1,1-1.4,2.2-1.3,3.6c0,0.8-0.2,1-1,0.7
				c-1.1-0.5-2.1-1-2.7-2c-1.3-2-3.3-3.7-4.4-5.7c-1.7-3-3.4-6-4-9.4c-0.5-2.6-1.6-5.2-0.8-7.9c0.9-3,1.4-6,1.9-9.1
				c0.6-3.3,1.6-6.3,3.4-8.9c2.1-3,3.1-6.6,6.4-8.9c1.6-1.1,3.7-2,4.4-4.3c0.1-0.2,0.4-0.4,0.6-0.4c3-0.1,4.4-3.1,7.1-3.8
				c2.4-0.6,4.4-2.5,7-2.7c1.3-0.1,2.5-0.7,4-0.1c1.3,0.6,2.8,0.2,4.2-0.3c2.9-1,5.3-0.1,7.9,1.2c1.5,0.8,3.3,1.2,4.8,2
				c3.5,1.8,6.8,3.9,10.1,6c4.3,2.7,8,6.2,11.6,9.6c3.7,3.5,7.9,5.8,12,8.6c2.5,1.7,5.3,2.8,8,4.1c1.2,0.5,2.4,0.7,3.6,0.8
				c2.6,0.2,5,1.6,7.7,1.5c2.8-0.1,5.5,0.2,8.3-0.2c0.4-0.1,0.8-0.3,1,0.1c0.3,0.4,0,0.8-0.3,1.2c-1.3,1.9-2.4,4.2-4.1,5.7
				c-2.1,1.9-4.4,3.6-7,4.8c-1.3,0.6-2.3,1.5-3.5,2.2c-2.8,1.6-5.3,3.8-8.6,4.3c-4.5,0.7-8.8,1.9-13.2,3.1c-1.4,0.4-3.1-0.5-4.7-0.2
				c-0.6,0.1-1.2,0.2-1.8,0.4c-1,0.4-1.9,1.3-1.8,2.2c0.1,1,0.9,1.9,2,2.3c0.2,0.1,0.5-0.1,0.5,0c1.3,2.4,3.8,1.8,5.8,2.4
				C238.8,69.1,241,69.7,243.3,70.1z"/>
			<path class="st1" d="M214.4,339.4c-0.6,1.6,0.1,3.4-0.6,4.9c-0.7,1.6-2.3,1.8-3.9,1.8c-0.4,0-0.7-0.2-1.1-0.2
				c-1.4,0.3-2.2-0.6-2.6-1.7c-0.3-1.3,0.1-2.1,1.6-2.8c1-0.4,2-1.4,2.8-2.4c1.1-1.2,2.4,0.3,3.5-0.2
				C214.3,339,214.5,339.2,214.4,339.4z"/>
			<path class="st1" d="M204.7,230c0.5,0.2,0.9,0.5,0.8,1.2c-0.2,0.9-0.9,1.7-1.5,2.2c-2.4,1.9-4.4,4.2-6.6,6.3
				c-1.2,1.2-3,1.6-3.9,3.2c-0.4,0.8-0.9,0-1.2-0.5c-1.4-2.9-2.9-5.7-3.4-9c-0.1-0.8,0.3-0.9,0.6-1.1c2.7-2.1,5.4-4.2,8.1-6.3
				c0.4-0.3,0.7-0.1,1,0.1C200.5,227.6,202.5,229,204.7,230z"/>
			<path class="st0" d="M204.1,149.7c0.6,1.1,0,2.1-0.5,3.2c-1.3,2.6-3.9,2.1-6,2.8c-0.5,0.2-1.1,0-1.3,0.6
				c-0.5,1.5-2.2,2.1-3.2,2.5c-2.1,0.9-4,2.1-6.1,2.9c-1.2,0.5-2.4,0.8-3.7,0.9c-2.2,0.1-3.4-1.1-3-3.1c0.2-1,1.3-1.6,2.1-2.1
				c4.4-2.8,8.8-5.4,13.6-7.6c1.4-0.7,3.1-1.2,3.9-2.9c0.7,0.2-0.2,1.3,1.1,1C202.6,147.3,203.5,148.5,204.1,149.7z"/>
			<path class="st3" d="M197.2,91.6c0.5,0.5-0.3,0.6-0.8,0.7c-3.1,0.9-6.2,1.8-9.3,2.5c-2.4,0.5-4.9,2.2-7.2,3.6
				c-3.4,2.1-6.2,4.9-9,7.8c-0.7,0.7-0.8,0.8-1.4,0c-0.9-1.3-0.8-2.7-1.1-4.2c0.3-1.8,0.4-3.7,0.9-5.5c0.8-2.4,3.2-3.4,4.8-5.1
				c1.6-1.6,3.7-0.9,5.4-1.8c0.9-0.5,1.9-1,2.7-1.6c1.2-1.1,2.4-1.3,3.8-1.4c2.4-0.1,4.7-0.2,7-0.9c1.5-0.4,2.5,0.5,2.5,2.1
				c0,0.3-0.1,0.8,0.2,0.8C197.7,88.9,196.4,90.7,197.2,91.6z"/>
			<path class="st0" d="M193.8,182.9c1.2,1.5,1.2,2.8-0.4,4c-1,0.8-1.8,1.8-2,3.2c-0.2,1.9-2.1,1.7-3.2,2.3c-1,0.5-2.1,2.1-3.4,0.1
				c-0.2-0.4-1.4-0.3-2.1-0.4c-0.5-0.1-1.1,0.5-1.6-0.1c-0.6-0.6-1.1-2-1.1-2.9c0.2-0.6-0.1-1.1-0.4-1.7c-1-2.1-0.5-2.8,1.6-3.8
				c1.9-1,3.9-1,5.8-1.7c1.4-0.6,3.1,0.7,4.5,0C192.8,181.2,193.2,182,193.8,182.9z"/>
			<path class="st4" d="M183.4,64c0.7,0.3,0.5,1,0.5,1.7c-0.2,1.9-0.5,4.1-0.7,6.2c-0.2,1.9,0,3.9-0.5,5.8c-0.2,0.7,0.2,1.1,0.8,1.5
				c0.5,0.3,0.8,0.9,0.6,1.5c-0.2,0.7-0.8-0.1-1.1,0.1c-0.9,0.8-2.1,0.6-3,1.4c-0.6,0.6-1.1,0.3-1.3-0.5c-1.3-4.9-0.7-9.5,1.4-14.1
				c0.6-1.4,2.4-1.9,2.6-3.6C182.7,63.8,183.2,63.9,183.4,64z"/>
			<path class="st5" d="M104.4,320.8c0.6-0.1,0.7-0.8,1.5-1.3c0.1,1.5-0.1,2.8-0.8,3.9c-1,1.7-1.3,3.5-1.5,5.3c-0.4,2.7,1,4.9,2.9,6
				c2.2,1.2,4.9,0.9,7.2-0.7c2.3-1.6,4.6-3,6.5-5.2c0.4,0.7,0.8,1.4,1,2c1.1,3.2,4.1,3.9,6.5,5.4c1.1,0.7,2.5-0.5,3.1-1.1
				c1.6-1.5,3.1-3.1,4.4-4.9c0.6-0.8,1-1.8,2.1-2.2c1.1-0.4,0.1-1.5,0.9-2.3c1-0.9,2.1-1.8,3.1-2.8c2.7-2.7,4-6.1,5-9.6
				c0-0.2,0.2-0.3,0.2-0.4c2.7,1.1,4.5,3.6,7.3,4.3c0.9,0.2,0.4,1.3,1.2,1.5c0.8,0.2,1.4,1.3,2.6,0.5c0.4-0.3,0.8,0.4,1,0.7
				c0.4,1.1,1.5,1.5,2.3,1.7c2.1,0.5,4,1.5,6,2.1c1.5,0.4,3.1,1.4,4.6,1.6c1.8,0.2,3.4,1.3,5.2,1c1.9-0.3,3.7,0.8,5.6-0.2
				c0.1-0.1,0.4,0,0.5,0.1c0.2,0.2,0.1,0.4-0.1,0.7c-0.9,1.2-1.8,2.6-3.3,2.8c-1.3,0.2-2.5,1.3-4,0.5c-0.1,0-0.2-0.1-0.2,0
				c-1.8,2.3-4.9,1.8-7.2,3.4c-1,0.7-1.7,1.4-1.8,2.6c-0.1,1.4-0.9,2.6-1.1,4c-0.1,1.2-1.4,1-2.3,1.1c-2.3,0.4-4.5,0-6.7-0.4
				c-5.6-1.2-11.3-0.3-17-0.2c-3.1,0.1-6,0.8-9,1c-1.8,0.1-4,0.4-5.6-1.2c-0.4-0.4-0.9-0.5-1.4-0.4c-2.5,0.6-4.9-0.2-7.2-0.9
				c-2.6-0.9-5.3-0.2-7.9-0.1c-0.7,0-1,0.1-1.4-0.5c-0.5-0.7-1.9-0.3-2.3,0c-1.4,1.1-2.6,0.5-3.7-0.3c-0.8-0.5-1.6-0.8-2.5-0.5
				c-3.9,1.6-7.4,0.7-11.1-0.9c-3.1-1.4-5.2-3.8-7.5-6.3c-3.1-3.4-6.1-7-8.1-11.2c-0.6-1.2-1.2-2.5-1.1-4.1c0.1-1.1-1-2-1.1-3.3
				c-0.2-3.7-1.3-7.3-1-11.1c0.1-1.5-0.9-2.9-0.6-4.5c0.1-0.7,0-1.5,0.1-2.3c0.3-1.5,0.5-2.9,0.1-4.4c-0.5-1.8,0.8-3.4,0.8-5.3
				c0-0.5,0.2-0.9-0.2-1.4c-0.1-0.1-0.2-0.5-0.2-0.5c2.1-1.8,0-4.1,0.7-6c0.6-1.9,0.3-3.6-0.4-5.3c-0.5-1.2-1-2.4-1.2-3.7
				c-0.1-0.4-0.3-0.8-0.6-0.9c-2.6-0.9-4.5-3.1-7.3-3.5c-1.5-0.2-3-0.3-4.4-0.6c-2.5-0.6-5.3,0.1-7.7-1.4c-0.7-0.5-1.7-0.5-2.2-1.5
				c-0.3-0.5-1-0.8-1.5-1c-3.9-1.4-5.7-4.7-7.3-8.2c-0.6-1.3,0.4-2.4,0.8-3.6c0.7-2.3,2.2-3.6,3.9-4.7c2-1.4,4.4-2.3,6.9-2.3
				c0.9,0,1.8-0.8,2.4-0.7c1.5,0.4,3,0.1,4.5,0.5c1.3,0.4,2.9,0.5,4.2,1c2.5,1,5.3,1.3,7.3,3.2c1.5,1.5,3.2,3.1,4.1,5
				c0.4,0.8,1.1,0.9,1.5,1.2c2.1,1.1,3.3,3.1,5.5,4.2c3,1.4,6.1,1,9.2,1.5c1.9-2.2,4.9-0.8,7-2.4c2-1.5,4.1-2.7,6.3-3.9
				c3.4-2,6.6-4.3,9.6-6.6c2.4-1.9,5.5-2.3,7.5-4.8c0.4-0.5,1.3-0.6,2.1-0.8c2.3-0.5,4.3-1.9,6-3.3c1.5-1.3,3.4-1,4.9-2
				c0.5-0.4,1.3-0.4,1.8-1.1c0.7-1.1,2.1-1.1,3.2-1.5c2.2-0.7,4.5-1.6,6.8-1.7c2.2-0.1,4.3-0.7,6.4-1.4c1.6-0.5,3.3-1.6,5.2-0.8
				c0.2,0.1,0.6,0.3,0.7,0.2c2.9-2.3,5.8,0.4,8.7,0c2-0.3,4.1,0.2,6,0.1c2.1-0.1,3.8,0.2,5.5,1.3c2.8,1.9,5.2,4.1,6.9,7
				c0.7,1.2,0.2,2.6,0.8,3.8c0.5,1,0.5,2,1.5,2.8c0.9,0.7,1,1.9,0.6,2.9c-1.3,2.8-2.7,5.5-1.1,8.7c0.2,0.5-0.4,0.8-0.8,1.1
				c-1.5,1.3-3.2,2.3-5,3.2c-2.4,1.3-3.9,3.6-6,5.2c-2.9,2.2-6.1,3.7-9.5,5.1c-2.4,1-5.1,1.4-7.4,2.9c-1.2,0.8-2.8,0.7-4.2,1.3
				c-3.8,1.5-7.9,2.6-11.7,3.9c-5,1.7-9.8,0.7-14.6,0.3c-2.9-0.2-6.2-0.8-9-2.7c-0.9-0.6-1-1.6-1.8-2.2c-1.6-1.1-3.2-2.3-5.1-2.7
				c-0.6-0.2-1.2-0.3-1.6-0.7c-1.8-1.9-4.3-1.7-6.6-2.1c-0.6-0.1-1.2-0.1-1.8-0.3c-2.1-0.6-3.5,0.2-4.2,2.3
				c-0.1,0.4-0.2,0.9-0.5,1.2c-2.7,3.6-1.5,6.9,0.9,10.1c1.9,2.5,4,4.5,6.8,6c2.4,1.3,4.8,2.9,6.6,5.2c0.6,0.8,0.3,1-0.3,1.4
				c-2.2,1.4-4.7,2.2-7.1,3.2c-4.5,1.8-9.4,1.5-13.7,3.6c-2.1,1-4.1,2.1-5.4,4.1c-1.1,1.7-0.6,3.6,1.1,4.7c1.5,1,3.1,1.4,4.9,1.5
				c1.8,0.1,3.5,0.6,5.3,1.1c1,0.3,0.5,0.9,0,1.4c-1.6,1.5-3.6,2.5-4.6,4.6c-0.6,1.3-1.4,2.5-2.2,3.7c-1,1.4-0.8,3.4,0.4,4.6
				c0.9,1,1.7,2.4,3.1,2.6c2.5,0.3,5,0.1,7.4-1.1C99,323.3,101.3,321.2,104.4,320.8z M56,249c0.7-0.8,0.7-1.7-0.2-2.2
				c-1.6-0.8-2.3-3-4.6-2.5c-0.4,0.1-0.9-0.4-1.1-0.9c-0.3-0.7-0.5-0.3-1.1-0.1c-2.1,0.6-1,2.5-1.8,3.6c0,0.4-0.1,0.9,0.4,1.1
				c1,0.5,1.7,1.3,2.7,1.9C53.6,251.8,53.5,252,56,249z"/>
			<path class="st6" d="M181,192c0.6,0.6,1.1,0.1,1.6,0.1c0.7,0.1,1.9,0,2.1,0.4c1.3,1.9,2.4,0.4,3.4-0.1c1.2-0.6,3-0.5,3.2-2.3
				c0.2-1.4,0.9-2.4,2-3.2c1.6-1.2,1.6-2.5,0.4-4c-0.6-0.9-1-1.7-2.4-1.1c-1.4,0.6-3.1-0.6-4.5,0c-1.9,0.8-3.9,0.7-5.8,1.7
				c-2,1.1-2.6,1.7-1.6,3.8c0.3,0.6,0.6,1.1,0.4,1.7C179.9,190,180.4,191.4,181,192z M210.1,226.2c-1-0.6-1.6-2.1-3.2-1.1
				c0,0-0.1-0.1-0.1-0.1c-1.2-3.3-5.1-3.3-7-5.7c-2.6-3.5-5.8-6.5-8.3-10c-2.5-3.5-5.4-6.7-7.6-10.3c-1.1-1.7-2.9-3.2-3.1-5.5
				c-0.1-0.9-1-1.5-1.4-2c-1.5-1.8-2-4.1-3.2-6.1c-1.1-1.8-1.6-4-2.1-6.1c-1.3-5.1-2.5-10.3-3.9-15.4c-1-3.5-1.6-6.9-2.2-10.5
				c-0.8-4.6-1.7-9.2-0.8-14c0.1-0.5,0-1.1-0.1-1.7c-1.1-3.9-0.2-7.5,1.6-11c0.6-1.3,1-2.9,1.3-4.4c0.7-3.1,2.4-5.6,4.3-8
				c2.7-3.5,5.4-7.2,8.6-10.3c0.6-0.6,1.4-0.6,1.9-1c1.2-0.8,2.6-1.3,3.8-2.1c2-1.3,4.4-2.2,6.9-2.4c0.2,0,0.5-0.1,0.7-0.2
				c1.6-1.2,1.6-1.2,4.4-1.1c1.8,0.5,4.4,0.5,7,1.4c1.6,0.5,3.2-0.3,4.9,0.3c2.5,0.9,5.1,1.3,7.3,3.1c0.5,0.4,1.4,0.2,2.2,0.7
				c3.4,2.1,6,5.2,9,7.7c1,0.9,2.1,1.8,3.3,2.5c1.7,1,2.4,2.8,4,3.9c4.9,3.6,9,8.2,13,12.7c1.6,1.8,3.5,3.3,4.7,5.4
				c1.5,2.6,4.4,4.1,5.4,7.2c0.1,0.4,1.1,1.2,2,1.6c1.7,0.6,2.9,1.8,4.2,3c0.7,0.6,1.2,1.2,2.2,1.6c1.3,0.5,2.1,1.7,1.7,3.3
				c-0.7,2.8-1.3,5.7-2.3,8.4c-1.7,4.9-3.9,9.5-6.6,13.9c-1.3,2.2-3.3,3.7-4.9,5.6c-1.9,2.2-4.1,4.1-5.9,6.4
				c-1.3,1.6-2.9,2.8-4.3,4.3c-0.8,0.9-1.9,1.1-1.2,2.6c0.2,0.4-0.2,1-0.8,1.1c-1.4,0.2-2.6,1.1-4,1.5c-2.2,0.5-3.4,2.5-5,3.8
				c-2.8,2.2-5.5,4.4-8.3,6.5c-2.7,2-4.5,4.8-6.5,7.4c-3.4,4.2-6.9,8.3-10.4,12.5C210.8,226.1,210.6,226.5,210.1,226.2z
				 M203.6,152.8c0.5-1.1,1.1-2.1,0.5-3.2c-0.6-1.2-1.6-2.4-3.1-1.9c-1.3,0.4-0.4-0.8-1.1-1c-0.8,1.7-2.5,2.2-3.9,2.9
				c-4.7,2.2-9.2,4.8-13.6,7.6c-0.8,0.5-1.9,1.1-2.1,2.1c-0.4,2,0.8,3.2,3,3.1c1.3-0.1,2.5-0.4,3.7-0.9c2.1-0.8,4-2,6.1-2.9
				c1-0.4,2.7-1,3.2-2.5c0.2-0.6,0.8-0.5,1.3-0.6C199.7,154.9,202.3,155.4,203.6,152.8z"/>
			<path class="st1" d="M246.4,237.4c1.6-0.2,2.5-1.3,3.4-2.4c1.1-1.4,3.1-1.5,4.3-3c0.5-0.6,0.8-1.3,1.3-1.9c1.6-2,3.8-3.2,5.5-4.9
				c1.4-1.4,2.9-2.6,2.6-4.9c-0.1-1.1,0.6-2,0.2-3.3c-1.1-2.9-4.1-3.8-6.4-1.8c-0.5,0.4-1,0.7-1.5,1.1c-0.2,0.1-0.5,0.3-0.6,0.4
				c-0.8,2.9-1.2,3.1-3.2,5.1c-2.2,2.3-4.8,4-7.1,6.1c-2.3,2.1-4.8,4.1-7.7,5.7c-3.4,2-6.5,4.5-9.5,7c-2.9,2.5-5.9,4.8-9.4,6.6
				c-1.6,0.8-3.3,1.7-4.8,2.8c-1.4,1-2.6,2.1-4.4,2.4c-1.7,0.3-2.7,1.8-4.1,2.7c-1.6,1-2.6,2.9-4.8,3.1c-2.9,4-8.1,4.4-11.8,7.3
				c-1.3,1-2.7,2-3.8,3.1c-1.6,1.6-3.7,2.4-5.6,3.7c-6.1,4.2-12.2,8.5-17.7,13.5c-2,1.8-4.6,2.8-7.2,3.6c-0.6,0.2-1,0.3-1.3,0.8
				c-0.2,0.4-0.7,0.8-1.1,0.9c-2.5,0.6-4,2.6-5.8,4.1c-1.5,1.3-2.2,3.3-3.1,5c-1.8,3.2-3,6.8-4.2,10.3c-1.5,4.3-3.6,8-7.2,10.9
				c-1.8,1.4-2.9,3.6-4.7,5.9c0.3-2.4-1.4-3.5-2.1-5.1c-0.2-0.4-0.7-0.2-1-0.3c-1.5-0.2-3.1,0-4.6-0.6c-1.1-0.4-1.9,0.4-2.6,1.1
				c-1.4,1.2-2.7,2.3-4.1,3.5c-0.2,0.2-0.5,0.3-1,0.1c1.6-1.9,1.2-4.4,1.9-6.6c0.5-1.6-1.1-4-3.1-4.8c-0.4-0.2-0.8-0.3-0.9-0.6
				c-0.5-1.3-1.3-0.9-2.5-0.8c-1.6,0.1-3.4-0.7-4.9,0.4c-1.3,0.9-3,1.2-4.2,2.3c-0.4,0.4-0.9,0.5-1.6,0.3c0.6-1.2,1.6-2,2.5-2.8
				c1-1,2.2-1.8,3.3-2.8c1.8-1.6,2.1-2.6,0.7-4.5c-0.8-1.1-2-2.3-3.6-2.4c-2.4-0.2-4.8-0.7-7.2-0.1c-0.2,0.1-0.5-0.1-0.9-0.2
				c0.7-0.9,1.2-1.7,2.3-1.8c1.9-0.1,4-1.1,5.6-0.8c2.3,0.4,4.2-0.6,5.8-1.2c2.4-1,5.1-2,7.1-4c0.3-0.4,0.7-0.7,1.2-0.8
				c2.2-0.5,3.2-2.1,2.4-4.3c-0.6-1.7-1.5-3.1-3.2-4.3c-1.2-0.9-2.5-1.8-3.5-3c-1.2-1.5-2.9-2.4-4.7-3.1c-1.9-0.7-2.9-2.2-3.8-3.8
				c-0.1-0.2-0.2-0.5-0.3-0.7c-1.5-2.7-1.3-3,1.1-4.9c1.2-0.9,2.4-0.2,2.9,0.1c2.3,1.1,4.9,1.5,6.7,3.5c1.3,1.4,2.9,2.5,4.6,3.6
				c1.6,1.1,3.4,1,5.1,1.6c0.5,0.2,1.4,0.2,2.1,0.4c3.2,1.1,6.6,0.6,9.9,0.9c3.5,0.3,7,0.5,10.4-0.1c1.8-0.3,3.4-1.2,5-2.1
				c1.8-1,3.5-2.1,5.4-2.8c3.1-1.1,6.5-1.7,9.5-3.1c4.6-2,9.5-3.6,13.1-7.2c2.2-2.2,4.7-4,7.2-5.7c3-2,6-4.1,8.8-6.3
				c1.7-1.4,4-2.4,5.1-4.1c1.9-2.8,4.7-4.6,7-6.9c1.4-1.5,2.7-3.5,5-4.2c0.3-0.1,0.6-0.3,0.7-0.5c1.3-3.6,4.7-5.4,7.1-8.1
				c1.1-1.2,1.9-2.7,3.2-3.8c1.3-1.1,2-2.8,3.7-3.5c0.4-0.2,0.5-0.4,0.5-0.7c-0.8-2.9,2-3.5,3.2-5c1-1.3,2.6-2.2,3.1-4
				c0.1-0.4,0.3-0.9,0.7-1.1c4.1-1.9,6.8-5.7,10.6-8c2.1-1.2,3.5-3.4,6.2-3.7c0.1,0,0.3-0.3,0.3-0.4c1-2.1,3.3-3.5,2.8-6.2
				c-0.2-1,0.9-0.3,1.3-0.9c1.3-2,4.4-2.7,4.6-5.7c0-0.1,0.3-0.4,0.3-0.4c3,0.6,3.3-2.5,4.9-3.8c2.1-1.7,3.6-4.3,5.8-5.8
				c1.3-0.9,2-2.4,3.5-3c0.8-0.3-0.2-1,0.3-1.5c2.4,2.5,5.7,1.8,8.6,2.1c0.7,0.1,1,0,1.5,0.8c2,3.2,2.7,7.1,5.6,9.8
				c0.8,0.8,1.8,1.4,2.6,2.1c1.1,1.1,2.7,1.6,3.6,2.7c0.7,0.8,1.6,0.5,2.2,1.1c1.3,1.2,2.4,2.6,3.6,3.9c0.5-1.3,1-1,1.9,0
				c1.9,2,4.1,3.7,5.7,5.9c1.6,2.1,3.1,4.3,4.5,6.5c1.2,1.9,2.7,3.6,4.2,4.9c2.4,2.1,3.8,5,6.1,7.1c2.9,2.8,5.3,6.2,7.4,9.7
				c1.5,2.5,3.1,5.1,4,7.9c2.1,6.2,5.1,12.1,6.6,18.4c0.8,3.2,1.5,6.4,2.2,9.6c1.1,5.3,1.3,10.7,1.7,16c0.5,6.8,0.4,13.7-0.2,20.5
				c-0.4,4.4-0.9,8.8-1.9,13c-0.8,3.3-1.9,6.7-3.2,9.9c-1.1,2.7-1.8,5.5-3.5,7.8c-1.7,2.3-4.2,3.7-6.5,5.4c-2.6,1.9-5.6,3.2-8.7,3.8
				c-2,0.4-3.8,2.3-6.1,1c-1.7,1.7-3.6,0.7-5.5,0.7c-1.1,0-1.5-1-2.4-1.4c-1.7-0.7-3.6-0.1-5.1-0.9c-1.7-0.9-3.7-1.5-4.9-3.3
				c-0.1-0.2-0.5-0.4-0.8-0.4c-1.9-0.1-3-1.2-3.9-2.7c-1.3-2-3.2-3.6-4.1-5.8c-1.3-3-3.6-5.5-4.8-8.6c-0.3-0.7-0.8-1.1-1.2-1.6
				c-0.7-0.9-0.9-2-0.8-3.1c-1.2-0.1-1.7-1-2.2-2c-1-2.1-1.9-4.4-3.5-6c-3.2-3.2-4.3-7.3-6.1-11.1c-0.5-1.2-1.3-2.2-1.7-3.4
				c-0.1-0.3-0.4-0.7-0.3-0.9c0.9-1.7-0.2-2.3-1.5-2.9c-1.1-0.6-2.1-1.4-3.5-0.7c-0.3,0.1-0.7,0-1.1,0c-1.9,0.1-2.6,1.8-1.7,3.5
				c1.2,2.3,2.2,4.8,3.3,7.2c1.7,3.7,3.2,7.6,5.7,10.8c1.8,2.2,2.8,4.8,4.4,7.1c2.6,3.5,4,7.7,6.4,11.3c2,3,3.3,6.6,6.4,8.8
				c0.6,0.4,1.2,1.3,1.3,2c0.2,1.3,0.3,2.4,2,1.6c0.1,1.3,2.8,1.2,1.6,3.1c-0.1,0.1-0.1,0.2,0,0.4c0.1,1.2,0.5,2.3-0.4,3.4
				c-1.3,1.5-3.1,1.9-4.8,2.3c-1.6,0.4-3.5,1.5-5.2-0.2c-1.1,1.1-2.5,0.5-3.7,0.4c-2.5-0.1-5.1,0-7.6-0.3c-1.8-0.2-3.3-1.4-5.1-1.1
				c-2,0.3-3.7-1-5.7-0.7c-0.5,0.1-1.2,0.1-1.7-0.1c-2.5-1-5-0.3-7.5-0.5c-3.7-0.3-7.3,0.9-11.1,0.7c-2.6-0.1-4.9-1.2-7.4-1.5
				c-1.6-0.2-3.1-1.2-4.9-0.9c-0.7,0.1-0.9-0.2-1.1-0.8c-0.5-2.3,0.7-3.5,3-3.4c1.4,0.1,2.4,0.4,3.4,1.4c0.7,0.7,2-0.2,3.2,0.3
				c3,1.3,6-0.7,9.1-0.2c1.7,0.3,3.5-1.2,5.1,0.4c0.6,0.6,1-1,1.8-0.6c1.7,0.9,3.3,0.1,5,0.1c1.1,0,1.9,0.6,2.9,0.8
				c1.8,0.4,3.1-0.8,4.7-0.6c1.1,0.2,2.2-1.9,2.4-3.1c0.9-4.1-2.2-6.5-3.6-9.7c-1.4-3.2-3.2-6.4-4.9-9.4c-1.9-3.2-3.8-6.5-5.7-9.7
				c-2.6-4.2-4.9-8.6-6.6-13.3c-1-2.6-2.5-5.1-3.6-7.7c-1.1-2.5-1.6-5.1-2.6-7.6c-0.7-2,0.2-4.3,0.3-6.5c0-1.9,0.4-3.6,1.6-5
				c0.3-0.3,0.4-0.8,0.5-1.2c0.4-3.1,2.6-4.5,5.3-5.6c2.2-0.9,4.4-0.8,6.6-0.9c3.8-0.2,7.5,0.6,11.1,1.5c3.5,0.8,7,2.2,10.2,4
				c0.9,0.5,1.5,0.1,2.3,0.3c3.2,0.8,6,2.3,8.8,4c1.4,0.8,3.1,1.1,4.6,2c0.8,0.5,1.5,1.7,2.8,0.8c0.4-0.3,1,0.4,1.4,0.8
				c0.9,1.1,2.3,1.5,3.6,1.9c1.5,0.5,3.1-0.3,3.7-1.7c0.5-1.3-0.3-2.2-1.2-3c-1.2-1.1-2.2-2.2-4-1.9c-0.3,0-0.6-0.1-0.9-0.3
				c-2.9-1.7-6.1-2.8-9.1-4.3c-4.5-2.1-9.2-3.5-13.9-5c-3.7-1.2-7.4-2.4-11.1-3.6c-0.5-0.2-0.9-0.4-0.6-0.9c0.6-1.2-0.3-1.8-0.8-2.6
				c-0.9-1.6-1.7-3.3-2.3-5c-0.6-1.8-1.2-3.5-2.6-4.8c-0.3-0.3-0.7-0.8-0.7-1.3c0-1-0.4-1.5-1.4-1.7c-1.3-0.2-1.2-1.8-2.3-2.4
				c-1-0.5-1.7-1.4-2.9-1.7c-0.1,0-0.3-0.2-0.3-0.4C245.8,237.6,246,237.4,246.4,237.4z"/>
			<path class="st0" d="M55.8,246.8c1,0.5,0.9,1.4,0.2,2.2c-2.5,2.9-2.4,2.8-5.8,0.9c-1-0.6-1.7-1.4-2.7-1.9
				c-0.5-0.3-0.4-0.7-0.4-1.1c0.8-1.1-0.3-3,1.8-3.6c0.5-0.1,0.8-0.5,1.1,0.1c0.2,0.5,0.7,1,1.1,0.9
				C53.4,243.9,54.2,246.1,55.8,246.8z"/>
		</g>
		<g>
		</g>
	</g>
</g>
<rect class="st7" width="356.1" height="356.1"/>
</svg>
